<?xml version="1.0" encoding="UTF-8"?>
<svg version="1.1" xmlns="http://www.w3.org/2000/svg" width="120" height="120">
<path d="M0 0 C39.6 0 79.2 0 120 0 C120 39.6 120 79.2 120 120 C80.4 120 40.8 120 0 120 C0 80.4 0 40.8 0 0 Z " fill="#84757B" transform="translate(0,0)"/>
<path d="M0 0 C8.25 0 16.5 0 25 0 C25.38671875 13.27734375 25.38671875 13.27734375 23.55029297 18.17407227 C21.94626988 22.83509842 21.31396624 27.262057 20.90234375 32.15625 C20.78264977 33.39876526 20.78264977 33.39876526 20.66053772 34.66638184 C20.40953569 37.27676593 20.17198323 39.88808386 19.9375 42.5 C19.6989691 45.14041455 19.45726802 47.78029144 19.20375061 50.41931152 C19.04677931 52.05332892 18.89842917 53.68820182 18.75950623 55.32385254 C18.57706581 57.22402619 18.29797166 59.11448752 18 61 C17.01 61.495 17.01 61.495 16 62 C15.34227572 65.02934491 15.34227572 65.02934491 15 68 C14.34 68 13.68 68 13 68 C12.855625 68.598125 12.71125 69.19625 12.5625 69.8125 C12.1127561 71.56150404 11.57107659 73.28677023 11 75 C12.32 75 13.64 75 15 75 C15 75.66 15 76.32 15 77 C21.60615076 78.5013979 27.41989657 77.30737687 34 76 C34.495 74.02 34.495 74.02 35 72 C37 74 37 74 37 77 C39.31 76.67 41.62 76.34 44 76 C44 75.34 44 74.68 44 74 C44.66 74 45.32 74 46 74 C46.33 73.34 46.66 72.68 47 72 C47 72.99 47 73.98 47 75 C47.66 74.67 48.32 74.34 49 74 C50.65424586 73.85950588 52.31338468 73.77430036 53.97265625 73.71875 C55.44508789 73.66267578 55.44508789 73.66267578 56.94726562 73.60546875 C59.02799032 73.53502415 61.10871952 73.46471215 63.18945312 73.39453125 C64.65995117 73.33845703 64.65995117 73.33845703 66.16015625 73.28125 C67.06386963 73.25095703 67.96758301 73.22066406 68.89868164 73.18945312 C70.98610288 73.22748234 70.98610288 73.22748234 72 72 C74.67058851 71.85884839 77.32432238 71.95752893 80 72 C80.33 72.99 80.66 73.98 81 75 C80.67 75.66 80.34 76.32 80 77 C80.66 77 81.32 77 82 77 C82 77.66 82 78.32 82 79 C81.01 79.66 80.02 80.32 79 81 C83.12973628 80.43260132 83.12973628 80.43260132 87 79 C96.31270264 77.93456368 105.64072722 77.87198563 115 78 C114.67 77.34 114.34 76.68 114 76 C111.47266765 75.34444881 111.47266765 75.34444881 109 75 C109.33 73.35 109.66 71.7 110 70 C114.95 69.505 114.95 69.505 120 69 C120 85.83 120 102.66 120 120 C80.4 120 40.8 120 0 120 C0 80.4 0 40.8 0 0 Z " fill="#BFC7CE" transform="translate(0,0)"/>
<path d="M0 0 C23.78877436 -0.20638953 23.78877436 -0.20638953 34 1 C34.28875 1.928125 34.5775 2.85625 34.875 3.8125 C35.8875 7.09791667 35.8875 7.09791667 38 10 C39.66614608 10.04165365 41.33385392 10.04165365 43 10 C43.66 10.66 44.32 11.32 45 12 C45.99 12 46.98 12 48 12 C47.67 13.32 47.34 14.64 47 16 C46.34 16 45.68 16 45 16 C45.495 17.485 45.495 17.485 46 19 C46.99 19 47.98 19 49 19 C49.08078641 21.12438339 49.13909141 23.2496323 49.1875 25.375 C49.23970703 27.15003906 49.23970703 27.15003906 49.29296875 28.9609375 C49.19628906 29.96382812 49.09960938 30.96671875 49 32 C46 34 46 34 43 34 C43.33 34.99 43.66 35.98 44 37 C44.33338575 39.71080876 44.42683892 42.29668683 44 45 C42.125 46.6875 42.125 46.6875 40 48 C39.67 48.845625 39.34 49.69125 39 50.5625 C37.79156648 53.50805672 36.84509001 53.80689774 34 55 C33.505 55.99 33.505 55.99 33 57 C30.71484375 57.4140625 30.71484375 57.4140625 27.9375 57.625 C27.01839844 57.69976562 26.09929687 57.77453125 25.15234375 57.8515625 C24.44207031 57.90054688 23.73179688 57.94953125 23 58 C23 57.34 23 56.68 23 56 C21.02 56.66 19.04 57.32 17 58 C17 57.34 17 56.68 17 56 C16.34 56 15.68 56 15 56 C14.67 56.66 14.34 57.32 14 58 C13.505 56.515 13.505 56.515 13 55 C9.535 55.495 9.535 55.495 6 56 C6 55.34 6 54.68 6 54 C5.01 54 4.02 54 3 54 C3 53.01 3 52.02 3 51 C2.360625 51.185625 1.72125 51.37125 1.0625 51.5625 C0.381875 51.706875 -0.29875 51.85125 -1 52 C-2.87485504 50.12514496 -2.13052659 46.94315716 -2.1328125 44.4453125 C-2.13376923 43.78796112 -2.13472595 43.13060974 -2.13571167 42.45333862 C-2.13639345 41.059549 -2.1345393 39.66575622 -2.13037109 38.27197266 C-2.12503972 36.14087747 -2.13030724 34.00999469 -2.13671875 31.87890625 C-2.13605763 30.5260412 -2.13477578 29.17317629 -2.1328125 27.8203125 C-2.13168457 26.58555176 -2.13055664 25.35079102 -2.12939453 24.07861328 C-2 21 -2 21 -1 18 C-0.85507877 16.59335074 -0.75371069 15.1818867 -0.68359375 13.76953125 C-0.64169922 12.96708984 -0.59980469 12.16464844 -0.55664062 11.33789062 C-0.51732422 10.50451172 -0.47800781 9.67113281 -0.4375 8.8125 C-0.39431641 7.96751953 -0.35113281 7.12253906 -0.30664062 6.25195312 C-0.20068482 4.16815567 -0.0998498 2.08409897 0 0 Z " fill="#ADABB2" transform="translate(45,0)"/>
<path d="M0 0 C6.6 0 13.2 0 20 0 C20.020625 2.908125 20.04125 5.81625 20.0625 8.8125 C20.071604 9.72491455 20.08070801 10.6373291 20.09008789 11.57739258 C20.09258545 12.30079834 20.09508301 13.0242041 20.09765625 13.76953125 C20.10289307 14.50792236 20.10812988 15.24631348 20.11352539 16.00708008 C20 18 20 18 19 21 C18.42160273 24.64890127 18.21449472 28.31386859 18 32 C17.95391602 32.75152344 17.90783203 33.50304688 17.86035156 34.27734375 C17.24529978 45.64457817 17.26194044 54.3502028 24 64 C24.33 64.33 24.66 64.66 25 65 C25.13568319 68.66344611 25.16461426 71.50615721 24 75 C22.35 74.67 20.7 74.34 19 74 C19 74.66 19 75.32 19 76 C15.535 76.495 15.535 76.495 12 77 C11.34 75.68 10.68 74.36 10 73 C10 74.32 10 75.64 10 77 C7.41814569 77.3902803 4.83579017 77.76263148 2.25 78.125 C1.52039062 78.23714844 0.79078125 78.34929687 0.0390625 78.46484375 C-3.9005609 79.00206512 -6.66222665 79.3715758 -10 77 C-10 76.34 -10 75.68 -10 75 C-11.32 75 -12.64 75 -14 75 C-13.42415568 72.61435923 -12.77772405 70.33317216 -12 68 C-11.34 68 -10.68 68 -10 68 C-10 65.69 -10 63.38 -10 61 C-9.34 61 -8.68 61 -8 61 C-7.84180786 59.3439978 -7.84180786 59.3439978 -7.68041992 57.65454102 C-7.28279622 53.52162645 -6.87130334 49.39018635 -6.45581055 45.2590332 C-6.2785767 43.477825 -6.10500364 41.6962483 -5.93530273 39.91430664 C-5.68937597 37.33892699 -5.42989606 34.76520204 -5.16796875 32.19140625 C-5.09595749 31.40665421 -5.02394623 30.62190216 -4.94975281 29.81336975 C-4.43783114 24.94067212 -3.36915342 20.62707804 -1.66516113 16.03051758 C-0.62836063 12.86550757 -0.47320095 9.7479396 -0.3125 6.4375 C-0.209375 4.313125 -0.10625 2.18875 0 0 Z " fill="#201B18" transform="translate(25,0)"/>
<path d="M0 0 C8.25 0 16.5 0 25 0 C25.38671875 13.27734375 25.38671875 13.27734375 23.55029297 18.17407227 C21.94626988 22.83509842 21.31396624 27.262057 20.90234375 32.15625 C20.78264977 33.39876526 20.78264977 33.39876526 20.66053772 34.66638184 C20.40953569 37.27676593 20.17198323 39.88808386 19.9375 42.5 C19.6989691 45.14041455 19.45726802 47.78029144 19.20375061 50.41931152 C19.04677931 52.05332892 18.89842917 53.68820182 18.75950623 55.32385254 C18.57706581 57.22402619 18.29797166 59.11448752 18 61 C17.01 61.495 17.01 61.495 16 62 C15.34227572 65.02934491 15.34227572 65.02934491 15 68 C14.34 68 13.68 68 13 68 C12.855625 68.598125 12.71125 69.19625 12.5625 69.8125 C12.1127561 71.56150404 11.57107659 73.28677023 11 75 C12.32 75 13.64 75 15 75 C15 75.66 15 76.32 15 77 C21.60615076 78.5013979 27.41989657 77.30737687 34 76 C34.495 74.02 34.495 74.02 35 72 C37 74 37 74 37 77 C39.31 76.67 41.62 76.34 44 76 C44 75.34 44 74.68 44 74 C44.66 74 45.32 74 46 74 C46.33 73.34 46.66 72.68 47 72 C48.125 75.75 48.125 75.75 47 78 C46.06148193 78.03758423 46.06148193 78.03758423 45.10400391 78.07592773 C42.27745381 78.19175273 39.45124831 78.31453985 36.625 78.4375 C35.64015625 78.47681641 34.6553125 78.51613281 33.640625 78.55664062 C32.69960938 78.59853516 31.75859375 78.64042969 30.7890625 78.68359375 C29.91975098 78.72025146 29.05043945 78.75690918 28.15478516 78.79467773 C25.9516738 78.87401544 25.9516738 78.87401544 24 80 C16.08 79.67 8.16 79.34 0 79 C0 52.93 0 26.86 0 0 Z " fill="#858188" transform="translate(0,0)"/>
<path d="M0 0 C0 12.21 0 24.42 0 37 C-14.6410447 34.74753159 -14.6410447 34.74753159 -21.1171875 33.44921875 C-21.81430847 33.31007553 -22.51142944 33.17093231 -23.22967529 33.02757263 C-25.445455 32.58414863 -27.66028295 32.13619889 -29.875 31.6875 C-31.01421906 31.45797638 -31.01421906 31.45797638 -32.17645264 31.22381592 C-42.00370932 29.24381447 -51.82376076 27.23048079 -61.625 25.125 C-62.57745605 24.92221436 -63.52991211 24.71942871 -64.51123047 24.51049805 C-65.36604004 24.32398682 -66.22084961 24.13747559 -67.1015625 23.9453125 C-68.20491943 23.70578857 -68.20491943 23.70578857 -69.33056641 23.46142578 C-71 23 -71 23 -72 22 C-74.26433416 21.62505204 -76.5370179 21.29996057 -78.8125 21 C-86.54746438 19.97401509 -86.54746438 19.97401509 -90 19 C-90 18.34 -90 17.68 -90 17 C-85.94303158 16.0164925 -82.16545704 15.92140647 -78 16 C-77.34 16 -76.68 16 -76 16 C-75.01 16 -74.02 16 -73 16 C-72.67 15.34 -72.34 14.68 -72 14 C-70.68 14.33 -69.36 14.66 -68 15 C-67.67 14.01 -67.34 13.02 -67 12 C-65.68 12.66 -64.36 13.32 -63 14 C-63.99 14.66 -64.98 15.32 -66 16 C-65.01 15.67 -64.02 15.34 -63 15 C-58.5 13.5 -58.5 13.5 -54 12 C-54.495 11.01 -54.495 11.01 -55 10 C-53.35 9.67 -51.7 9.34 -50 9 C-50 8.34 -50 7.68 -50 7 C-44.555 6.01 -44.555 6.01 -39 5 C-39.33 5.99 -39.66 6.98 -40 8 C-39.34 8 -38.68 8 -38 8 C-38 8.66 -38 9.32 -38 10 C-38.99 10.66 -39.98 11.32 -41 12 C-36.87026372 11.43260132 -36.87026372 11.43260132 -33 10 C-23.68729736 8.93456368 -14.35927278 8.87198563 -5 9 C-5.495 8.01 -5.495 8.01 -6 7 C-8.52733235 6.34444881 -8.52733235 6.34444881 -11 6 C-10.67 4.35 -10.34 2.7 -10 1 C-6.37900892 -0.1141511 -4.08844645 0 0 0 Z " fill="#B8908D" transform="translate(120,69)"/>
<path d="M0 0 C11.55 0 23.1 0 35 0 C35 22.77 35 45.54 35 69 C33.68 68.67 32.36 68.34 31 68 C31 67.34 31 66.68 31 66 C29.02 66 27.04 66 25 66 C24.67 66.66 24.34 67.32 24 68 C23.67 67.01 23.34 66.02 23 65 C20.525 65.99 20.525 65.99 18 67 C17.34 66.34 16.68 65.68 16 65 C16 64.01 16 63.02 16 62 C13.69 62 11.38 62 9 62 C9 62.99 9 63.98 9 65 C7.68 65 6.36 65 5 65 C5.33 66.65 5.66 68.3 6 70 C3.36 70 0.72 70 -2 70 C-1.25 63.25 -1.25 63.25 1 61 C1.6425235 58.93125966 1.6425235 58.93125966 2 57 C2.99 57 3.98 57 5 57 C5 56.01 5 55.02 5 54 C6.98 54.66 8.96 55.32 11 56 C13.66134795 53.33865205 13.31422001 51.50292329 13.4609375 47.875 C13.63882813 47.25625 13.81671875 46.6375 14 46 C15.32 45.34 16.64 44.68 18 44 C18 37.73 18 31.46 18 25 C17.01 24.67 16.02 24.34 15 24 C14.34 20.37 13.68 16.74 13 13 C13.66 13 14.32 13 15 13 C13.67620626 9.02861879 12.33917067 6.56859282 9 4 C6.0507792 2.80808693 3.06016463 1.86312336 0 1 C0 0.67 0 0.34 0 0 Z " fill="#534F47" transform="translate(85,0)"/>
<path d="M0 0 C22.81456044 -0.89468864 22.81456044 -0.89468864 31.125 6.5 C33 9 33 9 33 13 C32.34 13 31.68 13 31 13 C31.44850658 14.81495662 31.90909571 16.62693134 32.375 18.4375 C32.75785156 19.95150391 32.75785156 19.95150391 33.1484375 21.49609375 C33.72573954 24.15570324 33.72573954 24.15570324 36 25 C36.495 34.405 36.495 34.405 37 44 C35.68 44.66 34.36 45.32 33 46 C32.71092946 48.02349375 32.429248 50.05117131 32.28125 52.08984375 C32 54 32 54 30.4375 56 C29.7259375 56.495 29.7259375 56.495 29 57 C27.02 56.01 25.04 55.02 23 54 C23 54.99 23 55.98 23 57 C21.515 56.505 21.515 56.505 20 56 C20.33 54.35 20.66 52.7 21 51 C21.33 51.66 21.66 52.32 22 53 C22.66 53 23.32 53 24 53 C24.33 50.36 24.66 47.72 25 45 C25.99 45 26.98 45 28 45 C27.57453287 42.53229066 27.31304738 41.28800359 25.4375 39.5625 C24 38 24 38 23.8125 35.3125 C23.9053125 34.1678125 23.9053125 34.1678125 24 33 C24.99 32.505 24.99 32.505 26 32 C26.46954261 28.95418731 26.46954261 28.95418731 26.625 25.4375 C26.69976562 24.23996094 26.77453125 23.04242187 26.8515625 21.80859375 C26.90054688 20.88175781 26.94953125 19.95492188 27 19 C25.68 19.33 24.36 19.66 23 20 C23 18.68 23 17.36 23 16 C23.66 15.67 24.32 15.34 25 15 C25.33 14.01 25.66 13.02 26 12 C24.68 12.33 23.36 12.66 22 13 C21.67 12.01 21.34 11.02 21 10 C20.236875 10.226875 19.47375 10.45375 18.6875 10.6875 C16 11 16 11 14.25 9.9375 C12.59027733 7.36492987 12.3347622 5.0128598 12 2 C8.04 1.67 4.08 1.34 0 1 C0 0.67 0 0.34 0 0 Z " fill="#645F63" transform="translate(67,0)"/>
<path d="M0 0 C2.05078125 0.03255208 4.1015625 0.06510417 6.15234375 0.09765625 C6.64734375 1.08765625 6.64734375 1.08765625 7.15234375 2.09765625 C3.51811166 4.42356479 0.38146044 4.26031458 -3.84765625 4.09765625 C-3.84765625 4.75765625 -3.84765625 5.41765625 -3.84765625 6.09765625 C-5.16765625 6.75765625 -6.48765625 7.41765625 -7.84765625 8.09765625 C-6.85765625 9.08765625 -6.85765625 9.08765625 -5.84765625 10.09765625 C-7.08515625 10.38640625 -8.32265625 10.67515625 -9.59765625 10.97265625 C-12.02684833 11.56922462 -13.97421214 12.16093419 -16.22265625 13.28515625 C-16.75890625 13.55328125 -17.29515625 13.82140625 -17.84765625 14.09765625 C-18.50765625 13.76765625 -19.16765625 13.43765625 -19.84765625 13.09765625 C-19.51765625 12.43765625 -19.18765625 11.77765625 -18.84765625 11.09765625 C-19.50765625 10.76765625 -20.16765625 10.43765625 -20.84765625 10.09765625 C-21.17765625 10.75765625 -21.50765625 11.41765625 -21.84765625 12.09765625 C-23.5045971 12.47638559 -25.17422177 12.80015679 -26.84765625 13.09765625 C-28.8551024 13.74155407 -30.85710749 14.40327878 -32.84765625 15.09765625 C-32.84765625 14.76765625 -32.84765625 14.43765625 -32.84765625 14.09765625 C-36.47765625 14.09765625 -40.10765625 14.09765625 -43.84765625 14.09765625 C-43.84765625 14.75765625 -43.84765625 15.41765625 -43.84765625 16.09765625 C-50.59056345 16.47072694 -55.70434276 15.90877068 -61.84765625 13.09765625 C-65.71023789 11.45374935 -65.71023789 11.45374935 -69.84765625 11.09765625 C-71.47280093 12.55598983 -71.47280093 12.55598983 -72.84765625 14.09765625 C-73.17765625 14.09765625 -73.50765625 14.09765625 -73.84765625 14.09765625 C-73.84765625 11.78765625 -73.84765625 9.47765625 -73.84765625 7.09765625 C-73.13109863 7.10289307 -72.41454102 7.10812988 -71.67626953 7.11352539 C-68.44174063 7.13426292 -65.20722569 7.14730609 -61.97265625 7.16015625 C-60.84472656 7.16853516 -59.71679688 7.17691406 -58.5546875 7.18554688 C-56.94013672 7.19038086 -56.94013672 7.19038086 -55.29296875 7.1953125 C-53.80047607 7.20316772 -53.80047607 7.20316772 -52.27783203 7.21118164 C-49.83804852 7.26159775 -49.83804852 7.26159775 -47.84765625 6.09765625 C-46.25318161 6.01365096 -44.6552508 5.99038158 -43.05859375 6 C-42.11757813 6.00322266 -41.1765625 6.00644531 -40.20703125 6.00976562 C-39.2221875 6.01814453 -38.23734375 6.02652344 -37.22265625 6.03515625 C-36.23007812 6.03966797 -35.2375 6.04417969 -34.21484375 6.04882812 C-31.75905465 6.0606348 -29.30338521 6.07710225 -26.84765625 6.09765625 C-26.18765625 4.77765625 -25.52765625 3.45765625 -24.84765625 2.09765625 C-23.85584351 2.06007202 -23.85584351 2.06007202 -22.84399414 2.02172852 C-19.8658332 1.90612523 -16.88801705 1.78323871 -13.91015625 1.66015625 C-12.3487793 1.60118164 -12.3487793 1.60118164 -10.75585938 1.54101562 C-9.27182617 1.47817383 -9.27182617 1.47817383 -7.7578125 1.4140625 C-6.38314819 1.35907593 -6.38314819 1.35907593 -4.98071289 1.30297852 C-2.58566128 1.07243732 -2.3181574 0.12252418 0 0 Z " fill="#C6A9A8" transform="translate(73.84765625,71.90234375)"/>
<path d="M0 0 C1.98 0 3.96 0 6 0 C6.28571429 7.42857143 6.28571429 7.42857143 4 11 C3.34 11 2.68 11 2 11 C2 11.66 2 12.32 2 13 C1.34 13 0.68 13 0 13 C0 13.66 0 14.32 0 15 C-0.68707031 15.20496094 -1.37414062 15.40992188 -2.08203125 15.62109375 C-3.43361328 16.02521484 -3.43361328 16.02521484 -4.8125 16.4375 C-5.70582031 16.70433594 -6.59914063 16.97117187 -7.51953125 17.24609375 C-9.35473055 17.80387873 -11.18033726 18.39344575 -13 19 C-15.01584651 18.38290413 -17.01751285 17.71706982 -19 17 C-19.66 17 -20.32 17 -21 17 C-21 17.69867188 -21 18.39734375 -21 19.1171875 C-21 29 -21 29 -22 32 C-28.15234375 32.87890625 -28.15234375 32.87890625 -30 33 C-32.41112739 30.58887261 -31.18546779 24.36434528 -31.1875 21.125 C-31.19974609 20.10535156 -31.21199219 19.08570312 -31.22460938 18.03515625 C-31.22654297 17.05675781 -31.22847656 16.07835938 -31.23046875 15.0703125 C-31.23457764 14.17070801 -31.23868652 13.27110352 -31.24291992 12.34423828 C-31 10 -31 10 -29 7 C-26.56982422 6.56762695 -26.56982422 6.56762695 -23.5546875 6.48828125 C-22.47832031 6.45283203 -21.40195312 6.41738281 -20.29296875 6.38085938 C-19.16503906 6.35830078 -18.03710938 6.33574219 -16.875 6.3125 C-15.17150391 6.26125977 -15.17150391 6.26125977 -13.43359375 6.20898438 C-10.62249421 6.12630498 -7.81171447 6.05722063 -5 6 C-5 5.01 -5 4.02 -5 3 C-3.35 2.67 -1.7 2.34 0 2 C0 1.34 0 0.68 0 0 Z " fill="#AFAEB6" transform="translate(74,19)"/>
<path d="M0 0 C-0.33 0.66 -0.66 1.32 -1 2 C-0.34 2 0.32 2 1 2 C1 2.66 1 3.32 1 4 C0.01 4.66 -0.98 5.32 -2 6 C1.63 5.67 5.26 5.34 9 5 C9 6.65 9 8.3 9 10 C7 12 7 12 4.6171875 12.1953125 C3.71226563 12.17210938 2.80734375 12.14890625 1.875 12.125 C0.96492188 12.10695313 0.05484375 12.08890625 -0.8828125 12.0703125 C-1.58148438 12.04710938 -2.28015625 12.02390625 -3 12 C-3.33 12.66 -3.66 13.32 -4 14 C-5.98 13.67 -7.96 13.34 -10 13 C-10 13.66 -10 14.32 -10 15 C-9.34 15 -8.68 15 -8 15 C-7.505 17.475 -7.505 17.475 -7 20 C-4.69 20.33 -2.38 20.66 0 21 C-0.33 21.66 -0.66 22.32 -1 23 C-8.22631122 21.74036777 -15.42775371 20.35238702 -22.625 18.9375 C-23.52637695 18.7631543 -24.42775391 18.58880859 -25.35644531 18.40917969 C-26.62246582 18.1582959 -26.62246582 18.1582959 -27.9140625 17.90234375 C-28.6767041 17.75273193 -29.4393457 17.60312012 -30.22509766 17.44897461 C-32 17 -32 17 -33 16 C-35.26433416 15.62505204 -37.5370179 15.29996057 -39.8125 15 C-47.54746438 13.97401509 -47.54746438 13.97401509 -51 13 C-51 12.34 -51 11.68 -51 11 C-46.94303158 10.0164925 -43.16545704 9.92140647 -39 10 C-38.34 10 -37.68 10 -37 10 C-36.01 10 -35.02 10 -34 10 C-33.67 9.34 -33.34 8.68 -33 8 C-31.68 8.33 -30.36 8.66 -29 9 C-28.67 8.01 -28.34 7.02 -28 6 C-26.68 6.66 -25.36 7.32 -24 8 C-24.99 8.66 -25.98 9.32 -27 10 C-26.01 9.67 -25.02 9.34 -24 9 C-21 8 -18 7 -15 6 C-15.495 5.01 -15.495 5.01 -16 4 C-14.35 3.67 -12.7 3.34 -11 3 C-11 2.34 -11 1.68 -11 1 C-9.5437328 0.63743142 -8.08488815 0.28520207 -6.625 -0.0625 C-5.81289062 -0.25972656 -5.00078125 -0.45695312 -4.1640625 -0.66015625 C-2 -1 -2 -1 0 0 Z " fill="#C79F9C" transform="translate(81,75)"/>
<path d="M0 0 C1.0625 1.875 1.0625 1.875 2 4 C1.67 4.66 1.34 5.32 1 6 C1.5775 5.484375 2.155 4.96875 2.75 4.4375 C5 3 5 3 7.0625 3.0625 C9.50556363 4.24462756 10.44853199 5.81384053 12 8 C12.66 8 13.32 8 14 8 C14 9.32 14 10.64 14 12 C14.99 12 15.98 12 17 12 C17 16.29 17 20.58 17 25 C15.68 24.67 14.36 24.34 13 24 C13 23.34 13 22.68 13 22 C11.02 22 9.04 22 7 22 C6.67 22.66 6.34 23.32 6 24 C5.67 23.01 5.34 22.02 5 21 C3.35 21.66 1.7 22.32 0 23 C-0.66 22.34 -1.32 21.68 -2 21 C-2 20.01 -2 19.02 -2 18 C-4.31 18 -6.62 18 -9 18 C-9 18.99 -9 19.98 -9 21 C-10.32 21 -11.64 21 -13 21 C-12.67 22.65 -12.34 24.3 -12 26 C-14.64 26 -17.28 26 -20 26 C-19.25 19.25 -19.25 19.25 -17 17 C-16.3574765 14.93125966 -16.3574765 14.93125966 -16 13 C-15.01 13 -14.02 13 -13 13 C-13 12.01 -13 11.02 -13 10 C-11.02 10.66 -9.04 11.32 -7 12 C-4.67051464 9.67051464 -4.77520686 9.14278968 -4.625 6 C-4.41796875 3.84375 -4.41796875 3.84375 -4 2 C-1.9375 0.5 -1.9375 0.5 0 0 Z " fill="#656165" transform="translate(103,44)"/>
<path d="M0 0 C0.08078641 2.12438339 0.13909141 4.2496323 0.1875 6.375 C0.23970703 8.15003906 0.23970703 8.15003906 0.29296875 9.9609375 C0.19628906 10.96382812 0.09960938 11.96671875 0 13 C-3 15 -3 15 -6 15 C-5.505 16.485 -5.505 16.485 -5 18 C-4.66661425 20.71080876 -4.57316108 23.29668683 -5 26 C-6.875 27.6875 -6.875 27.6875 -9 29 C-9.33 29.845625 -9.66 30.69125 -10 31.5625 C-11.20843352 34.50805672 -12.15490999 34.80689774 -15 36 C-15.33 36.66 -15.66 37.32 -16 38 C-18.28515625 38.4140625 -18.28515625 38.4140625 -21.0625 38.625 C-21.98160156 38.69976562 -22.90070313 38.77453125 -23.84765625 38.8515625 C-24.55792969 38.90054688 -25.26820312 38.94953125 -26 39 C-26 38.34 -26 37.68 -26 37 C-27.98 37.66 -29.96 38.32 -32 39 C-32 38.34 -32 37.68 -32 37 C-32.66 37 -33.32 37 -34 37 C-34.33 37.66 -34.66 38.32 -35 39 C-35.495 37.515 -35.495 37.515 -36 36 C-37.485 36.495 -37.485 36.495 -39 37 C-39 35.35 -39 33.7 -39 32 C-37.68 32.33 -36.36 32.66 -35 33 C-34.505 30.03 -34.505 30.03 -34 27 C-33.67 28.32 -33.34 29.64 -33 31 C-31.68 31 -30.36 31 -29 31 C-29 28.03 -29 25.06 -29 22 C-28.01 22.99 -27.02 23.98 -26 25 C-25.34 23.02 -24.68 21.04 -24 19 C-21.79334596 22.30998105 -21.21737905 24.82021436 -20.375 28.6875 C-19.98441406 30.45673828 -19.98441406 30.45673828 -19.5859375 32.26171875 C-19.39257812 33.16535156 -19.19921875 34.06898437 -19 35 C-18.01 35 -17.02 35 -16 35 C-16 33.68 -16 32.36 -16 31 C-14.68 31 -13.36 31 -12 31 C-12.495 24.565 -12.495 24.565 -13 18 C-13.99 17.67 -14.98 17.34 -16 17 C-15.34 16.01 -14.68 15.02 -14 14 C-14 14.99 -14 15.98 -14 17 C-13.01 17 -12.02 17 -11 17 C-10.566875 15.88625 -10.566875 15.88625 -10.125 14.75 C-9.17697356 12.43260203 -8.15154089 10.22082885 -7 8 C-5.68 8 -4.36 8 -3 8 C-3.495 6.515 -3.495 6.515 -4 5 C-5.32 5 -6.64 5 -8 5 C-8 3.35 -8 1.7 -8 0 C-5.13822943 -1.43088528 -3.06624227 -0.59991697 0 0 Z " fill="#A3A3AA" transform="translate(94,19)"/>
<path d="M0 0 C5.28 0 10.56 0 16 0 C16 1.65 16 3.3 16 5 C16.66 4.67 17.32 4.34 18 4 C17.88490339 5.41750563 17.75746342 6.83401169 17.625 8.25 C17.55539063 9.03890625 17.48578125 9.8278125 17.4140625 10.640625 C17 13 17 13 15.8984375 15.046875 C14.78850532 17.45977104 15.12508092 18.55022657 16 21 C9.51656189 23.63096039 3.97669157 24.39325819 -3 24 C-3.33 23.34 -3.66 22.68 -4 22 C-3.505 20.515 -3.505 20.515 -3 19 C-2.236875 19.165 -1.47375 19.33 -0.6875 19.5 C2.03596236 20.09145396 2.03596236 20.09145396 5 20 C4.21625 19.731875 3.4325 19.46375 2.625 19.1875 C0 18 0 18 -2 15 C-2.265625 12.44140625 -2.265625 12.44140625 -2.25 9.5625 C-2.25515625 8.61503906 -2.2603125 7.66757813 -2.265625 6.69140625 C-2 4 -2 4 0 0 Z " fill="#D1C1BD" transform="translate(49,1)"/>
<path d="M0 0 C4.95 0 9.9 0 15 0 C15.05425013 2.87525669 15.09379277 5.74947646 15.125 8.625 C15.14175781 9.43324219 15.15851562 10.24148438 15.17578125 11.07421875 C15.21402211 15.77784494 14.92936568 19.61507801 13 24 C11.10090078 25.89909922 9.18663553 27.44819414 7 29 C6.67 29 6.34 29 6 29 C5.896875 28.236875 5.79375 27.47375 5.6875 26.6875 C4.92322204 23.69986796 4.46799585 22.78716941 2 21 C-1.10007201 19.79950593 -1.10007201 19.79950593 -4 19 C-4.125 12.375 -4.125 12.375 -3 9 C-1.68733482 7.64631404 -0.35432675 6.31200404 1 5 C1.33 4.34 1.66 3.68 2 3 C1.34 3 0.68 3 0 3 C0 2.01 0 1.02 0 0 Z " fill="#191511" transform="translate(30,0)"/>
<path d="M0 0 C6.27 0 12.54 0 19 0 C15 4 15 4 12.9375 5.75 C7.42063288 12.1566844 7.29629512 20.64408772 6.5625 28.6875 C5.62652595 37.89521721 4.44826221 46.35308868 1 55 C0.67 55 0.34 55 0 55 C0 36.85 0 18.7 0 0 Z " fill="#241A15" transform="translate(0,0)"/>
<path d="M0 0 C23.78877436 -0.20638953 23.78877436 -0.20638953 34 1 C34.28875 1.928125 34.5775 2.85625 34.875 3.8125 C35.8875 7.09791667 35.8875 7.09791667 38 10 C39.66614608 10.04165365 41.33385392 10.04165365 43 10 C43.66 10.66 44.32 11.32 45 12 C45.99 12 46.98 12 48 12 C47.67 13.32 47.34 14.64 47 16 C46.01 16 45.02 16 44 16 C43.505 15.01 43.505 15.01 43 14 C41.01285612 13.49270931 41.01285612 13.49270931 38.6875 13.3125 C37.51767578 13.18294922 37.51767578 13.18294922 36.32421875 13.05078125 C34.00712895 13.00015576 32.20712606 13.32826598 30 14 C30 12.68 30 11.36 30 10 C27.69 10 25.38 10 23 10 C22.34 8.68 21.68 7.36 21 6 C20.34 6.66 19.68 7.32 19 8 C19.33 5.69 19.66 3.38 20 1 C12.08 1.495 12.08 1.495 4 2 C2.40231603 10.88645884 2.40231603 10.88645884 5 19 C6.65816784 19.68753301 8.32459336 20.35561283 10 21 C10.33 21.66 10.66 22.32 11 23 C7.7 22.01 4.4 21.02 1 20 C1 21.32 1 22.64 1 24 C7.19608806 24.34925757 12.19298302 23.92302766 18.015625 21.734375 C20.30866425 20.88576992 22.58859251 20.38893669 25 20 C25 19.34 25 18.68 25 18 C26.98 18 28.96 18 31 18 C30.01 18.495 30.01 18.495 29 19 C29 19.66 29 20.32 29 21 C27.35 21.33 25.7 21.66 24 22 C24 22.99 24 23.98 24 25 C26.64 25 29.28 25 32 25 C32 25.33 32 25.66 32 26 C30.67162109 25.98259766 30.67162109 25.98259766 29.31640625 25.96484375 C22.09531864 25.91224478 14.90043847 26.01044436 7.6875 26.375 C6.95281494 26.40585693 6.21812988 26.43671387 5.46118164 26.46850586 C1.27594929 26.59587325 1.27594929 26.59587325 -2 29 C-2.125 21.375 -2.125 21.375 -1 18 C-0.85507877 16.59335074 -0.75371069 15.1818867 -0.68359375 13.76953125 C-0.64169922 12.96708984 -0.59980469 12.16464844 -0.55664062 11.33789062 C-0.51732422 10.50451172 -0.47800781 9.67113281 -0.4375 8.8125 C-0.39431641 7.96751953 -0.35113281 7.12253906 -0.30664062 6.25195312 C-0.20068482 4.16815567 -0.0998498 2.08409897 0 0 Z " fill="#A29996" transform="translate(45,0)"/>
<path d="M0 0 C0.02698189 1.62490954 0.04638757 3.24994633 0.0625 4.875 C0.07410156 5.77992188 0.08570312 6.68484375 0.09765625 7.6171875 C0 10 0 10 -1 12 C-1.66 12 -2.32 12 -3 12 C-3.1546875 13.2375 -3.1546875 13.2375 -3.3125 14.5 C-4.09807467 18.49928924 -5.1747109 22.34068836 -7 26 C-7.66 26.33 -8.32 26.66 -9 27 C-9.73071333 28.61841584 -10.3877838 30.27064574 -11 31.9375 C-12.78587699 36.78587699 -12.78587699 36.78587699 -15 39 C-15.99 38.67 -16.98 38.34 -18 38 C-18.45748405 11.72008266 -18.45748405 11.72008266 -11.1328125 4.04296875 C-7.30362366 0.95794302 -5.0127083 -0.33127464 0 0 Z M-15 33 C-14 36 -14 36 -14 36 Z " fill="#A7A7AD" transform="translate(24,0)"/>
<path d="M0 0 C0.33 0 0.66 0 1 0 C0.57871631 8.33698247 0.03006623 16.64407521 -0.9375 24.9375 C-1.04940674 25.97487305 -1.04940674 25.97487305 -1.16357422 27.03320312 C-1.36953639 28.69943292 -1.67563234 30.3527211 -2 32 C-2.99 32.495 -2.99 32.495 -4 33 C-4.65772428 36.02934491 -4.65772428 36.02934491 -5 39 C-5.66 39 -6.32 39 -7 39 C-7.144375 39.598125 -7.28875 40.19625 -7.4375 40.8125 C-7.8872439 42.56150404 -8.42892341 44.28677023 -9 46 C-7.68 46 -6.36 46 -5 46 C-5 46.66 -5 47.32 -5 48 C1.60615076 49.5013979 7.41989657 48.30737687 14 47 C14.33 45.68 14.66 44.36 15 43 C17 45 17 45 17 48 C19.31 47.67 21.62 47.34 24 47 C24 46.34 24 45.68 24 45 C24.66 45 25.32 45 26 45 C26.495 44.01 26.495 44.01 27 43 C28.125 46.75 28.125 46.75 27 49 C26.06148193 49.03758423 26.06148193 49.03758423 25.10400391 49.07592773 C22.27745381 49.19175273 19.45124831 49.31453985 16.625 49.4375 C15.64015625 49.47681641 14.6553125 49.51613281 13.640625 49.55664062 C12.69960938 49.59853516 11.75859375 49.64042969 10.7890625 49.68359375 C9.48509521 49.73858032 9.48509521 49.73858032 8.15478516 49.79467773 C5.9516738 49.87401544 5.9516738 49.87401544 4 51 C2.18451964 51.01623244 0.36820701 50.96480981 -1.4453125 50.87890625 C-2.52167969 50.83056641 -3.59804688 50.78222656 -4.70703125 50.73242188 C-5.83496094 50.67634766 -6.96289062 50.62027344 -8.125 50.5625 C-9.26066406 50.51029297 -10.39632813 50.45808594 -11.56640625 50.40429688 C-14.37786631 50.27435544 -17.18899465 50.13938086 -20 50 C-20 47.69 -20 45.38 -20 43 C-17.525 42.505 -17.525 42.505 -15 42 C-15 41.34 -15 40.68 -15 40 C-14.0409375 39.8453125 -14.0409375 39.8453125 -13.0625 39.6875 C-12.0415625 39.3471875 -12.0415625 39.3471875 -11 39 C-10.67 38.01 -10.34 37.02 -10 36 C-9.01 35.505 -9.01 35.505 -8 35 C-7.67 34.01 -7.34 33.02 -7 32 C-7.99 31.67 -8.98 31.34 -10 31 C-9.34 30.67 -8.68 30.34 -8 30 C-7.01 30.33 -6.02 30.66 -5 31 C-5.020625 30.030625 -5.04125 29.06125 -5.0625 28.0625 C-5 25 -5 25 -4 24 C-3.83950946 21.47673207 -3.72160209 18.96323641 -3.625 16.4375 C-3.33639925 10.40032047 -2.64397468 5.51786021 0 0 Z " fill="#756968" transform="translate(20,29)"/>
<path d="M0 0 C1.65 0 3.3 0 5 0 C5 0.99 5 1.98 5 3 C5.66 3 6.32 3 7 3 C6.1875 5.4375 6.1875 5.4375 5 8 C4.01 8.33 3.02 8.66 2 9 C1.67 12.3 1.34 15.6 1 19 C2.32 19 3.64 19 5 19 C5 19.66 5 20.32 5 21 C5.66 21 6.32 21 7 21 C7.33 20.34 7.66 19.68 8 19 C8.66 19.66 9.32 20.32 10 21 C10.33 21 10.66 21 11 21 C11.20986888 26.97110818 10.52712485 32.0975871 9.0625 37.875 C8.88009766 38.63296875 8.69769531 39.3909375 8.50976562 40.171875 C7.164185 45.67163001 7.164185 45.67163001 6 48 C5.34 48 4.68 48 4 48 C4.33 45.36 4.66 42.72 5 40 C4.34 40 3.68 40 3 40 C3 36.7 3 33.4 3 30 C2.01 30 1.02 30 0 30 C-0.66 29.34 -1.32 28.68 -2 28 C-2.66 28.33 -3.32 28.66 -4 29 C-3.88382356 27.62422639 -3.75654223 26.24938955 -3.625 24.875 C-3.55539063 24.10929687 -3.48578125 23.34359375 -3.4140625 22.5546875 C-3 20 -3 20 -2 17.15625 C-0.86771817 13.58248547 -0.58658338 10.36297309 -0.375 6.625 C-0.30023437 5.37976563 -0.22546875 4.13453125 -0.1484375 2.8515625 C-0.09945313 1.91054688 -0.05046875 0.96953125 0 0 Z " fill="#332E2A" transform="translate(25,0)"/>
<path d="M0 0 C1.25 2.0625 1.25 2.0625 2 4 C3.65 3.67 5.3 3.34 7 3 C7.33 3.66 7.66 4.32 8 5 C8.33 4.67 8.66 4.34 9 4 C10.99958364 3.95919217 13.00045254 3.95745644 15 4 C15 4.66 15 5.32 15 6 C15.66 6.33 16.32 6.66 17 7 C14.36 7.33 11.72 7.66 9 8 C9.33 8.99 9.66 9.98 10 11 C9.34 11 8.68 11 8 11 C8 11.66 8 12.32 8 13 C9.65 13 11.3 13 13 13 C13.33 13.99 13.66 14.98 14 16 C5.585 16.495 5.585 16.495 -3 17 C-3.66 15.02 -4.32 13.04 -5 11 C-8.52451159 9.53977565 -8.52451159 9.53977565 -12 9 C-11.67 7.02 -11.34 5.04 -11 3 C-9.68 3 -8.36 3 -7 3 C-7 2.01 -7 1.02 -7 0 C-3.87438528 -1.04187157 -2.95319818 -1.23843794 0 0 Z " fill="#746B70" transform="translate(101,62)"/>
<path d="M0 0 C0.33 0.99 0.66 1.98 1 3 C3.97 3 6.94 3 10 3 C10 4.32 10 5.64 10 7 C11.01320313 7.03867188 11.01320313 7.03867188 12.046875 7.078125 C19.35348226 7.54270696 19.35348226 7.54270696 22.5625 9.8125 C23.97542471 11.96260282 24.45497718 13.52403917 25 16 C23.89591797 16.07347656 23.89591797 16.07347656 22.76953125 16.1484375 C21.79371094 16.22320312 20.81789062 16.29796875 19.8125 16.375 C18.84957031 16.44460937 17.88664062 16.51421875 16.89453125 16.5859375 C14.00036273 16.88063956 14.00036273 16.88063956 11.46875 18.03125 C8.6914783 19.12106548 6.65511404 19.20413637 3.6875 19.125 C2.36298828 19.09792969 2.36298828 19.09792969 1.01171875 19.0703125 C0.34785156 19.04710938 -0.31601563 19.02390625 -1 19 C-1 18.67 -1 18.34 -1 18 C0.093125 17.855625 1.18625 17.71125 2.3125 17.5625 C5.93122987 17.11711896 5.93122987 17.11711896 9 16 C9 15.34 9 14.68 9 14 C8.34 14 7.68 14 7 14 C7 12.68 7 11.36 7 10 C2.99745544 9.90818866 2.99745544 9.90818866 -1 10 C-1.33 10.33 -1.66 10.66 -2 11 C-3.85287502 11.07226502 -5.70833878 11.0838122 -7.5625 11.0625 C-8.57441406 11.05347656 -9.58632813 11.04445313 -10.62890625 11.03515625 C-11.41136719 11.02355469 -12.19382813 11.01195313 -13 11 C-13 10.67 -13 10.34 -13 10 C-9.7 9.67 -6.4 9.34 -3 9 C-2.01 6.03 -1.02 3.06 0 0 Z " fill="#A08E8F" transform="translate(73,63)"/>
<path d="M0 0 C0.33 0 0.66 0 1 0 C1.46321804 8.92981438 1.1428035 15.97331823 -3 24 C-3.66 24 -4.32 24 -5 24 C-5.12375 24.639375 -5.2475 25.27875 -5.375 25.9375 C-5.684375 26.9584375 -5.684375 26.9584375 -6 28 C-6.66 28.33 -7.32 28.66 -8 29 C-8.94688837 31.39229429 -9.78122261 33.74166129 -10.5625 36.1875 C-10.78357422 36.84814453 -11.00464844 37.50878906 -11.23242188 38.18945312 C-13.88081898 45.10780573 -13.88081898 45.10780573 -13 52 C-12.34 52.33 -11.68 52.66 -11 53 C-14.75 54.125 -14.75 54.125 -17 53 C-17.33 53.99 -17.66 54.98 -18 56 C-19.65 55.34 -21.3 54.68 -23 54 C-22.55835412 50.90847881 -22.02783037 48.08001231 -21 45.125 C-19.80306592 41.38458099 -19.40375028 37.90291937 -19 34 C-18.67 35.32 -18.34 36.64 -18 38 C-17.34 38 -16.68 38 -16 38 C-15.67 37.34 -15.34 36.68 -15 36 C-14.34 36 -13.68 36 -13 36 C-12.01 32.7 -11.02 29.4 -10 26 C-9.34 26 -8.68 26 -8 26 C-7.35089846 24.41800369 -6.70585306 22.83434276 -6.0625 21.25 C-5.70285156 20.36828125 -5.34320312 19.4865625 -4.97265625 18.578125 C-4.14643424 16.38813896 -3.50630057 14.28101729 -3 12 C-2.34 12 -1.68 12 -1 12 C-0.67 8.04 -0.34 4.08 0 0 Z " fill="#9D9CA1" transform="translate(24,0)"/>
<path d="M0 0 C1.98 0 3.96 0 6 0 C6.28571429 7.42857143 6.28571429 7.42857143 4 11 C3.34 11 2.68 11 2 11 C2 11.66 2 12.32 2 13 C1.34 13 0.68 13 0 13 C0 13.66 0 14.32 0 15 C-4.26616316 16.13764351 -7.56486311 17 -12 17 C-12.433125 16.071875 -12.86625 15.14375 -13.3125 14.1875 C-14.72038627 11.52815927 -15.76123556 9.91894095 -18 8 C-13.49646738 6.24252386 -9.82360189 5.80705592 -5 6 C-5 5.01 -5 4.02 -5 3 C-3.35 2.67 -1.7 2.34 0 2 C0 1.34 0 0.68 0 0 Z " fill="#CEC1BF" transform="translate(74,19)"/>
<path d="M0 0 C0.66 0 1.32 0 2 0 C1.88490339 1.41750563 1.75746342 2.83401169 1.625 4.25 C1.55539063 5.03890625 1.48578125 5.8278125 1.4140625 6.640625 C1 9 1 9 -0.0078125 10.8046875 C-1.47664214 14.05461765 -1.39052185 17.36525946 -1.5 20.875 C-1.65830782 25.89428922 -2.16289709 30.2739046 -4 35 C-4.99 34.34 -5.98 33.68 -7 33 C-7 32.34 -7 31.68 -7 31 C-7.66 31 -8.32 31 -9 31 C-9 30.01 -9 29.02 -9 28 C-9.33 27.01 -9.66 26.02 -10 25 C-8.7026607 17.71307554 -5.89658328 10.77829894 -3 4 C-2.34 4 -1.68 4 -1 4 C-0.67 2.68 -0.34 1.36 0 0 Z " fill="#8A878C" transform="translate(19,24)"/>
<path d="M0 0 C1.299375 0.4640625 1.299375 0.4640625 2.625 0.9375 C8.35000856 2.98849454 8.35000856 2.98849454 14 2 C16.3329866 1.95977609 18.66706666 1.95679753 21 2 C18.50494038 4.49505962 17.32671112 4.35948376 13.875 4.625 C12.96492188 4.69976562 12.05484375 4.77453125 11.1171875 4.8515625 C10.06917969 4.92503906 10.06917969 4.92503906 9 5 C9.20625 6.03125 9.4125 7.0625 9.625 8.125 C10.01194403 12.1234216 9.51883076 14.33693757 8 18 C6.35 17.67 4.7 17.34 3 17 C3 18.65 3 20.3 3 22 C2.01 22 1.02 22 0 22 C0 21.34 0 20.68 0 20 C-0.99 20 -1.98 20 -3 20 C-3 19.01 -3 18.02 -3 17 C-2.360625 16.87625 -1.72125 16.7525 -1.0625 16.625 C-0.381875 16.41875 0.29875 16.2125 1 16 C1.33 15.34 1.66 14.68 2 14 C1.34 13.67 0.68 13.34 0 13 C0.33 12.67 0.66 12.34 1 12 C1.09854655 10.35659133 1.12972411 8.7088539 1.125 7.0625 C1.12886719 5.71865234 1.12886719 5.71865234 1.1328125 4.34765625 C1.15421413 1.97844445 1.15421413 1.97844445 0 0 Z " fill="#A1A0A8" transform="translate(51,34)"/>
<path d="M0 0 C2.31 0.33 4.62 0.66 7 1 C7 2.32 7 3.64 7 5 C7.99 5 8.98 5 10 5 C10 9.29 10 13.58 10 18 C8.68 17.67 7.36 17.34 6 17 C6 16.34 6 15.68 6 15 C4.02 15 2.04 15 0 15 C-0.33 15.66 -0.66 16.32 -1 17 C-1.66 15.35 -2.32 13.7 -3 12 C-2.34 11.34 -1.68 10.68 -1 10 C-1 11.32 -1 12.64 -1 14 C0.175625 12.7625 0.175625 12.7625 1.375 11.5 C4 9 4 9 6 9 C6 8.34 6 7.68 6 7 C4.68 6.67 3.36 6.34 2 6 C2 5.34 2 4.68 2 4 C1.01 4 0.02 4 -1 4 C-1.33 5.32 -1.66 6.64 -2 8 C-4.64 8.66 -7.28 9.32 -10 10 C-9.67 9.34 -9.34 8.68 -9 8 C-8.34 8 -7.68 8 -7 8 C-7 6.02 -7 4.04 -7 2 C-6.67 2.99 -6.34 3.98 -6 5 C-2.37206002 3.13433512 -2.37206002 3.13433512 0 0 Z " fill="#636365" transform="translate(110,51)"/>
<path d="M0 0 C0.99 0 1.98 0 3 0 C3.33 1.98 3.66 3.96 4 6 C4.99 6.33 5.98 6.66 7 7 C7 8.32 7 9.64 7 11 C6.01 11 5.02 11 4 11 C3.67 13.64 3.34 16.28 3 19 C2.34 19 1.68 19 1 19 C0.01 21.475 0.01 21.475 -1 24 C-1.99 23.67 -2.98 23.34 -4 23 C-6.16715557 23.87483915 -6.16715557 23.87483915 -8 25 C-8 24.34 -8 23.68 -8 23 C-8.66 23 -9.32 23 -10 23 C-9.505 21.515 -9.505 21.515 -9 20 C-8.34 19.71125 -7.68 19.4225 -7 19.125 C-6.34 18.75375 -5.68 18.3825 -5 18 C-4.34444881 15.47266765 -4.34444881 15.47266765 -4 13 C-3.34 12.67 -2.68 12.34 -2 12 C0.13586678 8.79619983 0.23132175 7.98060033 0.125 4.3125 C0.09792969 3.10013672 0.09792969 3.10013672 0.0703125 1.86328125 C0.04710938 1.24839844 0.02390625 0.63351563 0 0 Z " fill="#8C8A90" transform="translate(88,34)"/>
<path d="M0 0 C0.66 0 1.32 0 2 0 C2.33 0.66 2.66 1.32 3 2 C3.33 1.67 3.66 1.34 4 1 C5.99958364 0.95919217 8.00045254 0.95745644 10 1 C10 1.66 10 2.32 10 3 C10.66 3.33 11.32 3.66 12 4 C9.36 4.33 6.72 4.66 4 5 C4.33 5.99 4.66 6.98 5 8 C4.34 8 3.68 8 3 8 C3 8.66 3 9.32 3 10 C4.65 10 6.3 10 8 10 C8.33 10.99 8.66 11.98 9 13 C0.585 13.495 0.585 13.495 -8 14 C-8.33 12.68 -8.66 11.36 -9 10 C-5.77208445 7.8480563 -4.71599191 7.79913557 -1 8 C-0.67 6.35 -0.34 4.7 0 3 C-0.66 2.67 -1.32 2.34 -2 2 C-1.34 1.34 -0.68 0.68 0 0 Z " fill="#7B7379" transform="translate(106,65)"/>
<path d="M0 0 C0 3.96 0 7.92 0 12 C-1.32 12 -2.64 12 -4 12 C-4 11.01 -4 10.02 -4 9 C-8.21878192 8.80377759 -11.17010894 9.19769832 -15 11 C-15 10.34 -15 9.68 -15 9 C-15.99 9 -16.98 9 -18 9 C-18.33 9.66 -18.66 10.32 -19 11 C-19.99 10.67 -20.98 10.34 -22 10 C-21.34 10 -20.68 10 -20 10 C-20 8.68 -20 7.36 -20 6 C-14.17521449 2.96098148 -9.51791392 2.6459081 -3 3 C-3 2.34 -3 1.68 -3 1 C-1 0 -1 0 0 0 Z " fill="#C29F9C" transform="translate(120,87)"/>
<path d="M0 0 C2.35448675 -0.05454409 4.70767875 -0.0939279 7.0625 -0.125 C9.02896484 -0.15980469 9.02896484 -0.15980469 11.03515625 -0.1953125 C15.11824299 0.00582478 18.14999053 0.72834538 22 2 C21.34 3.65 20.68 5.3 20 7 C23.3 7.33 26.6 7.66 30 8 C30 8.33 30 8.66 30 9 C23.2570928 9.37307069 18.14331349 8.81111443 12 6 C8.13741836 4.3560931 8.13741836 4.3560931 4 4 C2.37485532 5.45833358 2.37485532 5.45833358 1 7 C0.67 7 0.34 7 0 7 C0 4.69 0 2.38 0 0 Z " fill="#CDBEC0" transform="translate(0,79)"/>
<path d="M0 0 C-0.33 0.66 -0.66 1.32 -1 2 C-0.34 2 0.32 2 1 2 C1 2.66 1 3.32 1 4 C0.01 4.66 -0.98 5.32 -2 6 C-0.35 6 1.3 6 3 6 C2.67 6.66 2.34 7.32 2 8 C-0.6171875 8.37890625 -0.6171875 8.37890625 -3.875 8.5625 C-7.20115284 8.75886324 -9.83126825 8.94375608 -13 10 C-14.89470816 10.0685495 -16.7916834 10.08480372 -18.6875 10.0625 C-19.68136719 10.05347656 -20.67523438 10.04445313 -21.69921875 10.03515625 C-22.83810547 10.01775391 -22.83810547 10.01775391 -24 10 C-21.01353231 8.00902154 -18.40312738 7.05875074 -15 6 C-15.33 5.34 -15.66 4.68 -16 4 C-14.35 3.67 -12.7 3.34 -11 3 C-11 2.34 -11 1.68 -11 1 C-9.5437328 0.63743142 -8.08488815 0.28520207 -6.625 -0.0625 C-5.81289062 -0.25972656 -5.00078125 -0.45695312 -4.1640625 -0.66015625 C-2 -1 -2 -1 0 0 Z " fill="#C39B99" transform="translate(81,75)"/>
<path d="M0 0 C2.91691525 -0.05401695 5.83282724 -0.09368066 8.75 -0.125 C9.575 -0.14175781 10.4 -0.15851562 11.25 -0.17578125 C12.04921875 -0.18222656 12.8484375 -0.18867187 13.671875 -0.1953125 C14.4050293 -0.20578613 15.13818359 -0.21625977 15.89355469 -0.22705078 C18.33417421 0.03602017 19.91166597 0.72694341 22 2 C23.96753968 5.06061728 24.90171892 8.54825946 26 12 C24.68 12.33 23.36 12.66 22 13 C21.67 12.01 21.34 11.02 21 10 C20.236875 10.226875 19.47375 10.45375 18.6875 10.6875 C16 11 16 11 14.25 9.9375 C12.59027733 7.36492987 12.3347622 5.0128598 12 2 C8.04 1.67 4.08 1.34 0 1 C0 0.67 0 0.34 0 0 Z " fill="#726C6D" transform="translate(67,0)"/>
<path d="M0 0 C0.99 0.33 1.98 0.66 3 1 C4.2236068 1.0745356 4.2236068 1.0745356 6 0 C8.28571429 8.42857143 8.28571429 8.42857143 8 13 C7.01 13.33 6.02 13.66 5 14 C4.34 13.67 3.68 13.34 3 13 C3 14.32 3 15.64 3 17 C1.68 17.33 0.36 17.66 -1 18 C-2.1577506 14.52674819 -2.06866652 11.63932552 -2 8 C-1.34 7.67 -0.68 7.34 0 7 C0 4.69 0 2.38 0 0 Z " fill="#A9A9B1" transform="translate(75,37)"/>
<path d="M0 0 C1.98 0 3.96 0 6 0 C5.72100633 10.08562115 4.45594143 18.46803132 1 28 C0.67 28 0.34 28 0 28 C0 18.76 0 9.52 0 0 Z " fill="#2F2E2D" transform="translate(0,27)"/>
<path d="M0 0 C2.3125 -0.3125 2.3125 -0.3125 5 0 C6.875 2.125 6.875 2.125 8 5 C7.6875 8.3125 7.6875 8.3125 7 11 C5.18706911 10.85962479 3.3746557 10.71255111 1.5625 10.5625 C0.04849609 10.44068359 0.04849609 10.44068359 -1.49609375 10.31640625 C-4 10 -4 10 -5 9 C-5.04063832 7.33382885 -5.042721 5.66611905 -5 4 C-5.66 4 -6.32 4 -7 4 C-7 3.34 -7 2.68 -7 2 C-4.03 2.495 -4.03 2.495 -1 3 C-0.67 2.01 -0.34 1.02 0 0 Z " fill="#BB8D88" transform="translate(78,86)"/>
<path d="M0 0 C0.99 0.33 1.98 0.66 3 1 C2.67 6.61 2.34 12.22 2 18 C1.67 17.34 1.34 16.68 1 16 C0.34 16 -0.32 16 -1 16 C-1.33 17.65 -1.66 19.3 -2 21 C-2.99 20.67 -3.98 20.34 -5 20 C-5.23462153 13.6391497 -5.05678795 8.06211184 -3 2 C-2.01 1.34 -1.02 0.68 0 0 Z " fill="#2C2A28" transform="translate(40,28)"/>
<path d="M0 0 C0.66 0.33 1.32 0.66 2 1 C2.99444068 4.34493684 3.10348268 6.68955197 2 10 C2.66 10 3.32 10 4 10 C5.14806378 19.41002278 5.14806378 19.41002278 5 24 C3.35 24.66 1.7 25.32 0 26 C-1.6438397 24.3561603 -1.12997064 22.45621609 -1.1328125 20.1953125 C-1.13410156 19.21949219 -1.13539062 18.24367188 -1.13671875 17.23828125 C-1.13285156 16.21089844 -1.12898438 15.18351562 -1.125 14.125 C-1.12886719 13.10535156 -1.13273437 12.08570313 -1.13671875 11.03515625 C-1.13542969 10.05675781 -1.13414063 9.07835937 -1.1328125 8.0703125 C-1.13168457 7.17070801 -1.13055664 6.27110352 -1.12939453 5.34423828 C-1 3 -1 3 0 0 Z " fill="#A7A6AC" transform="translate(44,26)"/>
<path d="M0 0 C2.97 0.495 2.97 0.495 6 1 C6 1.99 6 2.98 6 4 C7.32 4 8.64 4 10 4 C10 6.31 10 8.62 10 11 C7.91549283 10.7168444 5.83241633 10.42314331 3.75 10.125 C2.00976562 9.88136719 2.00976562 9.88136719 0.234375 9.6328125 C-2.58193313 9.08179569 -4.55217557 8.44203518 -7 7 C-6.67 6.01 -6.34 5.02 -6 4 C-6 4.66 -6 5.32 -6 6 C-4.68 6 -3.36 6 -2 6 C-1.34 4.02 -0.68 2.04 0 0 Z " fill="#AD8987" transform="translate(110,95)"/>
<path d="M0 0 C0.310393 3.95751073 0.38679324 6.33055016 -1.625 9.8125 C-4.33165558 12.30547225 -6.46921777 13.07892638 -10 14 C-10.99 14.495 -10.99 14.495 -12 15 C-11.85831863 13.56208484 -11.71148957 12.1246763 -11.5625 10.6875 C-11.48128906 9.88699219 -11.40007813 9.08648437 -11.31640625 8.26171875 C-11 6 -11 6 -10 3 C-6.5065403 1.25327015 -3.93154432 0 0 0 Z " fill="#B3B2B7" transform="translate(23,1)"/>
<path d="M0 0 C1.32 0.66 2.64 1.32 4 2 C3.01 2.66 2.02 3.32 1 4 C1.66 4.33 2.32 4.66 3 5 C-6.22806256 9.88672817 -13.10875801 9.87745222 -23 7 C-23 6.34 -23 5.68 -23 5 C-18.94303158 4.0164925 -15.16545704 3.92140647 -11 4 C-10.34 4 -9.68 4 -9 4 C-8.01 4 -7.02 4 -6 4 C-5.67 3.34 -5.34 2.68 -5 2 C-3.68 2.33 -2.36 2.66 -1 3 C-0.67 2.01 -0.34 1.02 0 0 Z " fill="#BE9897" transform="translate(53,81)"/>
<path d="M0 0 C1.48831242 0.00667405 2.97660807 0.01863442 4.46484375 0.03515625 C5.22345703 0.03966797 5.98207031 0.04417969 6.76367188 0.04882812 C8.64326246 0.06064945 10.52281274 0.07858547 12.40234375 0.09765625 C12.07234375 2.40765625 11.74234375 4.71765625 11.40234375 7.09765625 C11.07234375 6.43765625 10.74234375 5.77765625 10.40234375 5.09765625 C9.14421875 5.24203125 7.88609375 5.38640625 6.58984375 5.53515625 C5.52830078 5.65697266 5.52830078 5.65697266 4.4453125 5.78125 C2.20837982 6.0693636 2.20837982 6.0693636 -0.59765625 7.09765625 C-1.58765625 6.76765625 -2.57765625 6.43765625 -3.59765625 6.09765625 C-3.26765625 7.41765625 -2.93765625 8.73765625 -2.59765625 10.09765625 C-3.58765625 10.09765625 -4.57765625 10.09765625 -5.59765625 10.09765625 C-5.45716107 8.61797301 -5.31010799 7.13891109 -5.16015625 5.66015625 C-5.07894531 4.83644531 -4.99773438 4.01273437 -4.9140625 3.1640625 C-4.36660886 -0.41128285 -3.83537504 0.10410899 0 0 Z " fill="#B9AFAD" transform="translate(52.59765625,0.90234375)"/>
<path d="M0 0 C0.33 0.66 0.66 1.32 1 2 C3.31 2 5.62 2 8 2 C8 3.32 8 4.64 8 6 C9.65 5.67 11.3 5.34 13 5 C12.67 5.99 12.34 6.98 12 8 C9.93359375 8.73046875 9.93359375 8.73046875 7.4375 9.1875 C6.61121094 9.34605469 5.78492187 9.50460938 4.93359375 9.66796875 C4.29550781 9.77753906 3.65742187 9.88710938 3 10 C3 10.66 3 11.32 3 12 C1.35 12.33 -0.3 12.66 -2 13 C-2 12.34 -2 11.68 -2 11 C-2.66 10.67 -3.32 10.34 -4 10 C-2.68 6.7 -1.36 3.4 0 0 Z " fill="#C0B1AD" transform="translate(67,8)"/>
<path d="M0 0 C3.96 0 7.92 0 12 0 C12.28875 0.928125 12.5775 1.85625 12.875 2.8125 C13.8875 6.09791667 13.8875 6.09791667 16 9 C17.66614608 9.04165365 19.33385392 9.04165365 21 9 C21.66 9.66 22.32 10.32 23 11 C23.99 11 24.98 11 26 11 C25.67 12.32 25.34 13.64 25 15 C24.01 15 23.02 15 22 15 C21.67 14.34 21.34 13.68 21 13 C18.95475679 12.40494001 16.90666043 12.04533219 14.8125 11.66015625 C14.214375 11.44230469 13.61625 11.22445313 13 11 C12.67 10.01 12.34 9.02 12 8 C11.34 7.67 10.68 7.34 10 7 C10 5.68 10 4.36 10 3 C8.68 3 7.36 3 6 3 C6 2.34 6 1.68 6 1 C5.34 1 4.68 1 4 1 C4.33 2.98 4.66 4.96 5 7 C3.68 6.67 2.36 6.34 1 6 C0.67 4.02 0.34 2.04 0 0 Z " fill="#938B8B" transform="translate(67,1)"/>
<path d="M0 0 C1.98 0 3.96 0 6 0 C5.34 0.33 4.68 0.66 4 1 C4 1.66 4 2.32 4 3 C2.35 3.33 0.7 3.66 -1 4 C-1 4.99 -1 5.98 -1 7 C1.64 7 4.28 7 7 7 C7 7.33 7 7.66 7 8 C5.67162109 7.98259766 5.67162109 7.98259766 4.31640625 7.96484375 C-2.90468136 7.91224478 -10.09956153 8.01044436 -17.3125 8.375 C-18.04718506 8.40585693 -18.78187012 8.43671387 -19.53881836 8.46850586 C-23.72405071 8.59587325 -23.72405071 8.59587325 -27 11 C-27 8.36 -27 5.72 -27 3 C-26.67 4.32 -26.34 5.64 -26 7 C-19.28287995 6.67039512 -13.23598332 6.05557105 -6.9140625 3.69921875 C-4.64583514 2.87062141 -2.38152083 2.38411626 0 2 C0 1.34 0 0.68 0 0 Z " fill="#958F92" transform="translate(70,18)"/>
<path d="M0 0 C1.15371094 0.06703125 2.30742188 0.1340625 3.49609375 0.203125 C6.66843946 0.76889366 7.66772537 1.22363383 9.5625 3.75 C5.21511029 5.01755218 0.83870963 5.10972577 -3.66015625 5.37109375 C-6.64419369 5.57208628 -6.64419369 5.57208628 -9.4375 7.75 C-12.125 6.875 -12.125 6.875 -14.4375 5.75 C-13.7775 5.42 -13.1175 5.09 -12.4375 4.75 C-12.4375 4.09 -12.4375 3.43 -12.4375 2.75 C-11.1175 2.75 -9.7975 2.75 -8.4375 2.75 C-8.4375 2.09 -8.4375 1.43 -8.4375 0.75 C-5.54631199 -0.695594 -3.20605133 -0.21445159 0 0 Z " fill="#D4B9BA" transform="translate(36.4375,78.25)"/>
<path d="M0 0 C0 4.29 0 8.58 0 13 C-0.33 12.34 -0.66 11.68 -1 11 C-3.12576782 10.53348793 -3.12576782 10.53348793 -5.5625 10.375 C-6.38878906 10.30023438 -7.21507813 10.22546875 -8.06640625 10.1484375 C-8.70449219 10.09945312 -9.34257813 10.05046875 -10 10 C-10 9.67 -10 9.34 -10 9 C-8.35 9 -6.7 9 -5 9 C-5.33 8.34 -5.66 7.68 -6 7 C-8.52733235 6.34444881 -8.52733235 6.34444881 -11 6 C-10.67 4.35 -10.34 2.7 -10 1 C-6.37900892 -0.1141511 -4.08844645 0 0 0 Z " fill="#919097" transform="translate(120,69)"/>
<path d="M0 0 C0.33 0 0.66 0 1 0 C1.66 2.31 2.32 4.62 3 7 C3.99 7 4.98 7 6 7 C6 5.68 6 4.36 6 3 C7.32 3 8.64 3 10 3 C10.66 2.34 11.32 1.68 12 1 C11.75 3.375 11.75 3.375 11 6 C9 7.1875 9 7.1875 7 8 C6.67 8.66 6.34 9.32 6 10 C3.71484375 10.4140625 3.71484375 10.4140625 0.9375 10.625 C0.01839844 10.69976562 -0.90070313 10.77453125 -1.84765625 10.8515625 C-2.91306641 10.92503906 -2.91306641 10.92503906 -4 11 C-4 10.34 -4 9.68 -4 9 C-4.66 9 -5.32 9 -6 9 C-6 6.36 -6 3.72 -6 1 C-5.67 2.32 -5.34 3.64 -5 5 C-3.35 5 -1.7 5 0 5 C0 3.35 0 1.7 0 0 Z " fill="#938C94" transform="translate(72,47)"/>
<path d="M0 0 C0.33 0 0.66 0 1 0 C0.58031755 8.30529485 0.05233222 16.60302235 -0.8125 24.875 C-0.87034668 25.55820312 -0.92819336 26.24140625 -0.98779297 26.9453125 C-1.20703125 28.8671875 -1.20703125 28.8671875 -2 32 C-4.07421875 33.4453125 -4.07421875 33.4453125 -6 34 C-7.32 32.68 -8.64 31.36 -10 30 C-8.35 30.33 -6.7 30.66 -5 31 C-5.020625 30.030625 -5.04125 29.06125 -5.0625 28.0625 C-5 25 -5 25 -4 24 C-3.83950946 21.47673207 -3.72160209 18.96323641 -3.625 16.4375 C-3.33639925 10.40032047 -2.64397468 5.51786021 0 0 Z " fill="#4F4647" transform="translate(20,29)"/>
<path d="M0 0 C0.66 0.33 1.32 0.66 2 1 C2 2.32 2 3.64 2 5 C1.01 5 0.02 5 -1 5 C-1 5.66 -1 6.32 -1 7 C-1.66 7 -2.32 7 -3 7 C-3 8.65 -3 10.3 -3 12 C-9.625 15.875 -9.625 15.875 -13 17 C-13 14.69 -13 12.38 -13 10 C-11.35 9.67 -9.7 9.34 -8 9 C-8 8.34 -8 7.68 -8 7 C-7.360625 6.896875 -6.72125 6.79375 -6.0625 6.6875 C-5.381875 6.460625 -4.70125 6.23375 -4 6 C-3.67 5.01 -3.34 4.02 -3 3 C-1.4375 1.3125 -1.4375 1.3125 0 0 Z " fill="#786E74" transform="translate(13,62)"/>
<path d="M0 0 C0.33 0.99 0.66 1.98 1 3 C3.97 3 6.94 3 10 3 C10 4.32 10 5.64 10 7 C11.32 7.33 12.64 7.66 14 8 C9.6279114 8.78473385 5.27464211 9.30422118 0.85546875 9.71875 C-1.01187336 9.81415709 -1.01187336 9.81415709 -2 11 C-3.85287502 11.07226502 -5.70833878 11.0838122 -7.5625 11.0625 C-8.57441406 11.05347656 -9.58632813 11.04445313 -10.62890625 11.03515625 C-11.41136719 11.02355469 -12.19382813 11.01195313 -13 11 C-13 10.67 -13 10.34 -13 10 C-9.7 9.67 -6.4 9.34 -3 9 C-2.01 6.03 -1.02 3.06 0 0 Z " fill="#918388" transform="translate(73,63)"/>
<path d="M0 0 C4.69697193 0.06021759 9.62361087 0.36074829 14 2.1875 C14.33 3.1775 14.66 4.1675 15 5.1875 C12.56257869 5.35539126 10.12507454 5.52186133 7.6875 5.6875 C6.99720703 5.73519531 6.30691406 5.78289062 5.59570312 5.83203125 C2.72337641 6.02629489 -0.12013788 6.1875 -3 6.1875 C-3.66 4.5375 -4.32 2.8875 -5 1.1875 C-3.47615222 -0.33634778 -2.12094628 0.01841099 0 0 Z " fill="#C3A5A4" transform="translate(105,77.8125)"/>
<path d="M0 0 C1.65 0 3.3 0 5 0 C4.7834375 0.92941406 4.566875 1.85882813 4.34375 2.81640625 C4.0653125 4.05261719 3.786875 5.28882813 3.5 6.5625 C3.2215625 7.78066406 2.943125 8.99882812 2.65625 10.25390625 C2.01362446 13.92222707 1.88525177 17.28502603 2 21 C0.02 20.34 -1.96 19.68 -4 19 C-4.125 12.375 -4.125 12.375 -3 9 C-1.68733482 7.64631404 -0.35432675 6.31200404 1 5 C1.33 4.34 1.66 3.68 2 3 C1.34 3 0.68 3 0 3 C0 2.01 0 1.02 0 0 Z " fill="#231F1B" transform="translate(30,0)"/>
<path d="M0 0 C0 0.66 0 1.32 0 2 C-0.99 2.495 -0.99 2.495 -2 3 C-2.22772083 5.01695593 -2.4529215 7.03435548 -2.6484375 9.0546875 C-3.08966013 11.49611941 -3.9747997 12.59116501 -6 14 C-7.98 13.01 -9.96 12.02 -12 11 C-12 11.99 -12 12.98 -12 14 C-12.99 13.67 -13.98 13.34 -15 13 C-14.67 11.35 -14.34 9.7 -14 8 C-13.67 8.66 -13.34 9.32 -13 10 C-12.34 10 -11.68 10 -11 10 C-11 8.35 -11 6.7 -11 5 C-9.35 5 -7.7 5 -6 5 C-6 3.68 -6 2.36 -6 1 C-3.92446352 0.4465236 -2.15634036 0 0 0 Z " fill="#776E75" transform="translate(102,43)"/>
<path d="M0 0 C0.33 1.32 0.66 2.64 1 4 C1.66 4 2.32 4 3 4 C3.12375 4.804375 3.2475 5.60875 3.375 6.4375 C3.684375 7.7059375 3.684375 7.7059375 4 9 C4.66 9.33 5.32 9.66 6 10 C6 10.99 6 11.98 6 13 C6.99 13.33 7.98 13.66 9 14 C9 14.66 9 15.32 9 16 C4.545 17.485 4.545 17.485 0 19 C0.33 14.38 0.66 9.76 1 5 C-0.32 5.33 -1.64 5.66 -3 6 C-3 4.68 -3 3.36 -3 2 C-2.01 1.34 -1.02 0.68 0 0 Z " fill="#6D696E" transform="translate(93,14)"/>
<path d="M0 0 C0.33 0 0.66 0 1 0 C1.33 6.27 1.66 12.54 2 19 C3.32 19 4.64 19 6 19 C6 19.99 6 20.98 6 22 C6.99 22 7.98 22 9 22 C9 22.66 9 23.32 9 24 C9.99 24 10.98 24 12 24 C12 22.35 12 20.7 12 19 C12.28875 19.639375 12.5775 20.27875 12.875 20.9375 C13.82823451 23.15206079 13.82823451 23.15206079 16 24 C14.02 25.32 12.04 26.64 10 28 C10 27.01 10 26.02 10 25 C8.6078125 25.061875 8.6078125 25.061875 7.1875 25.125 C4 25 4 25 1 23 C0.03911617 20.11734851 -0.11670941 18.32337729 -0.09765625 15.33203125 C-0.09443359 14.43935547 -0.09121094 13.54667969 -0.08789062 12.62695312 C-0.07951172 11.69818359 -0.07113281 10.76941406 -0.0625 9.8125 C-0.05798828 8.87212891 -0.05347656 7.93175781 -0.04882812 6.96289062 C-0.03704626 4.64186288 -0.02059558 2.32096356 0 0 Z " fill="#7F7A7E" transform="translate(42,32)"/>
<path d="M0 0 C0.99 0 1.98 0 3 0 C2.42415568 2.38564077 1.77772405 4.66682784 1 7 C0.77252646 10.31100381 0.60772804 13.61561171 0.48242188 16.93164062 C0.26691669 21.27833948 -0.42677473 24.94273484 -2 29 C-2.99 28.34 -3.98 27.68 -5 27 C-5 26.34 -5 25.68 -5 25 C-5.66 25 -6.32 25 -7 25 C-6.67 23.35 -6.34 21.7 -6 20 C-5.01 20 -4.02 20 -3 20 C-2.95101563 19.31035156 -2.90203125 18.62070312 -2.8515625 17.91015625 C-2.36271949 11.76590531 -1.47174401 5.9850923 0 0 Z " fill="#6D6569" transform="translate(17,30)"/>
<path d="M0 0 C-0.66 0 -1.32 0 -2 0 C-2 0.66 -2 1.32 -2 2 C-3.32 2 -4.64 2 -6 2 C-6 2.99 -6 3.98 -6 5 C-4.10820797 5.6814823 -4.10820797 5.6814823 -2 6 C-1.34 5.34 -0.68 4.68 0 4 C2.8203125 3.5859375 2.8203125 3.5859375 6.125 3.375 C7.22070312 3.30023438 8.31640625 3.22546875 9.4453125 3.1484375 C10.28835937 3.09945312 11.13140625 3.05046875 12 3 C12.33 3.66 12.66 4.32 13 5 C5.0074348 7.2173731 -1.78079326 8.53994167 -10 7 C-9.8125 4.125 -9.8125 4.125 -9 1 C-5.74792387 -1.02156084 -3.58227928 -1.32677011 0 0 Z " fill="#CAAFAE" transform="translate(30,79)"/>
<path d="M0 0 C2.475 0.99 2.475 0.99 5 2 C4.67 2.99 4.34 3.98 4 5 C4.99 4.67 5.98 4.34 7 4 C7.33 4.99 7.66 5.98 8 7 C7.01 7 6.02 7 5 7 C5 7.99 5 8.98 5 10 C4.34 10 3.68 10 3 10 C3 10.99 3 11.98 3 13 C1.68 13.33 0.36 13.66 -1 14 C-1.02685938 11.85423363 -1.04633088 9.70837355 -1.0625 7.5625 C-1.07410156 6.36753906 -1.08570312 5.17257813 -1.09765625 3.94140625 C-1 1 -1 1 0 0 Z " fill="#9C9AA1" transform="translate(1,56)"/>
<path d="M0 0 C4.95 0 9.9 0 15 0 C14.67 1.65 14.34 3.3 14 5 C13.34 5 12.68 5 12 5 C12 5.66 12 6.32 12 7 C9.69 7 7.38 7 5 7 C5.66 6.34 6.32 5.68 7 5 C6.67 4.34 6.34 3.68 6 3 C3.67843403 2.59270772 1.3431213 2.25561323 -1 2 C-0.67 1.34 -0.34 0.68 0 0 Z " fill="#B68E8B" transform="translate(105,83)"/>
<path d="M0 0 C1.98 0 3.96 0 6 0 C6.36923077 6.4 6.36923077 6.4 4.5 9.4375 C4.005 9.953125 3.51 10.46875 3 11 C3 10.01 3 9.02 3 8 C2.05125 8.04125 1.1025 8.0825 0.125 8.125 C-3 8 -3 8 -5 6 C-5 5.01 -5 4.02 -5 3 C-3.35 2.67 -1.7 2.34 0 2 C0 1.34 0 0.68 0 0 Z " fill="#BBB4B6" transform="translate(74,19)"/>
<path d="M0 0 C0.99 0.33 1.98 0.66 3 1 C3 1.99 3 2.98 3 4 C3.5775 4.12375 4.155 4.2475 4.75 4.375 C7.02335767 5.00648824 8.9253529 5.88858191 11 7 C10.48847632 10.78527521 9.79154158 12.44108688 7 15 C6.67 15.99 6.34 16.98 6 18 C5.34 18 4.68 18 4 18 C4.04640625 17.43152344 4.0928125 16.86304687 4.140625 16.27734375 C4.42583545 10.17587738 3.32210436 7.0869723 0 2 C0 1.34 0 0.68 0 0 Z " fill="#706263" transform="translate(45,56)"/>
<path d="M0 0 C1.37478516 0.01740234 1.37478516 0.01740234 2.77734375 0.03515625 C3.69644531 0.04417969 4.61554687 0.05320312 5.5625 0.0625 C6.27277344 0.07410156 6.98304687 0.08570312 7.71484375 0.09765625 C7.38484375 0.75765625 7.05484375 1.41765625 6.71484375 2.09765625 C8.03484375 3.08765625 9.35484375 4.07765625 10.71484375 5.09765625 C10.05484375 5.75765625 9.39484375 6.41765625 8.71484375 7.09765625 C7.06484375 6.10765625 5.41484375 5.11765625 3.71484375 4.09765625 C3.71484375 5.08765625 3.71484375 6.07765625 3.71484375 7.09765625 C0.74484375 6.60265625 0.74484375 6.60265625 -2.28515625 6.09765625 C-2.66734392 4.44150968 -2.99910727 2.77308601 -3.28515625 1.09765625 C-2.28515625 0.09765625 -2.28515625 0.09765625 0 0 Z " fill="#C5BAB7" transform="translate(50.28515625,25.90234375)"/>
<path d="M0 0 C0.86625 0.37125 0.86625 0.37125 1.75 0.75 C1.75 1.74 1.75 2.73 1.75 3.75 C0.43 3.75 -0.89 3.75 -2.25 3.75 C-2.37375 4.389375 -2.4975 5.02875 -2.625 5.6875 C-2.83125 6.368125 -3.0375 7.04875 -3.25 7.75 C-4.24 8.245 -4.24 8.245 -5.25 8.75 C-6 6.5 -6 6.5 -6.25 3.75 C-3.32317073 -0.36924119 -3.32317073 -0.36924119 0 0 Z M-9.25 6.75 C-8.26 6.75 -7.27 6.75 -6.25 6.75 C-4.7716774 9.70664519 -5.18967217 12.49229737 -5.25 15.75 C-5.58 14.76 -5.91 13.77 -6.25 12.75 C-7.24 12.75 -8.23 12.75 -9.25 12.75 C-9.63218767 11.09385343 -9.96395102 9.42542976 -10.25 7.75 C-9.92 7.42 -9.59 7.09 -9.25 6.75 Z " fill="#AEAEB7" transform="translate(89.25,23.25)"/>
<path d="M0 0 C0 4.29 0 8.58 0 13 C-0.99 13.495 -0.99 13.495 -2 14 C-2.66 11.03 -3.32 8.06 -4 5 C-5.32 5 -6.64 5 -8 5 C-8 3.35 -8 1.7 -8 0 C-6 -1 -6 -1 0 0 Z " fill="#908F96" transform="translate(94,19)"/>
<path d="M0 0 C0.66 0.33 1.32 0.66 2 1 C2.125 7.625 2.125 7.625 1 11 C-0.65 10.67 -2.3 10.34 -4 10 C-4 10.66 -4 11.32 -4 12 C-6.31 12.33 -8.62 12.66 -11 13 C-11 12.01 -11 11.02 -11 10 C-10.34 10 -9.68 10 -9 10 C-8.67 9.34 -8.34 8.68 -8 8 C-7.34 8.66 -6.68 9.32 -6 10 C-5.34 9.01 -4.68 8.02 -4 7 C-3.34 7 -2.68 7 -2 7 C-2 6.34 -2 5.68 -2 5 C-1.34 5 -0.68 5 0 5 C0 3.35 0 1.7 0 0 Z " fill="#3C2E2D" transform="translate(48,64)"/>
<path d="M0 0 C0.66 3.63 1.32 7.26 2 11 C-0.64 11 -3.28 11 -6 11 C-5.50928382 4.62068966 -5.50928382 4.62068966 -3 1.5625 C-1 0 -1 0 0 0 Z " fill="#231C1C" transform="translate(89,59)"/>
<path d="M0 0 C11.55 0 23.1 0 35 0 C35 0.33 35 0.66 35 1 C27.74 1.33 20.48 1.66 13 2 C12.67 2.66 12.34 3.32 12 4 C10.3733152 3.71788123 8.74867104 3.42397625 7.125 3.125 C5.76761719 2.88136719 5.76761719 2.88136719 4.3828125 2.6328125 C2 2 2 2 0 0 Z " fill="#3D3730" transform="translate(85,0)"/>
<path d="M0 0 C1.48117801 0.28127421 2.95993249 0.57533732 4.4375 0.875 C5.67306641 1.11863281 5.67306641 1.11863281 6.93359375 1.3671875 C7.61550781 1.57601562 8.29742187 1.78484375 9 2 C9.33 2.66 9.66 3.32 10 4 C9.26394531 4.04898438 8.52789062 4.09796875 7.76953125 4.1484375 C6.79371094 4.22320312 5.81789063 4.29796875 4.8125 4.375 C3.84957031 4.44460937 2.88664062 4.51421875 1.89453125 4.5859375 C-0.99963727 4.88063956 -0.99963727 4.88063956 -3.53125 6.03125 C-6.3085217 7.12106548 -8.34488596 7.20413637 -11.3125 7.125 C-12.63701172 7.09792969 -12.63701172 7.09792969 -13.98828125 7.0703125 C-14.65214844 7.04710938 -15.31601563 7.02390625 -16 7 C-16 6.67 -16 6.34 -16 6 C-14.9275 5.87625 -13.855 5.7525 -12.75 5.625 C-9.17614517 5.21826684 -9.17614517 5.21826684 -6.875 3.9375 C-4.49181915 2.74590957 -2.62772904 2.85401505 0 3 C0 2.01 0 1.02 0 0 Z " fill="#A27B78" transform="translate(88,75)"/>
<path d="M0 0 C1.32 0 2.64 0 4 0 C5.10844919 3.32534757 4.84454356 5.62182575 4 9 C3.01 8.67 2.02 8.34 1 8 C-0.66362417 7.65179959 -2.32995171 7.31595508 -4 7 C-4.33 5.68 -4.66 4.36 -5 3 C-4.360625 2.87625 -3.72125 2.7525 -3.0625 2.625 C-2.0415625 2.315625 -2.0415625 2.315625 -1 2 C-0.67 1.34 -0.34 0.68 0 0 Z " fill="#AE807B" transform="translate(81,88)"/>
<path d="M0 0 C1.32 0.66 2.64 1.32 4 2 C3.01 2.66 2.02 3.32 1 4 C1.66 4.33 2.32 4.66 3 5 C-2.54891215 7.81849506 -6.741346 9.5326514 -13 9 C-12.67 8.34 -12.34 7.68 -12 7 C-10.1875 6.4375 -10.1875 6.4375 -8 6 C-6.88625 5.7215625 -6.88625 5.7215625 -5.75 5.4375 C-5.1725 5.293125 -4.595 5.14875 -4 5 C-4 4.34 -4 3.68 -4 3 C-3.01 3 -2.02 3 -1 3 C-0.67 2.01 -0.34 1.02 0 0 Z " fill="#B8908F" transform="translate(53,81)"/>
<path d="M0 0 C2.97 0 5.94 0 9 0 C7.875 2.9375 7.875 2.9375 6 6 C3 7.0625 3 7.0625 0 7 C-1.875 5.5625 -1.875 5.5625 -3 4 C-2.34 4 -1.68 4 -1 4 C-0.67 2.68 -0.34 1.36 0 0 Z " fill="#6D595A" transform="translate(78,60)"/>
<path d="M0 0 C0.33 0 0.66 0 1 0 C1 2.31 1 4.62 1 7 C2.32 7 3.64 7 5 7 C4.625 8.9375 4.625 8.9375 4 11 C3.01 11.495 3.01 11.495 2 12 C2 11.34 2 10.68 2 10 C1.34 10 0.68 10 0 10 C-0.33 10.66 -0.66 11.32 -1 12 C-1.33 11.01 -1.66 10.02 -2 9 C-2.99 9.33 -3.98 9.66 -5 10 C-5 8.35 -5 6.7 -5 5 C-3.68 5.33 -2.36 5.66 -1 6 C-0.67 4.02 -0.34 2.04 0 0 Z " fill="#96939A" transform="translate(60,46)"/>
<path d="M0 0 C0.8971875 0.309375 0.8971875 0.309375 1.8125 0.625 C2.1425 1.945 2.4725 3.265 2.8125 4.625 C-3.8125 7.625 -3.8125 7.625 -7.1875 7.625 C-4.80005924 -0.8228673 -4.80005924 -0.8228673 0 0 Z " fill="#DDCECD" transform="translate(70.1875,28.375)"/>
<path d="M0 0 C14.42 0.76 14.42 0.76 21 3 C22.66246041 3.35371498 24.32774271 3.69595322 26 4 C26 4.33 26 4.66 26 5 C21.05 5 16.1 5 11 5 C11 4.34 11 3.68 11 3 C8.69 3.33 6.38 3.66 4 4 C4 3.34 4 2.68 4 2 C2.68 2 1.36 2 0 2 C0 1.34 0 0.68 0 0 Z " fill="#C4BCC0" transform="translate(34,89)"/>
<path d="M0 0 C0.33 0.66 0.66 1.32 1 2 C1.99 2.33 2.98 2.66 4 3 C4 4.32 4 5.64 4 7 C3.01 7 2.02 7 1 7 C0.67 9.64 0.34 12.28 0 15 C-0.66 15 -1.32 15 -2 15 C-3.38766322 8.94474232 -2.49118146 5.67989374 0 0 Z " fill="#807B82" transform="translate(91,38)"/>
<path d="M0 0 C1.1446875 0.2475 1.1446875 0.2475 2.3125 0.5 C5.30369741 1.05650184 7.23659881 1.38170059 10 0 C12.01927511 0.60578253 14.02253397 1.26919734 16 2 C16 2.33 16 2.66 16 3 C10.60539047 5.27141454 5.73842251 5.20413361 0 5 C-0.33 4.34 -0.66 3.68 -1 3 C-0.67 2.01 -0.34 1.02 0 0 Z " fill="#BDB6B9" transform="translate(46,20)"/>
<path d="M0 0 C0.66 0.33 1.32 0.66 2 1 C3.19041561 6.75367546 2.95156906 10.48968737 1 16 C0.34 16 -0.32 16 -1 16 C-0.67 13.36 -0.34 10.72 0 8 C-0.66 8 -1.32 8 -2 8 C-2.125 5.125 -2.125 5.125 -2 2 C-1.34 1.34 -0.68 0.68 0 0 Z " fill="#2C2724" transform="translate(30,32)"/>
<path d="M0 0 C3.63 0 7.26 0 11 0 C6.65780433 4.34219567 -1.07452739 5.96662959 -7.08203125 6.03515625 C-9.42232595 5.79074779 -11.69694655 5.4782865 -14 5 C-14 4.67 -14 4.34 -14 4 C-10.04 4 -6.08 4 -2 4 C-1.34 2.68 -0.68 1.36 0 0 Z " fill="#AC9C9C" transform="translate(49,74)"/>
<path d="M0 0 C2.31 0 4.62 0 7 0 C7 0.66 7 1.32 7 2 C6.05125 2.268125 5.1025 2.53625 4.125 2.8125 C0.74732727 3.74986588 0.74732727 3.74986588 -1 7 C-3.625 7.1875 -3.625 7.1875 -6 7 C-6.33 7.99 -6.66 8.98 -7 10 C-7 6 -7 6 -5 4 C-5 3.01 -5 2.02 -5 1 C-3.35 1.33 -1.7 1.66 0 2 C0 1.34 0 0.68 0 0 Z " fill="#C8BBB7" transform="translate(54,6)"/>
<path d="M0 0 C1.98 0.66 3.96 1.32 6 2 C6 4.31 6 6.62 6 9 C4.02 9 2.04 9 0 9 C0 6.03 0 3.06 0 0 Z " fill="#0F0B07" transform="translate(0,18)"/>
<path d="M0 0 C0.33 0 0.66 0 1 0 C1.32098157 8.35740901 1.21819111 15.22270481 -2 23 C-2.66 22.34 -3.32 21.68 -4 21 C-3.9765625 18.8359375 -3.9765625 18.8359375 -3.625 16.375 C-3.51414062 15.55773438 -3.40328125 14.74046875 -3.2890625 13.8984375 C-3.19367187 13.27195312 -3.09828125 12.64546875 -3 12 C-2.34 12 -1.68 12 -1 12 C-0.67 8.04 -0.34 4.08 0 0 Z " fill="#868486" transform="translate(24,0)"/>
<path d="M0 0 C5.28 0 10.56 0 16 0 C15.01 0.33 14.02 0.66 13 1 C13 1.66 13 2.32 13 3 C8.58774263 4.47075246 5.51718381 5.36884358 1 4 C0.67 2.68 0.34 1.36 0 0 Z " fill="#1B1410" transform="translate(0,0)"/>
<path d="M0 0 C0.33 0.99 0.66 1.98 1 3 C0.01 3 -0.98 3 -2 3 C-2 3.99 -2 4.98 -2 6 C-3.98 6.33 -5.96 6.66 -8 7 C-8 6.34 -8 5.68 -8 5 C-8.66 5 -9.32 5 -10 5 C-10 4.34 -10 3.68 -10 3 C-9.34 3 -8.68 3 -8 3 C-7.67 2.34 -7.34 1.68 -7 1 C-4.53721199 -0.231394 -2.7204945 -0.07159196 0 0 Z " fill="#A58987" transform="translate(90,72)"/>
<path d="M0 0 C1.22329074 3.66987221 0.88021006 6.33967822 0.5625 10.1875 C0.46066406 11.45980469 0.35882813 12.73210938 0.25390625 14.04296875 C0.12822266 15.50669922 0.12822266 15.50669922 0 17 C-0.33 16.34 -0.66 15.68 -1 15 C-1.66 15 -2.32 15 -3 15 C-3.33 11.04 -3.66 7.08 -4 3 C-3.01 2.67 -2.02 2.34 -1 2 C-0.67 1.34 -0.34 0.68 0 0 Z " fill="#353230" transform="translate(42,29)"/>
<path d="M0 0 C2.31 0.66 4.62 1.32 7 2 C7.12375 2.639375 7.2475 3.27875 7.375 3.9375 C7.58125 4.618125 7.7875 5.29875 8 6 C8.66 6.33 9.32 6.66 10 7 C6.20720018 8.26426661 4.65934648 7.40145184 1 6 C0.34 5.67 -0.32 5.34 -1 5 C-0.67 3.35 -0.34 1.7 0 0 Z " fill="#BBB3B2" transform="translate(54,30)"/>
<path d="M0 0 C1.32 0 2.64 0 4 0 C4.05422947 1.4370809 4.09289723 2.87475462 4.125 4.3125 C4.14820313 5.11300781 4.17140625 5.91351563 4.1953125 6.73828125 C4 9 4 9 2 12 C1.34 12 0.68 12 0 12 C0 8.04 0 4.08 0 0 Z " fill="#AFADB5" transform="translate(55,38)"/>
<path d="M0 0 C0.33 1.32 0.66 2.64 1 4 C-3.00391487 5.60156595 -6.07031192 4.4087561 -10 3 C-10.33 2.34 -10.66 1.68 -11 1 C-6.92630576 -1.03684712 -4.41062136 -1.0257259 0 0 Z " fill="#C9A2A0" transform="translate(58,88)"/>
<path d="M0 0 C-1.78147298 1.78147298 -4.45879772 1.337761 -6.875 1.5 C-10.18718188 1.72347251 -12.84376196 1.94792065 -16 3 C-17.89470816 3.0685495 -19.7916834 3.08480372 -21.6875 3.0625 C-22.68136719 3.05347656 -23.67523438 3.04445313 -24.69921875 3.03515625 C-25.83810547 3.01775391 -25.83810547 3.01775391 -27 3 C-21.89110973 -0.40592684 -18.02745798 -0.34037004 -12 -0.625 C-11.071875 -0.6765625 -10.14375 -0.728125 -9.1875 -0.78125 C-8.300625 -0.82507813 -7.41375 -0.86890625 -6.5 -0.9140625 C-5.27796875 -0.9752124 -5.27796875 -0.9752124 -4.03125 -1.03759766 C-2 -1 -2 -1 0 0 Z " fill="#B88D89" transform="translate(84,82)"/>
<path d="M0 0 C1.33333333 0 2.66666667 0 4 0 C3.67 2.31 3.34 4.62 3 7 C2.01 6.67 1.02 6.34 0 6 C-2.16715557 6.87483915 -2.16715557 6.87483915 -4 8 C-4 7.34 -4 6.68 -4 6 C-4.66 6 -5.32 6 -6 6 C-5 3 -5 3 -3 1.875 C-2.34 1.58625 -1.68 1.2975 -1 1 C-0.67 0.67 -0.34 0.34 0 0 Z " fill="#8A7F86" transform="translate(84,51)"/>
<path d="M0 0 C0.99 0.33 1.98 0.66 3 1 C2.34 1 1.68 1 1 1 C0.34 4.3 -0.32 7.6 -1 11 C-7.0546875 11.9765625 -7.0546875 11.9765625 -9 12 C-9.66 11.34 -10.32 10.68 -11 10 C-10.43410156 9.84144531 -9.86820313 9.68289062 -9.28515625 9.51953125 C-7.06779058 8.81418295 -5.04806871 8.10846848 -3 7 C-1.86559222 4.42919865 -1.86559222 4.42919865 -2 2 C-1.34 2 -0.68 2 0 2 C0 1.34 0 0.68 0 0 Z " fill="#484142" transform="translate(12,67)"/>
<path d="M0 0 C0.66 0.33 1.32 0.66 2 1 C2 2.32 2 3.64 2 5 C1.01 5 0.02 5 -1 5 C-1 5.66 -1 6.32 -1 7 C-1.66 7 -2.32 7 -3 7 C-3 8.65 -3 10.3 -3 12 C-4.98 12.99 -4.98 12.99 -7 14 C-7.33 13.34 -7.66 12.68 -8 12 C-7.34 11.67 -6.68 11.34 -6 11 C-6.33 10.01 -6.66 9.02 -7 8 C-6.01 7.34 -5.02 6.68 -4 6 C-3.67 5.01 -3.34 4.02 -3 3 C-1.4375 1.3125 -1.4375 1.3125 0 0 Z " fill="#6B6266" transform="translate(13,62)"/>
<path d="M0 0 C0.33 0.66 0.66 1.32 1 2 C1.66 2 2.32 2 3 2 C3.33 4.64 3.66 7.28 4 10 C2.68 10 1.36 10 0 10 C-0.33 10.66 -0.66 11.32 -1 12 C-1.66 12 -2.32 12 -3 12 C-3 10.35 -3 8.7 -3 7 C-2.34 7 -1.68 7 -1 7 C-0.67 4.69 -0.34 2.38 0 0 Z " fill="#37312F" transform="translate(18,54)"/>
<path d="M0 0 C4.75 1.875 4.75 1.875 7 3 C7.625 5.0625 7.625 5.0625 8 7 C3 6 -2 5 -7 4 C-6.67 3.01 -6.34 2.02 -6 1 C-4.35 1.33 -2.7 1.66 -1 2 C-0.67 1.34 -0.34 0.68 0 0 Z " fill="#8A858B" transform="translate(7,53)"/>
<path d="M0 0 C3 3.75 3 3.75 3 6 C-5.57142857 6.28571429 -5.57142857 6.28571429 -9 4 C-8.67 3.01 -8.34 2.02 -8 1 C-8 1.66 -8 2.32 -8 3 C-5.36 2.67 -2.72 2.34 0 2 C0 1.34 0 0.68 0 0 Z " fill="#AA8685" transform="translate(112,98)"/>
<path d="M0 0 C3 1 3 1 4.1875 3.1875 C5.07334979 6.25390311 5.14770318 8.82438155 5 12 C4.34 12 3.68 12 3 12 C3 11.34 3 10.68 3 10 C2.34 10 1.68 10 1 10 C0.63883954 8.5225254 0.28624952 7.04295325 -0.0625 5.5625 C-0.25972656 4.73878906 -0.45695312 3.91507813 -0.66015625 3.06640625 C-0.82837891 2.04353516 -0.82837891 2.04353516 -1 1 C-0.67 0.67 -0.34 0.34 0 0 Z " fill="#666368" transform="translate(93,8)"/>
<path d="M0 0 C1.98 0.495 1.98 0.495 4 1 C4 2.32 4 3.64 4 5 C4.66 5 5.32 5 6 5 C6.33 5.99 6.66 6.98 7 8 C4.6875 8.6875 4.6875 8.6875 2 9 C0.125 7.9375 0.125 7.9375 -1 6 C-0.6875 2.8125 -0.6875 2.8125 0 0 Z " fill="#7D787D" transform="translate(81,2)"/>
<path d="M0 0 C4.95 0 9.9 0 15 0 C15 0.33 15 0.66 15 1 C12.03 1 9.06 1 6 1 C6 1.66 6 2.32 6 3 C1.41176471 7 1.41176471 7 0 7 C0 4.69 0 2.38 0 0 Z " fill="#AEA9AB" transform="translate(0,79)"/>
<path d="M0 0 C1.74627478 2.61941217 2.38722388 4.03824877 3 7 C2.34 7 1.68 7 1 7 C1 8.32 1 9.64 1 11 C-0.32 11.33 -1.64 11.66 -3 12 C-3.33 9.69 -3.66 7.38 -4 5 C-3.01 5 -2.02 5 -1 5 C-0.67 3.35 -0.34 1.7 0 0 Z " fill="#A09EA4" transform="translate(77,43)"/>
<path d="M0 0 C2.97 0.33 5.94 0.66 9 1 C9.66 2.65 10.32 4.3 11 6 C9.68 6.33 8.36 6.66 7 7 C6.67 5.35 6.34 3.7 6 2 C5.34 2 4.68 2 4 2 C3.67 3.32 3.34 4.64 3 6 C3 5.01 3 4.02 3 3 C2.34 3 1.68 3 1 3 C0.67 2.01 0.34 1.02 0 0 Z " fill="#A09FA4" transform="translate(79,12)"/>
<path d="M0 0 C-1.20381448 2.49361571 -2.45428722 4.68143083 -4 7 C-4.66 7 -5.32 7 -6 7 C-6.33 7.66 -6.66 8.32 -7 9 C-7.66 7.02 -8.32 5.04 -9 3 C-2.25 0 -2.25 0 0 0 Z " fill="#BFC0C9" transform="translate(21,4)"/>
<path d="M0 0 C0.99 0.33 1.98 0.66 3 1 C3.6875 3.0625 3.6875 3.0625 4 5 C6.31 5.33 8.62 5.66 11 6 C8 8 8 8 5.4375 7.6875 C3 7 3 7 1 6 C1 5.34 1 4.68 1 4 C0.01 3.67 -0.98 3.34 -2 3 C-1.34 2.01 -0.68 1.02 0 0 Z " fill="#33312F" transform="translate(14,71)"/>
<path d="M0 0 C0.99 0.33 1.98 0.66 3 1 C2.34 2.65 1.68 4.3 1 6 C-0.65 6 -2.3 6 -4 6 C-4.33 6.66 -4.66 7.32 -5 8 C-5.66 6.35 -6.32 4.7 -7 3 C-6.34 2.34 -5.68 1.68 -5 1 C-5 2.32 -5 3.64 -5 5 C-3.35 3.35 -1.7 1.7 0 0 Z " fill="#6A696E" transform="translate(114,60)"/>
<path d="M0 0 C4.875 1.75 4.875 1.75 6 4 C5.34 4 4.68 4 4 4 C4 6.97 4 9.94 4 13 C2.68 13.33 1.36 13.66 0 14 C0.33 13.34 0.66 12.68 1 12 C1.0955931 10.33555539 1.12984645 8.66718037 1.125 7 C1.12757812 6.113125 1.13015625 5.22625 1.1328125 4.3125 C1.15127902 1.97323034 1.15127902 1.97323034 0 0 Z " fill="#A4A2A9" transform="translate(51,34)"/>
<path d="M0 0 C4.92127034 -0.16682272 8.50343896 -0.24828052 13 2 C13 2.66 13 3.32 13 4 C7.73946963 4.31563182 4.55426184 3.66590937 0 1 C0 0.67 0 0.34 0 0 Z " fill="#C1AEAF" transform="translate(102,78)"/>
<path d="M0 0 C0.66 0 1.32 0 2 0 C1.67 2.31 1.34 4.62 1 7 C0.67 6.34 0.34 5.68 0 5 C-1.65 5 -3.3 5 -5 5 C-5.33 3.68 -5.66 2.36 -6 1 C-4.7934375 1.0309375 -4.7934375 1.0309375 -3.5625 1.0625 C-1.06645115 1.29633621 -1.06645115 1.29633621 0 0 Z " fill="#6E676D" transform="translate(97,35)"/>
<path d="M0 0 C2.0625 0.4375 2.0625 0.4375 4 1 C4.625 4.375 4.625 4.375 5 8 C4.34 8.66 3.68 9.32 3 10 C1.12213895 7.06073923 -0.50118334 4.49171665 -1 1 C-0.67 0.67 -0.34 0.34 0 0 Z " fill="#27221E" transform="translate(33,16)"/>
<path d="M0 0 C6.7857936 0.54863863 13.35009036 1.54267938 20 3 C20 3.33 20 3.66 20 4 C17.22763506 3.91308261 14.45852922 3.80622639 11.6875 3.6875 C10.50897461 3.65366211 10.50897461 3.65366211 9.30664062 3.61914062 C8.54931641 3.58369141 7.79199219 3.54824219 7.01171875 3.51171875 C6.31522217 3.48553467 5.61872559 3.45935059 4.90112305 3.43237305 C2.50649641 2.88776232 1.56727453 1.84170838 0 0 Z " fill="#C4BDC2" transform="translate(72,97)"/>
<path d="M0 0 C-0.33 0.99 -0.66 1.98 -1 3 C-4.3 3.66 -7.6 4.32 -11 5 C-11 4.34 -11 3.68 -11 3 C-9.68 3 -8.36 3 -7 3 C-7 2.01 -7 1.02 -7 0 C-3.86650268 -1.04449911 -3.01031744 -0.93423645 0 0 Z " fill="#7A7076" transform="translate(101,62)"/>
<path d="M0 0 C1.10844919 3.32534757 0.84454356 5.62182575 0 9 C-0.99 9 -1.98 9 -3 9 C-3 8.34 -3 7.68 -3 7 C-3.99 7 -4.98 7 -6 7 C-6 6.01 -6 5.02 -6 4 C-5.38125 3.896875 -4.7625 3.79375 -4.125 3.6875 C-1.63473516 3.12474627 -1.63473516 3.12474627 0 0 Z " fill="#99959C" transform="translate(54,47)"/>
<path d="M0 0 C0.625 2.5625 0.625 2.5625 1 5 C0.67 4.34 0.34 3.68 0 3 C-0.5775 3.350625 -1.155 3.70125 -1.75 4.0625 C-4.35801776 5.14917407 -5.39417629 4.93065133 -8 4 C-8 3.01 -8 2.02 -8 1 C-2.25 -1.125 -2.25 -1.125 0 0 Z " fill="#595157" transform="translate(99,32)"/>
<path d="M0 0 C0.99 0 1.98 0 3 0 C3 0.66 3 1.32 3 2 C5.475 2.99 5.475 2.99 8 4 C8 4.33 8 4.66 8 5 C1.07 4.505 1.07 4.505 -6 4 C-6 3.67 -6 3.34 -6 3 C-4.35 3 -2.7 3 -1 3 C-0.67 2.01 -0.34 1.02 0 0 Z " fill="#5C5B5B" transform="translate(12,75)"/>
<path d="M0 0 C0.66 0.99 1.32 1.98 2 3 C1.01 3 0.02 3 -1 3 C-1 3.99 -1 4.98 -1 6 C-1.66 6 -2.32 6 -3 6 C-3 6.99 -3 7.98 -3 9 C-4.32 9.33 -5.64 9.66 -7 10 C-7 9.01 -7 8.02 -7 7 C-6.01 7 -5.02 7 -4 7 C-4.33 6.01 -4.66 5.02 -5 4 C-4.34 4 -3.68 4 -3 4 C-3.33 3.01 -3.66 2.02 -4 1 C-2.68 0.67 -1.36 0.34 0 0 Z " fill="#928F96" transform="translate(7,60)"/>
<path d="M0 0 C3.63 0 7.26 0 11 0 C11.33 1.32 11.66 2.64 12 4 C11.34 4.66 10.68 5.32 10 6 C9.01 6 8.02 6 7 6 C7 4.68 7 3.36 7 2 C4.69 2 2.38 2 0 2 C0 1.34 0 0.68 0 0 Z " fill="#ADA09B" transform="translate(68,8)"/>
<path d="M0 0 C0.99 0 1.98 0 3 0 C3 2.64 3 5.28 3 8 C1.68 7.67 0.36 7.34 -1 7 C-1.625 5.1875 -1.625 5.1875 -2 3 C-1.34 2.01 -0.68 1.02 0 0 Z " fill="#555557" transform="translate(117,61)"/>
<path d="M0 0 C0.33 1.32 0.66 2.64 1 4 C2.32 4.33 3.64 4.66 5 5 C-0.625 6.125 -0.625 6.125 -4 5 C-4 3.68 -4 2.36 -4 1 C-2.68 0.67 -1.36 0.34 0 0 Z " fill="#7E747A" transform="translate(82,66)"/>
<path d="M0 0 C1.32 0 2.64 0 4 0 C4.33 1.98 4.66 3.96 5 6 C3.68 6.33 2.36 6.66 1 7 C0.67 4.69 0.34 2.38 0 0 Z " fill="#999AA0" transform="translate(87,27)"/>
<path d="M0 0 C2.64 0 5.28 0 8 0 C7.67 1.65 7.34 3.3 7 5 C6.34 5 5.68 5 5 5 C5 5.66 5 6.32 5 7 C4.34 6.67 3.68 6.34 3 6 C2.65657551 4.66923011 2.32380126 3.33568021 2 2 C1.34 1.34 0.68 0.68 0 0 Z " fill="#D3C8C7" transform="translate(69,27)"/>
<path d="M0 0 C4.95 0 9.9 0 15 0 C14.01 1.485 14.01 1.485 13 3 C11.4840625 2.7525 11.4840625 2.7525 9.9375 2.5 C6.23737067 2.03014231 2.72392609 1.92400151 -1 2 C-0.67 1.34 -0.34 0.68 0 0 Z " fill="#B99795" transform="translate(105,83)"/>
<path d="M0 0 C1.37988943 2.75977886 0.62402826 4.01978801 -0.25 6.9375 C-0.62898437 8.25041016 -0.62898437 8.25041016 -1.015625 9.58984375 C-2.01885365 12.04616152 -2.99968237 13.29748247 -5 15 C-4.43174347 9.45949887 -2.37113483 4.96284034 0 0 Z " fill="#A3A0A3" transform="translate(12,5)"/>
<path d="M0 0 C-1.2608012 1.03319813 -2.53403258 2.05124379 -3.8125 3.0625 C-4.87404297 3.91521484 -4.87404297 3.91521484 -5.95703125 4.78515625 C-6.63121094 5.18605469 -7.30539063 5.58695312 -8 6 C-8.99 5.67 -9.98 5.34 -11 5 C-10.34 3.35 -9.68 1.7 -9 0 C-8.67 0.66 -8.34 1.32 -8 2 C-7.34 2 -6.68 2 -6 2 C-6 1.34 -6 0.68 -6 0 C-3 -1 -3 -1 0 0 Z " fill="#211A16" transform="translate(19,1)"/>
<path d="M0 0 C0 1.98 0 3.96 0 6 C-0.33 5.34 -0.66 4.68 -1 4 C-3.12576782 3.53348793 -3.12576782 3.53348793 -5.5625 3.375 C-6.38878906 3.30023438 -7.21507813 3.22546875 -8.06640625 3.1484375 C-8.70449219 3.09945312 -9.34257813 3.05046875 -10 3 C-10 2.67 -10 2.34 -10 2 C-6.38026598 0.68373308 -3.90432869 0 0 0 Z " fill="#9E9BA1" transform="translate(120,76)"/>
<path d="M0 0 C1.98 0.495 1.98 0.495 4 1 C4 3.64 4 6.28 4 9 C3.01 8.34 2.02 7.68 1 7 C1 6.34 1 5.68 1 5 C0.34 5 -0.32 5 -1 5 C-0.67 3.35 -0.34 1.7 0 0 Z " fill="#7A747B" transform="translate(11,50)"/>
<path d="M0 0 C0.33 1.32 0.66 2.64 1 4 C1.66 4 2.32 4 3 4 C2.67 5.98 2.34 7.96 2 10 C1.67 10 1.34 10 1 10 C1 8.35 1 6.7 1 5 C-0.32 5.33 -1.64 5.66 -3 6 C-3 4.68 -3 3.36 -3 2 C-2.01 1.34 -1.02 0.68 0 0 Z " fill="#7A767D" transform="translate(93,14)"/>
<path d="M0 0 C1.65 0.33 3.3 0.66 5 1 C3.85981998 4.42054006 3.07541482 5.2426201 0 7 C-2.25 6.6875 -2.25 6.6875 -4 6 C-3.67 5.34 -3.34 4.68 -3 4 C-2.01 4 -1.02 4 0 4 C0 2.68 0 1.36 0 0 Z " fill="#CAA1A1" transform="translate(58,79)"/>
<path d="M0 0 C2 3 2 3 2 6 C1.34 6 0.68 6 0 6 C-0.0825 6.61875 -0.165 7.2375 -0.25 7.875 C-1 10 -1 10 -3.0625 11.25 C-3.701875 11.4975 -4.34125 11.745 -5 12 C-4.39246975 8.59783062 -3.04845528 6.73127371 -1 4 C-0.29485154 1.85266073 -0.29485154 1.85266073 0 0 Z " fill="#99979D" transform="translate(19,18)"/>
<path d="M0 0 C0 0.99 0 1.98 0 3 C-1.65 2.67 -3.3 2.34 -5 2 C-5.33 2.66 -5.66 3.32 -6 4 C-7.32 3.67 -8.64 3.34 -10 3 C-10 2.34 -10 1.68 -10 1 C-6.59437148 0.22157062 -3.49234244 -0.09978121 0 0 Z " fill="#C2A09F" transform="translate(40,85)"/>
<path d="M0 0 C-1.32 0.33 -2.64 0.66 -4 1 C-4 1.99 -4 2.98 -4 4 C-5.65 3.67 -7.3 3.34 -9 3 C-9 2.01 -9 1.02 -9 0 C-2.25 -1.125 -2.25 -1.125 0 0 Z " fill="#60575B" transform="translate(98,61)"/>
<path d="M0 0 C0.33 0 0.66 0 1 0 C1.33 2.64 1.66 5.28 2 8 C0.02 8 -1.96 8 -4 8 C-4.33 7.01 -4.66 6.02 -5 5 C-3.35 5 -1.7 5 0 5 C0 3.35 0 1.7 0 0 Z " fill="#97929A" transform="translate(72,47)"/>
<path d="M0 0 C0.99 0 1.98 0 3 0 C2.11223998 3.69900008 1.05418136 7.34550461 0 11 C-2 8 -2 8 -1.7578125 5.95703125 C-1.171875 3.97135417 -0.5859375 1.98567708 0 0 Z " fill="#716C70" transform="translate(17,30)"/>
<path d="M0 0 C1.65 0 3.3 0 5 0 C4.67 0.99 4.34 1.98 4 3 C5.32 3.33 6.64 3.66 8 4 C5.03 4 2.06 4 -1 4 C-0.67 2.68 -0.34 1.36 0 0 Z " fill="#BC918E" transform="translate(71,77)"/>
<path d="M0 0 C-0.99 0 -1.98 0 -3 0 C-3.33 1.32 -3.66 2.64 -4 4 C-5.32 4 -6.64 4 -8 4 C-7.67 2.35 -7.34 0.7 -7 -1 C-3.51418144 -2.2020064 -3.32007656 -2.21338437 0 0 Z " fill="#8B888F" transform="translate(117,71)"/>
<path d="M0 0 C0.99 0.33 1.98 0.66 3 1 C2.67 2.98 2.34 4.96 2 7 C0.35 6.67 -1.3 6.34 -3 6 C-3 5.01 -3 4.02 -3 3 C-2.01 3 -1.02 3 0 3 C0 2.01 0 1.02 0 0 Z " fill="#695F66" transform="translate(90,54)"/>
<path d="M0 0 C0.66 0.66 1.32 1.32 2 2 C1.625 5.125 1.625 5.125 1 8 C0.01 8 -0.98 8 -2 8 C-2.125 5.125 -2.125 5.125 -2 2 C-1.34 1.34 -0.68 0.68 0 0 Z " fill="#A5A5AE" transform="translate(86,30)"/>
<path d="M0 0 C2.015625 1.08203125 2.015625 1.08203125 4 3 C4.171875 6.13671875 4.171875 6.13671875 3.75 9.6875 C3.62109375 10.86699219 3.4921875 12.04648437 3.359375 13.26171875 C3.24078125 14.16535156 3.1221875 15.06898437 3 16 C2.67 16 2.34 16 2 16 C2 12.7 2 9.4 2 6 C1.34 5.67 0.68 5.34 0 5 C0 3.35 0 1.7 0 0 Z " fill="#3B3534" transform="translate(4,11)"/>
<path d="M0 0 C0.66 0.33 1.32 0.66 2 1 C1.67 2.65 1.34 4.3 1 6 C0.34 6 -0.32 6 -1 6 C-2.62514468 7.45833358 -2.62514468 7.45833358 -4 9 C-3.42415568 6.61435923 -2.77772405 4.33317216 -2 2 C-1.34 2 -0.68 2 0 2 C0 1.34 0 0.68 0 0 Z " fill="#251F1F" transform="translate(15,66)"/>
<path d="M0 0 C2.97 0 5.94 0 9 0 C8.01 1.485 8.01 1.485 7 3 C5.0546875 3.29296875 5.0546875 3.29296875 2.875 3.1875 C1.59625 3.125625 0.3175 3.06375 -1 3 C-0.67 2.01 -0.34 1.02 0 0 Z " fill="#786768" transform="translate(78,60)"/>
<path d="M0 0 C0.66 0.33 1.32 0.66 2 1 C1.67 3.64 1.34 6.28 1 9 C0.67 8.01 0.34 7.02 0 6 C-1.32 6 -2.64 6 -4 6 C-4 5.01 -4 4.02 -4 3 C-2.68 3 -1.36 3 0 3 C0 2.01 0 1.02 0 0 Z " fill="#9F9CA4" transform="translate(65,47)"/>
<path d="M0 0 C0.99 0 1.98 0 3 0 C3 2.64 3 5.28 3 8 C2.01 8.495 2.01 8.495 1 9 C0.67 6.03 0.34 3.06 0 0 Z " fill="#807F85" transform="translate(91,24)"/>
<path d="M0 0 C-0.719823 3.80477874 -1.77554283 7.3266285 -3 11 C-4.60725635 7.78548731 -4.05748185 4.56387464 -4 1 C-2 0 -2 0 0 0 Z " fill="#9FA0A8" transform="translate(86,21)"/>
<path d="M0 0 C0.33 0.99 0.66 1.98 1 3 C2.32 3 3.64 3 5 3 C4.625 4.9375 4.625 4.9375 4 7 C3.01 7.495 3.01 7.495 2 8 C2 7.34 2 6.68 2 6 C1.34 6 0.68 6 0 6 C0 4.02 0 2.04 0 0 Z " fill="#928B93" transform="translate(60,50)"/>
<path d="M0 0 C0.66 0.99 1.32 1.98 2 3 C1.67 3.99 1.34 4.98 1 6 C-1.0625 6.6875 -1.0625 6.6875 -3 7 C-3.33 5.68 -3.66 4.36 -4 3 C-2.68 3 -1.36 3 0 3 C0 2.01 0 1.02 0 0 Z " fill="#A09DA4" transform="translate(47,45)"/>
<path d="M0 0 C1 2 1 2 0.44140625 4.1640625 C0.15136719 4.97617187 -0.13867188 5.78828125 -0.4375 6.625 C-0.72496094 7.44226562 -1.01242188 8.25953125 -1.30859375 9.1015625 C-1.53675781 9.72804688 -1.76492187 10.35453125 -2 11 C-2.33 11 -2.66 11 -3 11 C-3 7.7 -3 4.4 -3 1 C-2.01 0.67 -1.02 0.34 0 0 Z " fill="#3C3938" transform="translate(3,44)"/>
<path d="M0 0 C0.99 0.33 1.98 0.66 3 1 C2.34 2.32 1.68 3.64 1 5 C-0.98 5 -2.96 5 -5 5 C-3.35 3.35 -1.7 1.7 0 0 Z " fill="#D1C3C0" transform="translate(77,19)"/>
<path d="M0 0 C0.99 0.33 1.98 0.66 3 1 C2.67 2.32 2.34 3.64 2 5 C1.34 5 0.68 5 0 5 C0 5.99 0 6.98 0 8 C-0.66 8 -1.32 8 -2 8 C-2.33 6.68 -2.66 5.36 -3 4 C-2.01 4 -1.02 4 0 4 C0 2.68 0 1.36 0 0 Z " fill="#7F777D" transform="translate(10,60)"/>
<path d="M0 0 C2 2 2 2 2.1953125 3.9453125 C2.13020833 5.96354167 2.06510417 7.98177083 2 10 C-0.11180592 7.42910583 -1.66306057 5.36939433 -2 2 C-1.34 1.34 -0.68 0.68 0 0 Z " fill="#98989F" transform="translate(87,35)"/>
<path d="M0 0 C0.66 0 1.32 0 2 0 C2.33 2.31 2.66 4.62 3 7 C2.34 7 1.68 7 1 7 C0.67 7.99 0.34 8.98 0 10 C0 6.7 0 3.4 0 0 Z " fill="#B0B1B7" transform="translate(83,14)"/>
<path d="M0 0 C1.32 0.33 2.64 0.66 4 1 C3.67 2.32 3.34 3.64 3 5 C2.34 5 1.68 5 1 5 C0.67 5.99 0.34 6.98 0 8 C0 5.36 0 2.72 0 0 Z " fill="#3E3B36" transform="translate(25,0)"/>
<path d="M0 0 C3 3.75 3 3.75 3 6 C1.35 6 -0.3 6 -2 6 C-1.49396008 3.83125748 -1.00016187 2.00032373 0 0 Z " fill="#A17C79" transform="translate(112,98)"/>
<path d="M0 0 C1.32 0 2.64 0 4 0 C4.33 0.99 4.66 1.98 5 3 C1.37 3 -2.26 3 -6 3 C-6 2.67 -6 2.34 -6 2 C-4.02 2 -2.04 2 0 2 C0 1.34 0 0.68 0 0 Z " fill="#B3A2A2" transform="translate(115,80)"/>
<path d="M0 0 C1.32 0.66 2.64 1.32 4 2 C3.67 2.99 3.34 3.98 3 5 C1.35 5 -0.3 5 -2 5 C-2 4.01 -2 3.02 -2 2 C-1.34 2 -0.68 2 0 2 C0 1.34 0 0.68 0 0 Z " fill="#443837" transform="translate(39,72)"/>
<path d="M0 0 C2 2 2 2 2 6 C0.35 5.67 -1.3 5.34 -3 5 C-3 4.34 -3 3.68 -3 3 C-2.34 3 -1.68 3 -1 3 C-0.67 2.01 -0.34 1.02 0 0 Z " fill="#130F0E" transform="translate(87,63)"/>
<path d="M0 0 C0.99 0 1.98 0 3 0 C3 1.98 3 3.96 3 6 C2.01 6 1.02 6 0 6 C-0.38218767 4.34385343 -0.71395102 2.67542976 -1 1 C-0.67 0.67 -0.34 0.34 0 0 Z " fill="#AFB1BB" transform="translate(80,30)"/>
<path d="M0 0 C3.82097239 0.53069061 6.06171403 1.49701566 9 4 C6.36 3.67 3.72 3.34 1 3 C0.67 2.01 0.34 1.02 0 0 Z " fill="#AC8F8E" transform="translate(87,97)"/>
<path d="M0 0 C1.32 0 2.64 0 4 0 C3.67 1.32 3.34 2.64 3 4 C1.68 4 0.36 4 -1 4 C-0.67 2.68 -0.34 1.36 0 0 Z " fill="#A2726A" transform="translate(80,90)"/>
<path d="M0 0 C0.66 0 1.32 0 2 0 C2.33 1.98 2.66 3.96 3 6 C0.5625 5.625 0.5625 5.625 -2 5 C-2.33 4.34 -2.66 3.68 -3 3 C-2.34 3 -1.68 3 -1 3 C-0.67 2.01 -0.34 1.02 0 0 Z " fill="#1D1713" transform="translate(3,14)"/>
<path d="M0 0 C0.99 0.33 1.98 0.66 3 1 C3.6875 3.0625 3.6875 3.0625 4 5 C2.68 5.33 1.36 5.66 0 6 C-1.24546405 3.50907189 -0.7767578 2.58919267 0 0 Z " fill="#7E7A80" transform="translate(89,7)"/>
<path d="M0 0 C0.66 0 1.32 0 2 0 C2.33 2.31 2.66 4.62 3 7 C2.34 6.34 1.68 5.68 1 5 C0.34 5.66 -0.32 6.32 -1 7 C-0.67 4.69 -0.34 2.38 0 0 Z " fill="#A89E9C" transform="translate(65,1)"/>
<path d="M0 0 C0.99 0.33 1.98 0.66 3 1 C2.34 2.65 1.68 4.3 1 6 C0.67 5.34 0.34 4.68 0 4 C-0.66 4 -1.32 4 -2 4 C-1.34 2.68 -0.68 1.36 0 0 Z " fill="#626265" transform="translate(114,60)"/>
<path d="M0 0 C0.66 0.33 1.32 0.66 2 1 C2.33 1.99 2.66 2.98 3 4 C1.02 4.33 -0.96 4.66 -3 5 C-1.125 1.125 -1.125 1.125 0 0 Z " fill="#817275" transform="translate(84,56)"/>
<path d="M0 0 C1.32 0.66 2.64 1.32 4 2 C3.67 2.99 3.34 3.98 3 5 C0.525 4.01 0.525 4.01 -2 3 C-1.34 2.01 -0.68 1.02 0 0 Z " fill="#A19FA5" transform="translate(3,51)"/>
<path d="M0 0 C0.33 0.99 0.66 1.98 1 3 C3.97 3.33 6.94 3.66 10 4 C10 4.33 10 4.66 10 5 C6.7 5 3.4 5 0 5 C-0.33 4.34 -0.66 3.68 -1 3 C-0.67 2.01 -0.34 1.02 0 0 Z " fill="#B3ABAE" transform="translate(46,20)"/>
<path d="M0 0 C1.98 0.495 1.98 0.495 4 1 C4 1.99 4 2.98 4 4 C2.35 3.67 0.7 3.34 -1 3 C-0.67 2.01 -0.34 1.02 0 0 Z " fill="#A5A6AD" transform="translate(87,23)"/>
<path d="M0 0 C1 3 1 3 0.0625 5.1875 C-0.4634375 6.0846875 -0.4634375 6.0846875 -1 7 C-1.66 6.67 -2.32 6.34 -3 6 C-3 4.68 -3 3.36 -3 2 C-2.01 1.34 -1.02 0.68 0 0 Z " fill="#2D251F" transform="translate(3,11)"/>
<path d="M0 0 C0.66 0.33 1.32 0.66 2 1 C1.01 2.485 1.01 2.485 0 4 C0.66 4.66 1.32 5.32 2 6 C1.34 6 0.68 6 0 6 C-0.33 6.66 -0.66 7.32 -1 8 C-1.66 6.02 -2.32 4.04 -3 2 C-2.01 1.34 -1.02 0.68 0 0 Z " fill="#BABAC1" transform="translate(15,5)"/>
<path d="M0 0 C2.64 0 5.28 0 8 0 C7.67 0.66 7.34 1.32 7 2 C6.01 1.67 5.02 1.34 4 1 C4 1.66 4 2.32 4 3 C2.68 3 1.36 3 0 3 C0 2.01 0 1.02 0 0 Z " fill="#B1A6A4" transform="translate(57,1)"/>
</svg>
