<?xml version="1.0" encoding="UTF-8"?>
<svg version="1.1" xmlns="http://www.w3.org/2000/svg" width="1000" height="1000">
<path d="M0 0 C2.47793746 0.79709876 4.92257229 1.26399212 7.484375 1.71875 C11.52498368 2.47558228 14.54890207 3.87601354 18.234375 5.71875 C20.06190649 6.16016915 21.89630704 6.57349264 23.734375 6.96875 C31.17566068 8.71800745 37.54777914 12.15366081 44.234375 15.71875 C45.60649449 16.4119811 46.98096039 17.10062204 48.359375 17.78125 C49.26042969 18.23564453 49.26042969 18.23564453 50.1796875 18.69921875 C51.81250476 19.50941895 53.45539324 20.2993159 55.1015625 21.08203125 C60.55275985 23.71247187 65.46029006 26.39283068 70.19140625 30.16796875 C72.53172482 31.94446296 74.97529434 33.44039416 77.484375 34.96875 C83.84428957 38.95596152 89.80052141 43.5314587 95.234375 48.71875 C95.234375 49.37875 95.234375 50.03875 95.234375 50.71875 C95.96785156 50.94949219 96.70132813 51.18023437 97.45703125 51.41796875 C100.76216188 52.96594132 102.33101165 54.74808449 104.671875 57.53125 C107.20105774 60.46510197 109.59273899 63.17661658 112.671875 65.53125 C115.42363202 67.88031087 115.98719231 69.42262432 117.234375 72.71875 C118.1625 73.1828125 118.1625 73.1828125 119.109375 73.65625 C122.27580225 75.23946362 123.83891753 77.55601031 125.234375 80.71875 C125.81452084 84.1471675 125.78730347 87.52712344 125.76249695 90.99803162 C125.77503194 92.54802112 125.77503194 92.54802112 125.78782016 94.12932354 C125.8107945 97.59088617 125.80518366 101.05180212 125.79956055 104.51342773 C125.80989211 106.99554151 125.82188063 109.47764887 125.83540344 111.95974731 C125.86325085 118.00127517 125.87205373 124.04254887 125.87082794 130.08411842 C125.86999508 134.99526427 125.87586097 139.90635736 125.88645363 144.81749153 C125.91912342 160.26406721 125.92811783 175.71048041 125.91936389 191.1570856 C125.91338111 203.33831187 125.94378479 215.51913578 125.99098661 227.7002617 C126.03909522 240.21314585 126.0611614 252.72583625 126.0556758 265.23881489 C126.05310002 272.26185281 126.06107343 279.28450519 126.09674644 286.30746269 C126.13002496 292.91091761 126.12693799 299.51366327 126.09930229 306.11719131 C126.09483795 308.54116324 126.10233687 310.965191 126.12264633 313.38908195 C126.14849316 316.69788517 126.13121868 320.00376375 126.10307312 323.31248474 C126.12073453 324.27241205 126.13839594 325.23233936 126.15659255 326.22135538 C126.06319869 331.2971491 125.50061877 334.01248231 121.84414387 337.66601658 C120.64189043 338.68477905 119.43868928 339.70242456 118.234375 340.71875 C117.33536282 341.78224105 116.45838542 342.86493053 115.609375 343.96875 C113.25744883 346.69203294 111.27562106 347.89400236 108.234375 349.71875 C106.4277996 351.63421488 104.8542051 353.63611129 103.234375 355.71875 C103.89027238 357.70139795 103.89027238 357.70139795 105.234375 359.71875 C106.36359375 360.15574219 106.36359375 360.15574219 107.515625 360.6015625 C110.61547936 361.87535323 112.56509883 363.47980102 115.046875 365.71875 C115.83707031 366.42 116.62726562 367.12125 117.44140625 367.84375 C119.234375 369.71875 119.234375 369.71875 119.234375 371.71875 C121.214375 372.37875 123.194375 373.03875 125.234375 373.71875 C125.234375 577.98875 125.234375 782.25875 125.234375 992.71875 C-126.885625 992.71875 -379.005625 992.71875 -638.765625 992.71875 C-646.2555847 966.50389106 -644.15499265 930.17568355 -631.765625 905.71875 C-627.72302638 899.69107608 -623.30972308 894.07060511 -616.765625 890.71875 C-616.105625 890.71875 -615.445625 890.71875 -614.765625 890.71875 C-614.53875 889.8525 -614.311875 888.98625 -614.078125 888.09375 C-610.09184789 877.84332313 -598.00182942 868.83685221 -588.390625 864.03125 C-586.59625 863.3815625 -586.59625 863.3815625 -584.765625 862.71875 C-583.67507813 862.31849609 -583.67507813 862.31849609 -582.5625 861.91015625 C-577.69772028 860.2702547 -573.27289447 859.53667545 -568.140625 859.28125 C-562.30799869 858.96485753 -558.79059014 857.60345221 -553.765625 854.71875 C-552.775625 854.71875 -551.785625 854.71875 -550.765625 854.71875 C-551.11343018 853.8215625 -551.46123535 852.924375 -551.81958008 852 C-553.12275395 848.63802828 -554.425351 845.27583332 -555.7277832 841.91357422 C-556.28915184 840.46462101 -556.85067221 839.01572657 -557.41235352 837.56689453 C-558.22453077 835.47183817 -559.03614313 833.37656369 -559.84765625 831.28125 C-560.09465775 830.64445313 -560.34165924 830.00765625 -560.59614563 829.3515625 C-565.90565739 815.6357415 -565.90565739 815.6357415 -567.078125 810.15625 C-568.21051848 805.41916942 -569.76188066 801.0863995 -571.640625 796.59375 C-574.85242658 788.89475591 -577.06884439 781.05430055 -579.16552734 772.98974609 C-579.73208118 770.84569246 -580.33037814 768.71377271 -580.94140625 766.58203125 C-587.62813881 742.87029137 -592.20127465 718.20856922 -594.765625 693.71875 C-594.89582031 692.57535156 -595.02601563 691.43195312 -595.16015625 690.25390625 C-596.01499301 681.76252772 -595.85651725 673.24242361 -595.765625 664.71875 C-596.23758301 665.03513428 -596.70954102 665.35151855 -597.19580078 665.67749023 C-601.92382565 668.84459097 -606.66007087 671.99904698 -611.40185547 675.14550781 C-613.45710929 676.51341275 -615.50481952 677.89170582 -617.55078125 679.2734375 C-625.53830294 684.61200737 -633.78088852 689.26021981 -642.765625 692.71875 C-643.65942871 693.07251709 -644.55323242 693.42628418 -645.47412109 693.79077148 C-654.34038359 696.93634658 -662.55042706 697.30647541 -671.84033203 697.18530273 C-674.26274177 697.15628454 -676.68295815 697.16475227 -679.10546875 697.17773438 C-690.94869524 697.16156965 -701.81078834 695.89367845 -712.61010742 690.67675781 C-714.86326579 689.67535409 -717.06132131 689.028541 -719.44140625 688.390625 C-724.74262518 686.83491195 -729.42031867 684.59596948 -734.265625 681.96875 C-735.09731201 681.52337891 -735.92899902 681.07800781 -736.78588867 680.61914062 C-742.76859344 677.36895785 -748.31938118 673.80559751 -753.765625 669.71875 C-754.90503721 668.91309813 -756.04718251 668.11130359 -757.19140625 667.3125 C-765.7128364 661.35134553 -773.40120526 655.08316974 -780.765625 647.71875 C-781.92485529 646.71013896 -783.09203851 645.71061988 -784.265625 644.71875 C-789.54679784 640.23602662 -794.65699492 635.32399448 -798.765625 629.71875 C-798.765625 629.05875 -798.765625 628.39875 -798.765625 627.71875 C-799.33023438 627.50605469 -799.89484375 627.29335938 -800.4765625 627.07421875 C-812.12853237 620.1745028 -822.216918 599.72413424 -827.765625 587.71875 C-828.59369659 586.04946283 -829.42713573 584.38282871 -830.265625 582.71875 C-830.88050781 581.47931641 -830.88050781 581.47931641 -831.5078125 580.21484375 C-832.34645243 578.55058626 -833.20596969 576.89668639 -834.0859375 575.25390625 C-836.85322786 570.00931105 -838.65390295 564.99894956 -840.08203125 559.24609375 C-840.76467686 556.48438958 -840.76467686 556.48438958 -842.328125 553.09375 C-843.71872706 549.82885821 -844.52815215 546.88212334 -845.19921875 543.41796875 C-845.57982374 541.60418912 -846.0160826 539.80128861 -846.50415039 538.01342773 C-849.22435103 527.3902231 -849.2558351 516.95552993 -849.21166992 506.04589844 C-849.20323264 502.88408608 -849.23188801 499.72413174 -849.26367188 496.5625 C-849.3310347 477.2738389 -846.49482565 458.59387711 -841.515625 439.96875 C-841.21897949 438.84952148 -840.92233398 437.73029297 -840.61669922 436.57714844 C-832.63211012 407.4265329 -818.0643291 382.85869692 -793.953125 364.15625 C-793.343479 363.68227783 -792.73383301 363.20830566 -792.10571289 362.7199707 C-781.23826227 354.38601863 -769.19664588 347.72915123 -755.765625 344.71875 C-754.651875 344.22375 -753.538125 343.72875 -752.390625 343.21875 C-744.09194188 339.78481216 -735.71592275 339.41026311 -726.828125 339.41796875 C-725.70857422 339.41368362 -724.58902344 339.4093985 -723.43554688 339.40498352 C-721.07569043 339.39926896 -718.71581637 339.39871861 -716.35595703 339.40307617 C-712.80339296 339.40621661 -709.25167903 339.38280715 -705.69921875 339.35742188 C-686.91705956 339.30499286 -668.39591771 340.50480249 -651.015625 348.34375 C-647.75494195 349.8627638 -647.75494195 349.8627638 -643.98828125 350.40625 C-637.65798888 351.77361362 -631.88794474 354.52080624 -626.01138306 357.16717529 C-623.90902721 358.11360169 -621.8023097 359.04962058 -619.6940918 359.98291016 C-616.7932753 361.26726921 -613.89373902 362.55444601 -610.99511719 363.84375 C-604.70755276 366.63583668 -598.39784477 369.37523101 -592.078125 372.09375 C-590.94020508 372.58327148 -589.80228516 373.07279297 -588.62988281 373.57714844 C-580.521353 377.03613031 -572.3455486 380.27341417 -564.06958008 383.31005859 C-563.27704834 383.60219238 -562.4845166 383.89432617 -561.66796875 384.1953125 C-560.63917603 384.567771 -560.63917603 384.567771 -559.58959961 384.94775391 C-557.765625 385.71875 -557.765625 385.71875 -554.765625 387.71875 C-552.92496936 388.22864243 -551.06784615 388.68044805 -549.203125 389.09375 C-545.32544187 390.02031706 -541.68951747 391.04684791 -538.015625 392.59375 C-533.5342672 394.46219885 -529.00061136 396.07678868 -524.390625 397.59375 C-523.70000977 397.83335449 -523.00939453 398.07295898 -522.29785156 398.31982422 C-518.41315988 399.57142289 -518.41315988 399.57142289 -514.453125 399.046875 C-512.72058144 397.68329905 -511.46048979 396.35640813 -510.140625 394.59375 C-509.356875 393.645 -508.573125 392.69625 -507.765625 391.71875 C-507.105625 391.71875 -506.445625 391.71875 -505.765625 391.71875 C-505.49105469 390.69007813 -505.49105469 390.69007813 -505.2109375 389.640625 C-503.16111227 385.496654 -500.0702475 383.00358687 -496.640625 379.96875 C-491.55583359 375.36704695 -486.85092354 370.70677996 -482.40234375 365.4765625 C-480.16218893 363.0706683 -477.52720388 361.47611838 -474.765625 359.71875 C-473.84330078 358.55472656 -473.84330078 358.55472656 -472.90234375 357.3671875 C-470.73217229 354.67728577 -468.53395948 352.73400404 -465.828125 350.59375 C-460.98508864 346.71543613 -456.23443067 342.75005289 -451.53344727 338.70068359 C-447.41352588 335.18247459 -443.11978597 331.94025929 -438.765625 328.71875 C-437.28367139 327.6083168 -435.80190567 326.49763281 -434.3203125 325.38671875 C-425.0085271 318.44581617 -415.60912334 311.88052428 -405.765625 305.71875 C-401.19386887 302.74212374 -396.6981106 299.67525565 -392.25390625 296.51171875 C-386.53564632 292.50673626 -380.65222033 288.80692383 -374.703125 285.15625 C-373.58059326 284.46660156 -372.45806152 283.77695312 -371.30151367 283.06640625 C-359.64821066 275.94244011 -347.75360502 269.26202496 -335.765625 262.71875 C-335.0118457 262.30657227 -334.25806641 261.89439453 -333.48144531 261.46972656 C-324.65817523 256.66123334 -315.69946271 252.1343147 -306.69580078 247.67578125 C-303.67342351 246.17720816 -300.65729899 244.66627229 -297.640625 243.15625 C-296.50625 242.59292969 -295.371875 242.02960938 -294.203125 241.44921875 C-291.85338948 240.26634053 -289.52470139 239.06695275 -287.203125 237.83203125 C-279.21739447 233.62809662 -270.97025102 229.71875 -261.765625 229.71875 C-261.78481491 229.13089218 -261.80400482 228.54303436 -261.82377625 227.93736267 C-262.02401084 221.68962955 -262.19774916 215.44151881 -262.35766602 209.19262695 C-262.42019876 206.87603678 -262.48897641 204.55960481 -262.56469727 202.2434082 C-263.48198122 173.88148078 -260.75548101 147.03192484 -247.68945312 121.53271484 C-246.86088836 119.90580253 -246.06861329 118.26052813 -245.28125 116.61328125 C-243.14456003 112.14865438 -240.87823518 108.58593235 -237.765625 104.71875 C-236.66063779 102.98234153 -235.57758151 101.23180402 -234.515625 99.46875 C-229.81898008 91.99040122 -223.98335316 85.93647816 -217.765625 79.71875 C-216.72205364 78.4703397 -215.68059793 77.22015951 -214.640625 75.96875 C-210.96944466 71.70049857 -206.75916623 68.33185757 -202.31640625 64.89453125 C-199.73688262 62.69423314 -197.86728251 60.36758461 -195.765625 57.71875 C-194.14284993 56.252011 -192.47471429 54.83393718 -190.765625 53.46875 C-189.92 52.78296875 -189.074375 52.0971875 -188.203125 51.390625 C-185.765625 49.71875 -185.765625 49.71875 -183.578125 49.234375 C-182.6809375 48.97914062 -182.6809375 48.97914062 -181.765625 48.71875 C-181.07569204 47.39730582 -180.41165688 46.06220265 -179.765625 44.71875 C-177.734375 43.04296875 -177.734375 43.04296875 -175.265625 41.40625 C-174.35941406 40.7978125 -173.45320312 40.189375 -172.51953125 39.5625 C-171.61074219 38.9540625 -170.70195313 38.345625 -169.765625 37.71875 C-168.24389429 36.61582039 -166.72305794 35.51165577 -165.203125 34.40625 C-144.02571203 19.66122882 -119.31803271 7.13606787 -93.82421875 2.33203125 C-91.04398494 1.77456419 -88.45560296 1.04128327 -85.765625 0.15625 C-75.58170715 -2.98489349 -65.29594551 -3.51126973 -54.71875 -3.2956543 C-6.94601062 -2.39517607 -6.94601062 -2.39517607 0 0 Z " fill="#CDCDCE" transform="translate(874.765625,7.28125)"/>
<path d="M0 0 C2.47793746 0.79709876 4.92257229 1.26399212 7.484375 1.71875 C11.52498368 2.47558228 14.54890207 3.87601354 18.234375 5.71875 C20.06190649 6.16016915 21.89630704 6.57349264 23.734375 6.96875 C31.17566068 8.71800745 37.54777914 12.15366081 44.234375 15.71875 C45.60649449 16.4119811 46.98096039 17.10062204 48.359375 17.78125 C49.26042969 18.23564453 49.26042969 18.23564453 50.1796875 18.69921875 C51.81250476 19.50941895 53.45539324 20.2993159 55.1015625 21.08203125 C60.55275985 23.71247187 65.46029006 26.39283068 70.19140625 30.16796875 C72.53172482 31.94446296 74.97529434 33.44039416 77.484375 34.96875 C83.84428957 38.95596152 89.80052141 43.5314587 95.234375 48.71875 C95.234375 49.37875 95.234375 50.03875 95.234375 50.71875 C95.96785156 50.94949219 96.70132813 51.18023437 97.45703125 51.41796875 C100.76216188 52.96594132 102.33101165 54.74808449 104.671875 57.53125 C107.20105774 60.46510197 109.59273899 63.17661658 112.671875 65.53125 C115.42363202 67.88031087 115.98719231 69.42262432 117.234375 72.71875 C118.1625 73.1828125 118.1625 73.1828125 119.109375 73.65625 C122.3577241 75.28042455 123.46403301 77.59626848 125.234375 80.71875 C125.71539307 83.8699646 125.71539307 83.8699646 125.68847656 87.27490234 C125.68817444 88.55577728 125.68787231 89.83665222 125.68756104 91.15634155 C125.66713912 92.53912998 125.64627521 93.92191194 125.625 95.3046875 C125.61753174 96.7309998 125.61184157 98.15732242 125.60784912 99.58364868 C125.59263848 103.32229362 125.55339757 107.06030857 125.5090332 110.79870605 C125.46798085 114.61962362 125.44981696 118.44064382 125.4296875 122.26171875 C125.3868976 129.74768181 125.31870335 137.23312735 125.234375 144.71875 C122.60504603 142.08942103 121.61975285 139.03859054 120.234375 135.65625 C112.36168429 117.15047876 101.04186063 101.26954236 87.234375 86.71875 C86.33074219 85.76226562 85.42710937 84.80578125 84.49609375 83.8203125 C77.30832745 76.34991516 69.60244614 69.82931368 61.234375 63.71875 C60.38697754 63.09685791 60.38697754 63.09685791 59.52246094 62.46240234 C36.53185387 45.82290102 9.41601796 33.80727851 -18.765625 29.71875 C-19.83433838 29.54891602 -20.90305176 29.37908203 -22.00415039 29.20410156 C-66.65020036 23.44332092 -113.76471586 37.07282163 -149.765625 63.71875 C-151.32216797 64.86923828 -151.32216797 64.86923828 -152.91015625 66.04296875 C-181.74895575 87.68496587 -211.86960147 114.10872857 -223.578125 149.21875 C-223.8563208 150.02908691 -224.1345166 150.83942383 -224.42114258 151.67431641 C-229.89862649 169.27634359 -230.21457171 187.83630058 -230.046875 206.10083008 C-230.01524296 209.57318756 -230.00583652 213.04508956 -230 216.51757812 C-229.99084405 218.75781801 -229.98047282 220.99805333 -229.96875 223.23828125 C-229.96450012 224.26025101 -229.96025024 225.28222076 -229.95587158 226.3351593 C-229.90408014 231.56085591 -229.65593127 236.66940848 -228.98677063 241.85415649 C-228.69230999 244.33690692 -228.66794357 246.78336879 -228.703125 249.28125 C-228.71214844 250.12816406 -228.72117187 250.97507812 -228.73046875 251.84765625 C-228.74787109 252.77384766 -228.74787109 252.77384766 -228.765625 253.71875 C-233.63180384 256.77731228 -237.37576052 258.29449191 -243.140625 259.15625 C-318.3399395 272.1003943 -406.59493533 334.77937671 -458.9921875 388.9453125 C-460.75869139 390.71181639 -462.60028042 392.30361474 -464.515625 393.90625 C-477.90655165 405.51869421 -496.84596524 424.65536048 -499.765625 442.71875 C-501.745625 442.71875 -503.725625 442.71875 -505.765625 442.71875 C-505.8275 443.894375 -505.889375 445.07 -505.953125 446.28125 C-506.55228307 451.03232031 -508.3873437 454.3404687 -511.765625 457.71875 C-514.578125 459.15625 -514.578125 459.15625 -516.765625 459.71875 C-516.765625 460.37875 -516.765625 461.03875 -516.765625 461.71875 C-524.49156187 463.26393737 -530.81496286 463.76277161 -537.765625 459.71875 C-543.58739454 454.83597555 -545.79404476 449.35284462 -548.23828125 442.31640625 C-550.63937806 436.66062579 -554.13491159 431.84291401 -557.65625 426.8359375 C-559.765625 423.71875 -559.765625 423.71875 -560.765625 420.71875 C-562.76124957 419.66885008 -562.76124957 419.66885008 -565.27734375 418.9140625 C-566.24696045 418.5850293 -567.21657715 418.25599609 -568.21557617 417.91699219 C-569.28396729 417.56282227 -570.3523584 417.20865234 -571.453125 416.84375 C-581.30042716 413.44002563 -590.91680951 409.65666728 -600.453125 405.46875 C-601.07611481 405.19610321 -601.69910461 404.92345642 -602.3409729 404.64254761 C-608.11458103 402.11421252 -613.87698072 399.56084193 -619.63427734 396.99560547 C-642.74071197 386.70668254 -665.558147 377.35267475 -690.765625 373.71875 C-691.47235352 373.6163501 -692.17908203 373.5139502 -692.90722656 373.40844727 C-699.4750764 372.56696946 -706.02670899 372.53507307 -712.640625 372.53125 C-713.74792969 372.51900391 -714.85523438 372.50675781 -715.99609375 372.49414062 C-723.15016554 372.48153063 -729.78372023 373.18049451 -736.765625 374.71875 C-738.66054688 375.10933594 -738.66054688 375.10933594 -740.59375 375.5078125 C-762.43680989 380.84390247 -781.79542721 395.18230875 -794.15234375 414.02734375 C-801.19114259 425.77003721 -805.23157473 437.57576155 -808.765625 450.71875 C-809.06944092 451.83878418 -809.06944092 451.83878418 -809.37939453 452.98144531 C-810.60309601 457.53903509 -811.78726282 462.10152915 -812.765625 466.71875 C-812.94367676 467.50878418 -813.12172852 468.29881836 -813.30517578 469.11279297 C-815.14046042 478.36466129 -815.13785312 487.61170445 -815.13623047 497.00683594 C-815.14058462 499.81768302 -815.17695618 502.62693108 -815.21484375 505.4375 C-815.28642073 517.38141698 -813.90037663 528.1938756 -810.765625 539.71875 C-810.435625 539.71875 -810.105625 539.71875 -809.765625 539.71875 C-809.59546875 538.90792969 -809.4253125 538.09710937 -809.25 537.26171875 C-806.58954846 525.1057194 -803.04407412 513.99104396 -795.765625 503.71875 C-795.105625 503.71875 -794.445625 503.71875 -793.765625 503.71875 C-793.5284375 502.98398437 -793.29125 502.24921875 -793.046875 501.4921875 C-787.2214972 488.8823758 -769.16963355 480.52971545 -756.765625 475.71875 C-729.85200736 466.03973451 -701.91291549 463.17272492 -674.140625 471.03125 C-673.4717627 471.21969482 -672.80290039 471.40813965 -672.11376953 471.60229492 C-666.07359419 473.41757208 -660.4613289 476.03230884 -654.765625 478.71875 C-653.85039063 479.14389893 -652.93515625 479.56904785 -651.9921875 480.00708008 C-637.98156353 486.53195018 -624.47598724 493.56032398 -611.18359375 501.4296875 C-610.41515137 501.88400146 -609.64670898 502.33831543 -608.85498047 502.80639648 C-607.3786807 503.68163361 -605.90487842 504.56110256 -604.43408203 505.44555664 C-600.94602814 507.52534559 -597.58183056 509.28857127 -593.765625 510.71875 C-593.435625 511.04875 -593.105625 511.37875 -592.765625 511.71875 C-592.77152323 513.61503198 -592.82069875 515.51124856 -592.890625 517.40625 C-592.90800134 522.28320892 -592.91019543 525.76267752 -589.765625 529.71875 C-585.13940709 532.40195639 -581.08335206 533.10426575 -575.78125 533.41015625 C-573.765625 533.71875 -573.765625 533.71875 -570.765625 535.71875 C-570.47265625 538.5390625 -570.47265625 538.5390625 -570.578125 541.84375 C-570.60519531 542.93945312 -570.63226562 544.03515625 -570.66015625 545.1640625 C-570.71236328 546.42863281 -570.71236328 546.42863281 -570.765625 547.71875 C-570.07855469 548.04488281 -569.39148438 548.37101563 -568.68359375 548.70703125 C-567.78253906 549.14402344 -566.88148438 549.58101562 -565.953125 550.03125 C-565.05980469 550.46050781 -564.16648437 550.88976562 -563.24609375 551.33203125 C-560.95731 552.61158752 -559.40453688 553.68780605 -557.765625 555.71875 C-557.765625 556.37875 -557.765625 557.03875 -557.765625 557.71875 C-556.445625 558.04875 -555.125625 558.37875 -553.765625 558.71875 C-553.078125 561.03125 -553.078125 561.03125 -552.765625 563.71875 C-554.078125 565.15625 -554.078125 565.15625 -555.765625 566.71875 C-557.62234751 571.3806373 -558.38423896 576.0721096 -559.01953125 581.01953125 C-559.12530991 581.81417282 -559.23108856 582.60881439 -559.34007263 583.42753601 C-559.56224603 585.10893957 -559.78143066 586.79074044 -559.99780273 588.47290039 C-560.3223408 590.98645134 -560.65944484 593.49807558 -560.99804688 596.00976562 C-563.40683504 614.19909651 -563.95222035 632.14944598 -563.95092773 650.49169922 C-563.95311253 653.94901892 -563.97133552 657.40601766 -563.99023438 660.86328125 C-564.17530523 732.72049054 -540.13100956 804.87415361 -508.26513672 868.64355469 C-506.92288616 871.39623915 -505.66880719 874.16462792 -504.45703125 876.9765625 C-501.71076898 883.94935164 -501.71076898 883.94935164 -496.5546875 889.01953125 C-494.12965696 889.70035864 -494.12965696 889.70035864 -491.55859375 890.078125 C-478.83348381 892.99689148 -466.15735288 906.1445035 -456.09472656 913.92431641 C-453.25467174 916.11240896 -450.39041211 918.26401883 -447.515625 920.40625 C-440.56958211 925.59844183 -433.68940623 930.87631385 -426.80810547 936.15380859 C-424.93261866 937.59080004 -423.05468176 939.02450812 -421.17578125 940.45703125 C-390.41863399 963.94046811 -390.41863399 963.94046811 -383.8203125 982.1015625 C-382.3552317 985.73713338 -380.51855611 989.21288778 -378.765625 992.71875 C-464.565625 992.71875 -550.365625 992.71875 -638.765625 992.71875 C-646.2555847 966.50389106 -644.15499265 930.17568355 -631.765625 905.71875 C-627.72302638 899.69107608 -623.30972308 894.07060511 -616.765625 890.71875 C-616.105625 890.71875 -615.445625 890.71875 -614.765625 890.71875 C-614.53875 889.8525 -614.311875 888.98625 -614.078125 888.09375 C-610.09184789 877.84332313 -598.00182942 868.83685221 -588.390625 864.03125 C-586.59625 863.3815625 -586.59625 863.3815625 -584.765625 862.71875 C-583.67507813 862.31849609 -583.67507813 862.31849609 -582.5625 861.91015625 C-577.69772028 860.2702547 -573.27289447 859.53667545 -568.140625 859.28125 C-562.30799869 858.96485753 -558.79059014 857.60345221 -553.765625 854.71875 C-552.775625 854.71875 -551.785625 854.71875 -550.765625 854.71875 C-551.11343018 853.8215625 -551.46123535 852.924375 -551.81958008 852 C-553.12275395 848.63802828 -554.425351 845.27583332 -555.7277832 841.91357422 C-556.28915184 840.46462101 -556.85067221 839.01572657 -557.41235352 837.56689453 C-558.22453077 835.47183817 -559.03614313 833.37656369 -559.84765625 831.28125 C-560.09465775 830.64445313 -560.34165924 830.00765625 -560.59614563 829.3515625 C-565.90565739 815.6357415 -565.90565739 815.6357415 -567.078125 810.15625 C-568.21051848 805.41916942 -569.76188066 801.0863995 -571.640625 796.59375 C-574.85242658 788.89475591 -577.06884439 781.05430055 -579.16552734 772.98974609 C-579.73208118 770.84569246 -580.33037814 768.71377271 -580.94140625 766.58203125 C-587.62813881 742.87029137 -592.20127465 718.20856922 -594.765625 693.71875 C-594.89582031 692.57535156 -595.02601563 691.43195312 -595.16015625 690.25390625 C-596.01499301 681.76252772 -595.85651725 673.24242361 -595.765625 664.71875 C-596.23758301 665.03513428 -596.70954102 665.35151855 -597.19580078 665.67749023 C-601.92382565 668.84459097 -606.66007087 671.99904698 -611.40185547 675.14550781 C-613.45710929 676.51341275 -615.50481952 677.89170582 -617.55078125 679.2734375 C-625.53830294 684.61200737 -633.78088852 689.26021981 -642.765625 692.71875 C-643.65942871 693.07251709 -644.55323242 693.42628418 -645.47412109 693.79077148 C-654.34038359 696.93634658 -662.55042706 697.30647541 -671.84033203 697.18530273 C-674.26274177 697.15628454 -676.68295815 697.16475227 -679.10546875 697.17773438 C-690.94869524 697.16156965 -701.81078834 695.89367845 -712.61010742 690.67675781 C-714.86326579 689.67535409 -717.06132131 689.028541 -719.44140625 688.390625 C-724.74262518 686.83491195 -729.42031867 684.59596948 -734.265625 681.96875 C-735.09731201 681.52337891 -735.92899902 681.07800781 -736.78588867 680.61914062 C-742.76859344 677.36895785 -748.31938118 673.80559751 -753.765625 669.71875 C-754.90503721 668.91309813 -756.04718251 668.11130359 -757.19140625 667.3125 C-765.7128364 661.35134553 -773.40120526 655.08316974 -780.765625 647.71875 C-781.92485529 646.71013896 -783.09203851 645.71061988 -784.265625 644.71875 C-789.54679784 640.23602662 -794.65699492 635.32399448 -798.765625 629.71875 C-798.765625 629.05875 -798.765625 628.39875 -798.765625 627.71875 C-799.33023438 627.50605469 -799.89484375 627.29335938 -800.4765625 627.07421875 C-812.12853237 620.1745028 -822.216918 599.72413424 -827.765625 587.71875 C-828.59369659 586.04946283 -829.42713573 584.38282871 -830.265625 582.71875 C-830.88050781 581.47931641 -830.88050781 581.47931641 -831.5078125 580.21484375 C-832.34645243 578.55058626 -833.20596969 576.89668639 -834.0859375 575.25390625 C-836.85322786 570.00931105 -838.65390295 564.99894956 -840.08203125 559.24609375 C-840.76467686 556.48438958 -840.76467686 556.48438958 -842.328125 553.09375 C-843.71872706 549.82885821 -844.52815215 546.88212334 -845.19921875 543.41796875 C-845.57982374 541.60418912 -846.0160826 539.80128861 -846.50415039 538.01342773 C-849.22435103 527.3902231 -849.2558351 516.95552993 -849.21166992 506.04589844 C-849.20323264 502.88408608 -849.23188801 499.72413174 -849.26367188 496.5625 C-849.3310347 477.2738389 -846.49482565 458.59387711 -841.515625 439.96875 C-841.21897949 438.84952148 -840.92233398 437.73029297 -840.61669922 436.57714844 C-832.63211012 407.4265329 -818.0643291 382.85869692 -793.953125 364.15625 C-793.343479 363.68227783 -792.73383301 363.20830566 -792.10571289 362.7199707 C-781.23826227 354.38601863 -769.19664588 347.72915123 -755.765625 344.71875 C-754.651875 344.22375 -753.538125 343.72875 -752.390625 343.21875 C-744.09194188 339.78481216 -735.71592275 339.41026311 -726.828125 339.41796875 C-725.70857422 339.41368362 -724.58902344 339.4093985 -723.43554688 339.40498352 C-721.07569043 339.39926896 -718.71581637 339.39871861 -716.35595703 339.40307617 C-712.80339296 339.40621661 -709.25167903 339.38280715 -705.69921875 339.35742188 C-686.91705956 339.30499286 -668.39591771 340.50480249 -651.015625 348.34375 C-647.75494195 349.8627638 -647.75494195 349.8627638 -643.98828125 350.40625 C-637.65798888 351.77361362 -631.88794474 354.52080624 -626.01138306 357.16717529 C-623.90902721 358.11360169 -621.8023097 359.04962058 -619.6940918 359.98291016 C-616.7932753 361.26726921 -613.89373902 362.55444601 -610.99511719 363.84375 C-604.70755276 366.63583668 -598.39784477 369.37523101 -592.078125 372.09375 C-590.94020508 372.58327148 -589.80228516 373.07279297 -588.62988281 373.57714844 C-580.521353 377.03613031 -572.3455486 380.27341417 -564.06958008 383.31005859 C-563.27704834 383.60219238 -562.4845166 383.89432617 -561.66796875 384.1953125 C-560.63917603 384.567771 -560.63917603 384.567771 -559.58959961 384.94775391 C-557.765625 385.71875 -557.765625 385.71875 -554.765625 387.71875 C-552.92496936 388.22864243 -551.06784615 388.68044805 -549.203125 389.09375 C-545.32544187 390.02031706 -541.68951747 391.04684791 -538.015625 392.59375 C-533.5342672 394.46219885 -529.00061136 396.07678868 -524.390625 397.59375 C-523.70000977 397.83335449 -523.00939453 398.07295898 -522.29785156 398.31982422 C-518.41315988 399.57142289 -518.41315988 399.57142289 -514.453125 399.046875 C-512.72058144 397.68329905 -511.46048979 396.35640813 -510.140625 394.59375 C-509.356875 393.645 -508.573125 392.69625 -507.765625 391.71875 C-507.105625 391.71875 -506.445625 391.71875 -505.765625 391.71875 C-505.49105469 390.69007813 -505.49105469 390.69007813 -505.2109375 389.640625 C-503.16111227 385.496654 -500.0702475 383.00358687 -496.640625 379.96875 C-491.55583359 375.36704695 -486.85092354 370.70677996 -482.40234375 365.4765625 C-480.16218893 363.0706683 -477.52720388 361.47611838 -474.765625 359.71875 C-473.84330078 358.55472656 -473.84330078 358.55472656 -472.90234375 357.3671875 C-470.73217229 354.67728577 -468.53395948 352.73400404 -465.828125 350.59375 C-460.98508864 346.71543613 -456.23443067 342.75005289 -451.53344727 338.70068359 C-447.41352588 335.18247459 -443.11978597 331.94025929 -438.765625 328.71875 C-437.28367139 327.6083168 -435.80190567 326.49763281 -434.3203125 325.38671875 C-425.0085271 318.44581617 -415.60912334 311.88052428 -405.765625 305.71875 C-401.19386887 302.74212374 -396.6981106 299.67525565 -392.25390625 296.51171875 C-386.53564632 292.50673626 -380.65222033 288.80692383 -374.703125 285.15625 C-373.58059326 284.46660156 -372.45806152 283.77695312 -371.30151367 283.06640625 C-359.64821066 275.94244011 -347.75360502 269.26202496 -335.765625 262.71875 C-335.0118457 262.30657227 -334.25806641 261.89439453 -333.48144531 261.46972656 C-324.65817523 256.66123334 -315.69946271 252.1343147 -306.69580078 247.67578125 C-303.67342351 246.17720816 -300.65729899 244.66627229 -297.640625 243.15625 C-296.50625 242.59292969 -295.371875 242.02960938 -294.203125 241.44921875 C-291.85338948 240.26634053 -289.52470139 239.06695275 -287.203125 237.83203125 C-279.21739447 233.62809662 -270.97025102 229.71875 -261.765625 229.71875 C-261.78481491 229.13089218 -261.80400482 228.54303436 -261.82377625 227.93736267 C-262.02401084 221.68962955 -262.19774916 215.44151881 -262.35766602 209.19262695 C-262.42019876 206.87603678 -262.48897641 204.55960481 -262.56469727 202.2434082 C-263.48198122 173.88148078 -260.75548101 147.03192484 -247.68945312 121.53271484 C-246.86088836 119.90580253 -246.06861329 118.26052813 -245.28125 116.61328125 C-243.14456003 112.14865438 -240.87823518 108.58593235 -237.765625 104.71875 C-236.66063779 102.98234153 -235.57758151 101.23180402 -234.515625 99.46875 C-229.81898008 91.99040122 -223.98335316 85.93647816 -217.765625 79.71875 C-216.72205364 78.4703397 -215.68059793 77.22015951 -214.640625 75.96875 C-210.96944466 71.70049857 -206.75916623 68.33185757 -202.31640625 64.89453125 C-199.73688262 62.69423314 -197.86728251 60.36758461 -195.765625 57.71875 C-194.14284993 56.252011 -192.47471429 54.83393718 -190.765625 53.46875 C-189.92 52.78296875 -189.074375 52.0971875 -188.203125 51.390625 C-185.765625 49.71875 -185.765625 49.71875 -183.578125 49.234375 C-182.6809375 48.97914062 -182.6809375 48.97914062 -181.765625 48.71875 C-181.07569204 47.39730582 -180.41165688 46.06220265 -179.765625 44.71875 C-177.734375 43.04296875 -177.734375 43.04296875 -175.265625 41.40625 C-174.35941406 40.7978125 -173.45320312 40.189375 -172.51953125 39.5625 C-171.61074219 38.9540625 -170.70195313 38.345625 -169.765625 37.71875 C-168.24389429 36.61582039 -166.72305794 35.51165577 -165.203125 34.40625 C-144.02571203 19.66122882 -119.31803271 7.13606787 -93.82421875 2.33203125 C-91.04398494 1.77456419 -88.45560296 1.04128327 -85.765625 0.15625 C-75.58170715 -2.98489349 -65.29594551 -3.51126973 -54.71875 -3.2956543 C-6.94601062 -2.39517607 -6.94601062 -2.39517607 0 0 Z " fill="#6B4349" transform="translate(874.765625,7.28125)"/>
<path d="M0 0 C3.25814753 0.02355521 6.51547056 0.02054788 9.77368164 0.01391602 C20.07462727 0.02859196 30.06169755 0.39484293 40.25488281 1.875 C46.20424916 2.61490079 52.14622197 2.6611679 58.13467407 2.74264526 C91.43261232 3.23986292 91.43261232 3.23986292 100.96313477 8.33618164 C101.12666815 32.07540189 101.25010177 55.8145377 101.32581997 79.5542078 C101.36191205 90.5770202 101.41111697 101.59948258 101.49121094 112.62207031 C101.56098902 122.22955971 101.60614422 131.83679563 101.62175423 141.44453138 C101.63087894 146.53174592 101.65231719 151.61823529 101.70324516 156.70521736 C101.75080601 161.49473587 101.7654062 166.28323149 101.75488853 171.07296371 C101.75681223 172.82938003 101.77070962 174.585831 101.79757309 176.34204292 C101.99083972 189.63022957 101.99083972 189.63022957 99.44362068 193.8585186 C97.70820026 195.60141732 95.97228182 196.93166346 93.96313477 198.33618164 C93.0550022 199.39189531 92.1777674 200.47521217 91.33813477 201.58618164 C88.98620859 204.30946458 87.00438083 205.511434 83.96313477 207.33618164 C82.15655936 209.25164652 80.58296487 211.25354293 78.96313477 213.33618164 C79.61903215 215.31882959 79.61903215 215.31882959 80.96313477 217.33618164 C82.09235352 217.77317383 82.09235352 217.77317383 83.24438477 218.21899414 C86.34423912 219.49278487 88.2938586 221.09723266 90.77563477 223.33618164 C91.56583008 224.03743164 92.35602539 224.73868164 93.17016602 225.46118164 C94.96313477 227.33618164 94.96313477 227.33618164 94.96313477 229.33618164 C97.93313477 230.32618164 97.93313477 230.32618164 100.96313477 231.33618164 C100.96313477 252.12618164 100.96313477 272.91618164 100.96313477 294.33618164 C96.59562222 292.88034413 93.45213013 291.64411624 89.56860352 289.42993164 C74.77846564 281.14787266 59.93609558 274.09351019 43.96313477 268.33618164 C42.8286792 267.90845459 41.69422363 267.48072754 40.52539062 267.04003906 C30.74647823 263.52160732 21.19717667 261.96712228 10.90063477 260.77368164 C-14.16018762 257.81776277 -14.16018762 257.81776277 -23.23046875 253.22558594 C-25.95354329 251.88484252 -28.5245156 252.12688907 -31.53686523 252.08618164 C-41.55662675 251.48145098 -49.80126905 247.60430243 -56.56811523 240.14086914 C-63.03686523 232.19256462 -63.03686523 232.19256462 -63.03686523 229.33618164 C-63.90827148 229.37098633 -64.77967773 229.40579102 -65.67749023 229.44165039 C-81.80201674 229.8081169 -98.44398576 225.15008579 -111.03686523 214.58618164 C-120.60608537 205.10986655 -128.05449166 195.15787323 -128.39990234 181.46606445 C-128.45015615 170.68098269 -127.39101648 160.024304 -126.03686523 149.33618164 C-126.80772461 149.35938477 -127.57858398 149.38258789 -128.37280273 149.40649414 C-129.37569336 149.42454102 -130.37858398 149.44258789 -131.41186523 149.46118164 C-132.40959961 149.48438477 -133.40733398 149.50758789 -134.43530273 149.53149414 C-137.03686523 149.33618164 -137.03686523 149.33618164 -139.03686523 147.33618164 C-140.26965529 134.13883971 -138.64007038 122.67342825 -134.03686523 110.33618164 C-133.61872559 109.17699219 -133.61872559 109.17699219 -133.19213867 107.99438477 C-126.32252526 89.1124573 -117.41775727 71.2080793 -105.03686523 55.33618164 C-104.33303711 54.41063477 -103.62920898 53.48508789 -102.90405273 52.53149414 C-85.2206366 30.01939611 -61.7022239 11.60871108 -34.03686523 3.33618164 C-33.2030835 3.06620361 -32.36930176 2.79622559 -31.51025391 2.51806641 C-21.13979893 -0.39488605 -10.69163585 -0.08253305 0 0 Z " fill="#9B7A69" transform="translate(899.036865234375,149.663818359375)"/>
<path d="M0 0 C2.47793746 0.79709876 4.92257229 1.26399212 7.484375 1.71875 C11.52498368 2.47558228 14.54890207 3.87601354 18.234375 5.71875 C20.06190649 6.16016915 21.89630704 6.57349264 23.734375 6.96875 C31.17566068 8.71800745 37.54777914 12.15366081 44.234375 15.71875 C45.60649449 16.4119811 46.98096039 17.10062204 48.359375 17.78125 C49.26042969 18.23564453 49.26042969 18.23564453 50.1796875 18.69921875 C51.81250476 19.50941895 53.45539324 20.2993159 55.1015625 21.08203125 C60.55275985 23.71247187 65.46029006 26.39283068 70.19140625 30.16796875 C72.53172482 31.94446296 74.97529434 33.44039416 77.484375 34.96875 C83.84428957 38.95596152 89.80052141 43.5314587 95.234375 48.71875 C95.234375 49.37875 95.234375 50.03875 95.234375 50.71875 C95.96785156 50.94949219 96.70132813 51.18023437 97.45703125 51.41796875 C100.76216188 52.96594132 102.33101165 54.74808449 104.671875 57.53125 C107.20105774 60.46510197 109.59273899 63.17661658 112.671875 65.53125 C115.42363202 67.88031087 115.98719231 69.42262432 117.234375 72.71875 C118.1625 73.1828125 118.1625 73.1828125 119.109375 73.65625 C122.29094093 75.24703296 123.86751519 77.52323735 125.234375 80.71875 C125.77233353 84.34879488 125.70083975 87.92309942 125.625 91.5859375 C125.61651031 93.13802414 125.61651031 93.13802414 125.60784912 94.72146606 C125.58553352 98.01270629 125.53534466 101.30284114 125.484375 104.59375 C125.46430384 106.8307134 125.44605415 109.06769393 125.4296875 111.3046875 C125.38568465 116.77641614 125.31882051 122.24750408 125.234375 127.71875 C122.95809224 124.77358598 121.13496596 121.77887317 119.3815918 118.49145508 C111.37243254 103.55652722 100.97301636 90.86101227 89.234375 78.71875 C88.56148437 77.99429688 87.88859375 77.26984375 87.1953125 76.5234375 C81.16429931 70.18445768 74.20438936 64.97033361 67.234375 59.71875 C66.65880859 59.28240234 66.08324219 58.84605469 65.49023438 58.39648438 C48.6155072 45.68740414 30.19710978 36.56680789 10.234375 29.71875 C9.56148437 29.46609375 8.88859375 29.2134375 8.1953125 28.953125 C0.12987328 26.02589995 -8.38239594 24.46673406 -16.765625 22.71875 C-17.51811523 22.54005371 -18.27060547 22.36135742 -19.04589844 22.17724609 C-22.49805582 21.59527558 -25.90007827 21.53772811 -29.390625 21.515625 C-30.12586899 21.50856537 -30.86111298 21.50150574 -31.61863708 21.49423218 C-96.03312982 21.01731055 -146.14038374 46.74166771 -192.36865234 90.40087891 C-193.5635025 91.5280724 -194.76720167 92.64587318 -195.97265625 93.76171875 C-202.2961249 99.80185479 -207.51171731 106.75536803 -212.765625 113.71875 C-213.41789063 114.57597656 -214.07015625 115.43320313 -214.7421875 116.31640625 C-234.60979889 143.48695242 -238.16308639 175.62265788 -238.02636719 208.35375977 C-238.01559852 211.41377391 -238.02636035 214.47320602 -238.0390625 217.53320312 C-238.04585077 228.75930205 -237.54036099 239.62260739 -235.765625 250.71875 C-236.51956543 250.82832031 -237.27350586 250.93789063 -238.05029297 251.05078125 C-252.71072325 253.24683292 -266.20999265 255.61110689 -279.41015625 262.49853516 C-282.05985401 263.87117087 -284.73739612 265.17720622 -287.421875 266.48046875 C-322.75179548 283.73048986 -357.39284125 303.38276324 -389.765625 325.71875 C-390.45446777 326.19038574 -391.14331055 326.66202148 -391.85302734 327.14794922 C-409.02651112 338.92436078 -425.86210731 351.26192734 -441.765625 364.71875 C-442.29140137 365.16105957 -442.81717773 365.60336914 -443.35888672 366.05908203 C-477.07938061 394.37849756 -477.07938061 394.37849756 -502.765625 429.71875 C-511.8888913 429.42445109 -519.7828678 426.58368006 -528.30029297 423.57763672 C-531.03061017 422.62643293 -533.77147173 421.7112858 -536.515625 420.80078125 C-542.98924973 418.65060937 -549.44249192 416.44407743 -555.890625 414.21875 C-556.99277344 413.84105469 -558.09492187 413.46335937 -559.23046875 413.07421875 C-565.82279668 410.7985753 -572.30856866 408.3508735 -578.765625 405.71875 C-580.1734705 405.16669162 -581.58230782 404.61715498 -582.9921875 404.0703125 C-593.5965423 399.92167844 -604.03747543 395.4407606 -614.453125 390.84375 C-624.41782826 386.44936135 -634.40414677 382.14329676 -644.515625 378.09375 C-645.48330811 377.70461426 -646.45099121 377.31547852 -647.44799805 376.91455078 C-657.07241 373.1023545 -666.7578796 369.70255259 -676.890625 367.53125 C-677.61121094 367.36689453 -678.33179688 367.20253906 -679.07421875 367.03320312 C-689.38957511 364.77042069 -699.70027852 364.5062328 -710.22241211 364.47851562 C-712.43186595 364.46884307 -714.64037367 364.43773671 -716.84960938 364.40625 C-743.63504293 364.20520837 -766.07510345 373.81470648 -785.765625 391.71875 C-787.00505859 392.8325 -787.00505859 392.8325 -788.26953125 393.96875 C-810.08424626 414.60736733 -816.84312375 444.20078822 -821.765625 472.71875 C-821.89839844 473.45222656 -822.03117188 474.18570312 -822.16796875 474.94140625 C-829.5431997 516.62389128 -818.04824504 559.85593741 -794.015625 594.28125 C-780.76242796 612.79070792 -765.09587938 629.20323552 -746.765625 642.71875 C-746.20020996 643.14494629 -745.63479492 643.57114258 -745.05224609 644.01025391 C-721.18320857 661.99880999 -694.26896628 674.57943597 -663.765625 671.71875 C-659.11715055 670.92498702 -655.08179149 669.60139016 -650.765625 667.71875 C-650.16508301 667.4609375 -649.56454102 667.203125 -648.94580078 666.9375 C-638.25884308 662.25636872 -629.03768292 655.92448164 -619.64013672 649.07714844 C-611.41402141 643.11594688 -603.38159081 639.01418139 -593.765625 635.71875 C-592.63125 635.285625 -591.496875 634.8525 -590.328125 634.40625 C-584.60392648 633.30158011 -576.12000035 632.04156232 -570.765625 634.71875 C-570.76197937 635.27044861 -570.75833374 635.82214722 -570.75457764 636.39056396 C-570.71840066 672.56736849 -570.71840066 672.56736849 -566.38232422 708.40722656 C-565.71299255 712.00137335 -565.11490091 715.60383281 -564.51953125 719.2109375 C-558.85389992 752.47640508 -550.22373878 786.77002904 -536.98657227 817.84936523 C-535.85563719 820.50720966 -534.76645347 823.17698054 -533.6953125 825.859375 C-526.54137173 843.68717521 -518.76814972 861.25253145 -509.91015625 878.3046875 C-508.765625 880.71875 -508.765625 880.71875 -508.765625 882.71875 C-514.765625 880.71875 -514.765625 880.71875 -516.72851562 879.96191406 C-522.52328573 877.81344064 -527.67437174 877.22945866 -533.828125 877.28125 C-534.67439453 877.26126953 -535.52066406 877.24128906 -536.39257812 877.22070312 C-542.25806405 877.22522547 -546.90903844 878.29927623 -551.765625 881.71875 C-552.095625 882.37875 -552.425625 883.03875 -552.765625 883.71875 C-555.03023465 883.92815908 -557.30464258 884.0338609 -559.578125 884.09375 C-570.86243658 884.6636783 -579.29560651 887.23010845 -587.57421875 895.26953125 C-590.24269084 898.25194123 -592.45376859 901.34556828 -594.51171875 904.7734375 C-597.1203831 908.82052424 -600.6814888 911.10400065 -604.6328125 913.73046875 C-609.90772411 918.64792298 -612.64105335 924.81589946 -614.078125 931.78125 C-614.24199707 932.57144531 -614.40586914 933.36164062 -614.57470703 934.17578125 C-617.98707555 953.19110696 -616.28007941 973.70318854 -613.765625 992.71875 C-622.015625 992.71875 -630.265625 992.71875 -638.765625 992.71875 C-646.2555847 966.50389106 -644.15499265 930.17568355 -631.765625 905.71875 C-627.72302638 899.69107608 -623.30972308 894.07060511 -616.765625 890.71875 C-616.105625 890.71875 -615.445625 890.71875 -614.765625 890.71875 C-614.53875 889.8525 -614.311875 888.98625 -614.078125 888.09375 C-610.09184789 877.84332313 -598.00182942 868.83685221 -588.390625 864.03125 C-586.59625 863.3815625 -586.59625 863.3815625 -584.765625 862.71875 C-583.67507813 862.31849609 -583.67507813 862.31849609 -582.5625 861.91015625 C-577.69772028 860.2702547 -573.27289447 859.53667545 -568.140625 859.28125 C-562.30799869 858.96485753 -558.79059014 857.60345221 -553.765625 854.71875 C-552.775625 854.71875 -551.785625 854.71875 -550.765625 854.71875 C-551.11343018 853.8215625 -551.46123535 852.924375 -551.81958008 852 C-553.12275395 848.63802828 -554.425351 845.27583332 -555.7277832 841.91357422 C-556.28915184 840.46462101 -556.85067221 839.01572657 -557.41235352 837.56689453 C-558.22453077 835.47183817 -559.03614313 833.37656369 -559.84765625 831.28125 C-560.09465775 830.64445313 -560.34165924 830.00765625 -560.59614563 829.3515625 C-565.90565739 815.6357415 -565.90565739 815.6357415 -567.078125 810.15625 C-568.21051848 805.41916942 -569.76188066 801.0863995 -571.640625 796.59375 C-574.85242658 788.89475591 -577.06884439 781.05430055 -579.16552734 772.98974609 C-579.73208118 770.84569246 -580.33037814 768.71377271 -580.94140625 766.58203125 C-587.62813881 742.87029137 -592.20127465 718.20856922 -594.765625 693.71875 C-594.89582031 692.57535156 -595.02601563 691.43195312 -595.16015625 690.25390625 C-596.01499301 681.76252772 -595.85651725 673.24242361 -595.765625 664.71875 C-596.23758301 665.03513428 -596.70954102 665.35151855 -597.19580078 665.67749023 C-601.92382565 668.84459097 -606.66007087 671.99904698 -611.40185547 675.14550781 C-613.45710929 676.51341275 -615.50481952 677.89170582 -617.55078125 679.2734375 C-625.53830294 684.61200737 -633.78088852 689.26021981 -642.765625 692.71875 C-643.65942871 693.07251709 -644.55323242 693.42628418 -645.47412109 693.79077148 C-654.34038359 696.93634658 -662.55042706 697.30647541 -671.84033203 697.18530273 C-674.26274177 697.15628454 -676.68295815 697.16475227 -679.10546875 697.17773438 C-690.94869524 697.16156965 -701.81078834 695.89367845 -712.61010742 690.67675781 C-714.86326579 689.67535409 -717.06132131 689.028541 -719.44140625 688.390625 C-724.74262518 686.83491195 -729.42031867 684.59596948 -734.265625 681.96875 C-735.09731201 681.52337891 -735.92899902 681.07800781 -736.78588867 680.61914062 C-742.76859344 677.36895785 -748.31938118 673.80559751 -753.765625 669.71875 C-754.90503721 668.91309813 -756.04718251 668.11130359 -757.19140625 667.3125 C-765.7128364 661.35134553 -773.40120526 655.08316974 -780.765625 647.71875 C-781.92485529 646.71013896 -783.09203851 645.71061988 -784.265625 644.71875 C-789.54679784 640.23602662 -794.65699492 635.32399448 -798.765625 629.71875 C-798.765625 629.05875 -798.765625 628.39875 -798.765625 627.71875 C-799.33023438 627.50605469 -799.89484375 627.29335938 -800.4765625 627.07421875 C-812.12853237 620.1745028 -822.216918 599.72413424 -827.765625 587.71875 C-828.59369659 586.04946283 -829.42713573 584.38282871 -830.265625 582.71875 C-830.88050781 581.47931641 -830.88050781 581.47931641 -831.5078125 580.21484375 C-832.34645243 578.55058626 -833.20596969 576.89668639 -834.0859375 575.25390625 C-836.85322786 570.00931105 -838.65390295 564.99894956 -840.08203125 559.24609375 C-840.76467686 556.48438958 -840.76467686 556.48438958 -842.328125 553.09375 C-843.71872706 549.82885821 -844.52815215 546.88212334 -845.19921875 543.41796875 C-845.57982374 541.60418912 -846.0160826 539.80128861 -846.50415039 538.01342773 C-849.22435103 527.3902231 -849.2558351 516.95552993 -849.21166992 506.04589844 C-849.20323264 502.88408608 -849.23188801 499.72413174 -849.26367188 496.5625 C-849.3310347 477.2738389 -846.49482565 458.59387711 -841.515625 439.96875 C-841.21897949 438.84952148 -840.92233398 437.73029297 -840.61669922 436.57714844 C-832.63211012 407.4265329 -818.0643291 382.85869692 -793.953125 364.15625 C-793.343479 363.68227783 -792.73383301 363.20830566 -792.10571289 362.7199707 C-781.23826227 354.38601863 -769.19664588 347.72915123 -755.765625 344.71875 C-754.651875 344.22375 -753.538125 343.72875 -752.390625 343.21875 C-744.09194188 339.78481216 -735.71592275 339.41026311 -726.828125 339.41796875 C-725.70857422 339.41368362 -724.58902344 339.4093985 -723.43554688 339.40498352 C-721.07569043 339.39926896 -718.71581637 339.39871861 -716.35595703 339.40307617 C-712.80339296 339.40621661 -709.25167903 339.38280715 -705.69921875 339.35742188 C-686.91705956 339.30499286 -668.39591771 340.50480249 -651.015625 348.34375 C-647.75494195 349.8627638 -647.75494195 349.8627638 -643.98828125 350.40625 C-637.65798888 351.77361362 -631.88794474 354.52080624 -626.01138306 357.16717529 C-623.90902721 358.11360169 -621.8023097 359.04962058 -619.6940918 359.98291016 C-616.7932753 361.26726921 -613.89373902 362.55444601 -610.99511719 363.84375 C-604.70755276 366.63583668 -598.39784477 369.37523101 -592.078125 372.09375 C-590.94020508 372.58327148 -589.80228516 373.07279297 -588.62988281 373.57714844 C-580.521353 377.03613031 -572.3455486 380.27341417 -564.06958008 383.31005859 C-563.27704834 383.60219238 -562.4845166 383.89432617 -561.66796875 384.1953125 C-560.63917603 384.567771 -560.63917603 384.567771 -559.58959961 384.94775391 C-557.765625 385.71875 -557.765625 385.71875 -554.765625 387.71875 C-552.92496936 388.22864243 -551.06784615 388.68044805 -549.203125 389.09375 C-545.32544187 390.02031706 -541.68951747 391.04684791 -538.015625 392.59375 C-533.5342672 394.46219885 -529.00061136 396.07678868 -524.390625 397.59375 C-523.70000977 397.83335449 -523.00939453 398.07295898 -522.29785156 398.31982422 C-518.41315988 399.57142289 -518.41315988 399.57142289 -514.453125 399.046875 C-512.72058144 397.68329905 -511.46048979 396.35640813 -510.140625 394.59375 C-509.356875 393.645 -508.573125 392.69625 -507.765625 391.71875 C-507.105625 391.71875 -506.445625 391.71875 -505.765625 391.71875 C-505.49105469 390.69007813 -505.49105469 390.69007813 -505.2109375 389.640625 C-503.16111227 385.496654 -500.0702475 383.00358687 -496.640625 379.96875 C-491.55583359 375.36704695 -486.85092354 370.70677996 -482.40234375 365.4765625 C-480.16218893 363.0706683 -477.52720388 361.47611838 -474.765625 359.71875 C-473.84330078 358.55472656 -473.84330078 358.55472656 -472.90234375 357.3671875 C-470.73217229 354.67728577 -468.53395948 352.73400404 -465.828125 350.59375 C-460.98508864 346.71543613 -456.23443067 342.75005289 -451.53344727 338.70068359 C-447.41352588 335.18247459 -443.11978597 331.94025929 -438.765625 328.71875 C-437.28367139 327.6083168 -435.80190567 326.49763281 -434.3203125 325.38671875 C-425.0085271 318.44581617 -415.60912334 311.88052428 -405.765625 305.71875 C-401.19386887 302.74212374 -396.6981106 299.67525565 -392.25390625 296.51171875 C-386.53564632 292.50673626 -380.65222033 288.80692383 -374.703125 285.15625 C-373.58059326 284.46660156 -372.45806152 283.77695312 -371.30151367 283.06640625 C-359.64821066 275.94244011 -347.75360502 269.26202496 -335.765625 262.71875 C-335.0118457 262.30657227 -334.25806641 261.89439453 -333.48144531 261.46972656 C-324.65817523 256.66123334 -315.69946271 252.1343147 -306.69580078 247.67578125 C-303.67342351 246.17720816 -300.65729899 244.66627229 -297.640625 243.15625 C-296.50625 242.59292969 -295.371875 242.02960938 -294.203125 241.44921875 C-291.85338948 240.26634053 -289.52470139 239.06695275 -287.203125 237.83203125 C-279.21739447 233.62809662 -270.97025102 229.71875 -261.765625 229.71875 C-261.78481491 229.13089218 -261.80400482 228.54303436 -261.82377625 227.93736267 C-262.02401084 221.68962955 -262.19774916 215.44151881 -262.35766602 209.19262695 C-262.42019876 206.87603678 -262.48897641 204.55960481 -262.56469727 202.2434082 C-263.48198122 173.88148078 -260.75548101 147.03192484 -247.68945312 121.53271484 C-246.86088836 119.90580253 -246.06861329 118.26052813 -245.28125 116.61328125 C-243.14456003 112.14865438 -240.87823518 108.58593235 -237.765625 104.71875 C-236.66063779 102.98234153 -235.57758151 101.23180402 -234.515625 99.46875 C-229.81898008 91.99040122 -223.98335316 85.93647816 -217.765625 79.71875 C-216.72205364 78.4703397 -215.68059793 77.22015951 -214.640625 75.96875 C-210.96944466 71.70049857 -206.75916623 68.33185757 -202.31640625 64.89453125 C-199.73688262 62.69423314 -197.86728251 60.36758461 -195.765625 57.71875 C-194.14284993 56.252011 -192.47471429 54.83393718 -190.765625 53.46875 C-189.92 52.78296875 -189.074375 52.0971875 -188.203125 51.390625 C-185.765625 49.71875 -185.765625 49.71875 -183.578125 49.234375 C-182.6809375 48.97914062 -182.6809375 48.97914062 -181.765625 48.71875 C-181.07569204 47.39730582 -180.41165688 46.06220265 -179.765625 44.71875 C-177.734375 43.04296875 -177.734375 43.04296875 -175.265625 41.40625 C-174.35941406 40.7978125 -173.45320312 40.189375 -172.51953125 39.5625 C-171.61074219 38.9540625 -170.70195313 38.345625 -169.765625 37.71875 C-168.24389429 36.61582039 -166.72305794 35.51165577 -165.203125 34.40625 C-144.02571203 19.66122882 -119.31803271 7.13606787 -93.82421875 2.33203125 C-91.04398494 1.77456419 -88.45560296 1.04128327 -85.765625 0.15625 C-75.58170715 -2.98489349 -65.29594551 -3.51126973 -54.71875 -3.2956543 C-6.94601062 -2.39517607 -6.94601062 -2.39517607 0 0 Z " fill="#FEFEFE" transform="translate(874.765625,7.28125)"/>
<path d="M0 0 C0.6688623 0.18844482 1.33772461 0.37688965 2.02685547 0.57104492 C8.06703081 2.38632208 13.6792961 5.00105884 19.375 7.6875 C20.29023438 8.11264893 21.20546875 8.53779785 22.1484375 8.97583008 C36.15906147 15.50070018 49.66463776 22.52907398 62.95703125 30.3984375 C63.72547363 30.85275146 64.49391602 31.30706543 65.28564453 31.77514648 C66.7619443 32.65038361 68.23574658 33.52985256 69.70654297 34.41430664 C73.19459686 36.49409559 76.55879444 38.25732127 80.375 39.6875 C80.705 40.0175 81.035 40.3475 81.375 40.6875 C81.36910177 42.58378198 81.31992625 44.47999856 81.25 46.375 C81.23262366 51.25195892 81.23042957 54.73142752 84.375 58.6875 C89.00121791 61.37070639 93.05727294 62.07301575 98.359375 62.37890625 C100.375 62.6875 100.375 62.6875 103.375 64.6875 C103.66796875 67.5078125 103.66796875 67.5078125 103.5625 70.8125 C103.52189453 72.45605469 103.52189453 72.45605469 103.48046875 74.1328125 C103.44566406 74.97585938 103.41085937 75.81890625 103.375 76.6875 C104.06207031 77.01363281 104.74914062 77.33976563 105.45703125 77.67578125 C106.35808594 78.11277344 107.25914062 78.54976562 108.1875 79 C109.08082031 79.42925781 109.97414063 79.85851562 110.89453125 80.30078125 C113.183315 81.58033752 114.73608812 82.65655605 116.375 84.6875 C116.375 85.3475 116.375 86.0075 116.375 86.6875 C117.365 87.0175 118.355 87.3475 119.375 87.6875 C118.4675 87.81125 117.56 87.935 116.625 88.0625 C112.27466899 90.2376655 111.89234724 92.41366614 110.24951172 96.82470703 C108.82841486 101.47679575 108.28884301 106.10927467 107.8125 110.9375 C107.69737061 111.98929443 107.58224121 113.04108887 107.46362305 114.12475586 C107.0839054 117.64412137 106.72790978 121.1653492 106.375 124.6875 C106.23572685 126.04902933 106.09606701 127.41051914 105.95605469 128.77197266 C105.06902451 137.40793859 104.21002895 146.04633759 103.375 154.6875 C102.41722656 154.70167969 101.45945312 154.71585938 100.47265625 154.73046875 C75.92045015 155.43320967 58.28645881 167.2394048 38.1328125 180.00390625 C19.57970167 191.7239997 3.13253348 195.6626343 -18.96875 192.09375 C-33.90187723 188.58771143 -48.32953563 180.71233587 -60.625 171.6875 C-61.58277344 171.00171875 -62.54054688 170.3159375 -63.52734375 169.609375 C-91.80371099 148.9501632 -114.52632841 123.42636662 -129.625 91.6875 C-129.99915039 90.91857422 -130.37330078 90.14964844 -130.75878906 89.35742188 C-135.81096275 78.69123416 -137.75576179 70.87284992 -134 59.48828125 C-133.54270352 58.22097954 -133.08444826 56.95402318 -132.625 55.6875 C-132.315625 54.67042969 -132.00625 53.65335938 -131.6875 52.60546875 C-129.41117253 45.50210758 -125.93753244 38.77390662 -121.625 32.6875 C-120.965 32.6875 -120.305 32.6875 -119.625 32.6875 C-119.3878125 31.95273437 -119.150625 31.21796875 -118.90625 30.4609375 C-113.0808722 17.8511258 -95.02900855 9.49846545 -82.625 4.6875 C-55.71138236 -4.99151549 -27.77229049 -7.85852508 0 0 Z " fill="#9B7A69" transform="translate(200.625,478.3125)"/>
<path d="M0 0 C1.24910156 0.68642578 1.24910156 0.68642578 2.5234375 1.38671875 C6.67882746 3.90618276 9.28488954 6.19186972 11.875 10.3125 C13.74037893 13.09467028 14.51639187 13.87439622 17.8125 14.73046875 C20.56607922 14.97281182 23.23813323 15.07862966 26 15 C26.625 17.375 26.625 17.375 27 20 C26.34 20.66 25.68 21.32 25 22 C25.57331055 22.16081055 26.14662109 22.32162109 26.73730469 22.48730469 C56.12695109 30.75130073 56.12695109 30.75130073 61 34 C63.05451339 34.39133197 63.05451339 34.39133197 65.32421875 34.4921875 C66.60800415 34.58632935 66.60800415 34.58632935 67.91772461 34.68237305 C68.83175049 34.74593994 69.74577637 34.80950684 70.6875 34.875 C88.31468924 36.366427 107.68496549 40.0927186 120 54 C134.36384272 71.20553031 136.89990422 88.49765195 135.24755859 110.38623047 C134.78757402 115.24283289 133.99151921 120.03615989 133.1550293 124.84008789 C132.15179123 130.67386583 131.5576774 136.47849431 131.0625 142.375 C129.99051709 154.28566723 126.78087201 164.50440042 121 175 C120.34 175 119.68 175 119 175 C118.75378906 175.88042969 118.50757813 176.76085937 118.25390625 177.66796875 C113.14022472 191.25666141 98.1294985 203.16203057 85.3828125 209.25 C67.79434805 216.34801533 49.64095402 214.41697893 32 209 C31.14535156 208.75121094 30.29070312 208.50242187 29.41015625 208.24609375 C24.5235805 206.7431926 20.07769084 204.65696893 15.5546875 202.28125 C13.61093068 201.30639948 11.62372072 200.4176668 9.62109375 199.5703125 C-0.95798063 194.98262329 -9.91163079 189.22522825 -18 181 C-18.79277344 180.19433594 -19.58554687 179.38867188 -20.40234375 178.55859375 C-33 165.16441348 -33 165.16441348 -33 159 C-33.66 159 -34.32 159 -35 159 C-35.48919922 157.60587891 -35.48919922 157.60587891 -35.98828125 156.18359375 C-36.64376953 154.32927734 -36.64376953 154.32927734 -37.3125 152.4375 C-37.74175781 151.21933594 -38.17101562 150.00117187 -38.61328125 148.74609375 C-39.93356183 145.01692701 -39.93356183 145.01692701 -41.59375 141.609375 C-43.27158296 137.30293707 -43.78740634 133.38802448 -44.1875 128.8125 C-44.26718018 127.97315918 -44.34686035 127.13381836 -44.42895508 126.26904297 C-45.00571729 119.82739586 -45.27647857 113.46603111 -45 107 C-44.97035156 105.91074219 -44.94070313 104.82148437 -44.91015625 103.69921875 C-44.57225316 96.55380456 -43.34065098 91.28495353 -40 85 C-39.65066406 84.21238281 -39.30132813 83.42476562 -38.94140625 82.61328125 C-36.13001178 76.41653979 -32.40559271 71.507373 -27.98828125 66.34765625 C-25.89605286 63.96806716 -25.89605286 63.96806716 -24 61 C-35.86791331 72.598188 -48.37511039 87.14803836 -54 103 C-55.65 102.67 -57.3 102.34 -59 102 C-59.5303126 95.27772761 -58.28791811 91.77876922 -54.5625 86.25 C-50.93967421 80.99133224 -50.93967421 80.99133224 -49 75 C-50.25355368 72.14860677 -51.79685428 69.54425598 -53.359375 66.8515625 C-58.07184186 57.04743238 -58.51489391 45.76832364 -58.44604492 35.08374023 C-58.43739883 33.03856792 -58.46666907 30.99608029 -58.49804688 28.95117188 C-58.4945168 21.76040211 -58.43401676 16.78456131 -54 11 C-53.5771875 10.3503125 -53.154375 9.700625 -52.71875 9.03125 C-40.13016955 -6.78517159 -17.00862053 -9.5077687 0 0 Z " fill="#98969B" transform="translate(843,647)"/>
<path d="M0 0 C42.08072752 -0.85440877 42.08072752 -0.85440877 53 5 C53.16353339 28.73922025 53.286967 52.47835606 53.3626852 76.21802616 C53.39877729 87.24083856 53.4479822 98.26330094 53.52807617 109.28588867 C53.59785426 118.89337807 53.64300946 128.50061398 53.65861946 138.10834974 C53.66774418 143.19556428 53.68918242 148.28205365 53.7401104 153.36903572 C53.78767125 158.15855423 53.80227143 162.94704985 53.79175377 167.73678207 C53.79367746 169.49319839 53.80757485 171.24964936 53.83443832 173.00586128 C54.02770495 186.29404793 54.02770495 186.29404793 51.48048592 190.52233696 C49.74506549 192.26523568 48.00914705 193.59548182 46 195 C45.09186743 196.05571367 44.21463263 197.13903053 43.375 198.25 C41.02307383 200.97328294 39.04124606 202.17525236 36 204 C34.1934246 205.91546488 32.6198301 207.91736129 31 210 C31.65589738 211.98264795 31.65589738 211.98264795 33 214 C34.12921875 214.43699219 34.12921875 214.43699219 35.28125 214.8828125 C38.38110436 216.15660323 40.33072383 217.76105102 42.8125 220 C43.60269531 220.70125 44.39289063 221.4025 45.20703125 222.125 C47 224 47 224 47 226 C49.97 226.99 49.97 226.99 53 228 C53 248.79 53 269.58 53 291 C48.63248745 289.54416248 45.48899536 288.3079346 41.60546875 286.09375 C26.81533088 277.81169102 11.97296082 270.75732855 -4 265 C-5.13445557 264.57227295 -6.26891113 264.1445459 -7.43774414 263.70385742 C-17.21665653 260.18542568 -26.76595809 258.63094064 -37.0625 257.4375 C-62.12332238 254.48158113 -62.12332238 254.48158113 -71.19360352 249.8894043 C-73.91667806 248.54866088 -76.48765037 248.79070743 -79.5 248.75 C-89.51976152 248.14526934 -97.76440382 244.26812079 -104.53125 236.8046875 C-111 228.85638298 -111 228.85638298 -111 226 C-111.87140625 226.03480469 -112.7428125 226.06960938 -113.640625 226.10546875 C-129.7651515 226.47193526 -146.40712052 221.81390415 -159 211.25 C-168.59323901 201.74989923 -176.01907315 191.79989146 -176.36303711 178.07910156 C-176.41148608 167.63389839 -175.39864315 157.33996898 -174 147 C-168.26005848 148.65132481 -166.43472376 150.2895217 -163 155 C-161.8517315 157.296537 -161.88438825 158.58313167 -161.90234375 161.1328125 C-161.90556641 161.93847656 -161.90878906 162.74414062 -161.91210938 163.57421875 C-161.92048828 164.41597656 -161.92886719 165.25773438 -161.9375 166.125 C-161.94201172 166.97449219 -161.94652344 167.82398438 -161.95117188 168.69921875 C-161.96297126 170.79950909 -161.98090694 172.8997633 -162 175 C-163.98 175.99 -163.98 175.99 -166 177 C-166 178.65 -166 180.3 -166 182 C-164.824375 182.37125 -164.824375 182.37125 -163.625 182.75 C-161 184 -161 184 -159.6875 185.8125 C-158.85990943 188.44574271 -158.57833792 190.25919645 -159 193 C-160.29735507 194.04625409 -161.63266972 195.04701223 -163 196 C-163.495 197.98 -163.495 197.98 -164 200 C-161.03 200 -158.06 200 -155 200 C-154.9484375 200.81984375 -154.896875 201.6396875 -154.84375 202.484375 C-154.40941628 208.51010198 -154.40941628 208.51010198 -151.5078125 213.546875 C-149.38525299 214.62136571 -147.26441744 215.26724028 -145 216 C-144.14857422 216.33201416 -143.29714844 216.66402832 -142.41992188 217.00610352 C-134.43920601 220.0002508 -127.35032365 220.57982667 -118.875 220.4375 C-117.67746094 220.44458984 -116.47992187 220.45167969 -115.24609375 220.45898438 C-104.62108658 220.38334084 -96.17259951 218.16564085 -87 212.875 C-86.31357422 212.48393066 -85.62714844 212.09286133 -84.91992188 211.68994141 C-78.90994979 208.15491314 -73.97332615 203.87422001 -69 199 C-67.67441504 197.84521157 -66.34135827 196.69892853 -65 195.5625 C-58.15134281 189.58549008 -51.8077209 183.08941127 -45.90234375 176.18359375 C-43.99303901 173.99200987 -42.02990227 171.85645301 -40.05224609 169.7265625 C-22.69406181 151.00846573 -9.40253742 130.97028569 1.1875 107.8125 C1.78263536 106.52382619 2.37833783 105.23541412 2.97460938 103.94726562 C4.12553427 101.45769815 5.27129304 98.96587434 6.41162109 96.47143555 C7.42488338 94.25692949 8.44294533 92.04460894 9.46728516 89.83520508 C11.56069033 85.29847182 13.53776773 80.8499047 15 76.0625 C16.26102283 72.10793241 17.6847093 68.35219635 19.375 64.5625 C26.5623665 47.45611993 31.20969675 30.30172277 26 12 C24.05018105 7.91466507 21.70120847 5.59084593 18 3 C14.43913342 1.81304447 11.02668976 1.64904582 7.3125 1.4375 C6.61060547 1.39431641 5.90871094 1.35113281 5.18554688 1.30664062 C3.45724794 1.2008264 1.7286489 1.09993419 0 1 C0 0.67 0 0.34 0 0 Z " fill="#838892" transform="translate(947,153)"/>
<path d="M0 0 C0.91998779 0.00773438 1.83997559 0.01546875 2.7878418 0.0234375 C9.29653155 0.18977903 14.89600643 1.07872086 20.5625 4.5 C20.5625 5.16 20.5625 5.82 20.5625 6.5 C21.243125 6.70625 21.92375 6.9125 22.625 7.125 C31.69987077 11.37281185 36.64375167 19.43819162 40.3125 28.5 C43.18989265 37.21891607 43.89329882 45.66830196 43.8125 54.8125 C43.80573242 55.92044922 43.79896484 57.02839844 43.79199219 58.16992188 C43.69558139 65.78861703 43.20439874 73.04463419 41.5625 80.5 C41.34078125 81.72332031 41.1190625 82.94664062 40.890625 84.20703125 C37.50130062 101.66776415 29.46090586 117.70318828 21.5625 133.5 C-49.7175 133.5 -120.9975 133.5 -194.4375 133.5 C-194.1075 131.85 -193.7775 130.2 -193.4375 128.5 C-192.7775 128.5 -192.1175 128.5 -191.4375 128.5 C-191.3446875 127.448125 -191.3446875 127.448125 -191.25 126.375 C-190.12969429 122.41084133 -188.27683474 120.47783887 -185.4375 117.5 C-184.7775 117.5 -184.1175 117.5 -183.4375 117.5 C-183.4375 116.84 -183.4375 116.18 -183.4375 115.5 C-175.30606825 107.79772715 -163.17642707 105.7210405 -152.6875 103 C-142.28011784 100.21646134 -132.50599565 95.24492958 -122.8125 90.625 C-121.75804687 90.13386719 -120.70359375 89.64273438 -119.6171875 89.13671875 C-110.72302209 84.89878103 -102.68910346 79.91109766 -95.5 73.125 C-91.88680713 69.79811402 -88.21634173 66.57586008 -84.4375 63.4375 C-83.53 62.68339844 -82.6225 61.92929687 -81.6875 61.15234375 C-79.4375 59.5 -79.4375 59.5 -77.4375 59.5 C-77.4375 58.84 -77.4375 58.18 -77.4375 57.5 C-76.03071977 56.25185669 -74.55870296 55.0769161 -73.0625 53.9375 C-63.84204551 46.89775618 -55.56657239 38.7954114 -47.39355469 30.58642578 C-45.91456814 29.10198355 -44.43018109 27.62308745 -42.9453125 26.14453125 C-41.99447014 25.19302953 -41.04393725 24.24121843 -40.09375 23.2890625 C-39.24619141 22.44037598 -38.39863281 21.59168945 -37.52539062 20.71728516 C-35.30710413 18.48485595 -35.30710413 18.48485595 -33.4375 15.5 C-32.7775 15.5 -32.1175 15.5 -31.4375 15.5 C-31.1075 14.51 -30.7775 13.52 -30.4375 12.5 C-28.25 10.59765625 -28.25 10.59765625 -25.4375 8.5625 C-24.53 7.89347656 -23.6225 7.22445312 -22.6875 6.53515625 C-15.1006786 1.7842741 -8.97958323 -0.18294012 0 0 Z " fill="#9EA5B1" transform="translate(951.4375,866.5)"/>
<path d="M0 0 C5.94061375 2.0286796 11.69464156 4.88214156 16.1875 9.375 C17.66578903 9.45563395 19.14530737 9.51402333 20.625 9.5625 C26.9984374 10.19086707 31.00473407 12.76088456 36.1875 16.375 C36.77885742 16.78153809 37.37021484 17.18807617 37.97949219 17.60693359 C54.07893605 28.68789783 69.74856795 40.39549575 85.1875 52.375 C86.2975568 53.22737092 87.4082478 54.07891646 88.51953125 54.9296875 C95.13989803 59.99864582 101.72096883 65.11021356 108.1875 70.375 C108.82300781 70.88546875 109.45851563 71.3959375 110.11328125 71.921875 C117.90522137 78.34892982 123.53808482 85.5980313 127.8125 94.75 C128.23789062 95.64460937 128.66328125 96.53921875 129.1015625 97.4609375 C130.1875 100.375 130.1875 100.375 131.1875 107.375 C59.5775 107.375 -12.0325 107.375 -85.8125 107.375 C-89.35015065 84.96987921 -89.35015065 84.96987921 -89.25 73.3125 C-89.24097656 72.02899658 -89.23195313 70.74549316 -89.22265625 69.4230957 C-88.76775907 44.3453092 -88.76775907 44.3453092 -80.9375 35 C-78.61413461 32.7668207 -76.51146507 31.1906929 -73.75 29.5 C-70.58649105 27.21150416 -69.42968158 25.37680661 -67.4375 22.0625 C-63.25241149 15.17320046 -58.21851013 9.47646676 -50.33984375 6.83984375 C-46.86655398 6.20101611 -43.39553913 6.16854521 -39.875 6.0625 C-32.65678926 5.84427115 -28.27021988 4.06065219 -22.8125 -0.625 C-16.35394706 -3.85427647 -6.643875 -1.88817674 0 0 Z " fill="#848892" transform="translate(353.8125,892.625)"/>
<path d="M0 0 C1.46652389 2.93304779 0.40230867 4.66601685 -0.4375 7.8125 C-3.22902082 20.33557259 -4.70423691 35.58890245 2 47 C2.69183787 48.302466 3.38175289 49.60595421 4.0703125 50.91015625 C18.47330524 77.42957335 42.41715774 94.23582189 71.1003418 102.81030273 C94.23199146 109.57732558 116.73392609 112.29881348 140.8125 112.25 C142.04002991 112.24870087 142.04002991 112.24870087 143.2923584 112.24737549 C145.63906441 112.2409489 147.98542029 112.22480923 150.33203125 112.203125 C151.38361168 112.1965538 151.38361168 112.1965538 152.45643616 112.18984985 C156.10416791 112.1372648 159.44078052 111.75813621 163 111 C179.10360962 109.65723732 193.51147109 109.32091153 207 119 C207.66 119.66 208.32 120.32 209 121 C208.15824219 121.1753125 207.31648437 121.350625 206.44921875 121.53125 C196.58729216 124.07097772 188.32812588 128.37265024 179.625 133.625 C178.74884033 134.15367172 178.74884033 134.15367172 177.85498047 134.69302368 C172.11486128 138.17098059 166.42358489 141.72475964 160.75390625 145.31640625 C142.20657413 157.04139784 125.75323993 160.97444098 103.65625 157.40625 C88.72312277 153.90021143 74.29546437 146.02483587 62 137 C61.04222656 136.31421875 60.08445312 135.6284375 59.09765625 134.921875 C30.82128901 114.2626632 8.09867159 88.73886662 -7 57 C-7.37415039 56.23107422 -7.74830078 55.46214844 -8.13378906 54.66992188 C-13.1840868 44.00769469 -15.13039282 36.18994793 -11.37890625 24.80859375 C-10.92070577 23.5385439 -10.46116973 22.2689747 -10 21 C-9.67902344 19.95972656 -9.35804687 18.91945313 -9.02734375 17.84765625 C-6.91979581 11.34254073 -3.71939336 5.7154678 0 0 Z " fill="#838791" transform="translate(78,513)"/>
<path d="M0 0 C5.94061375 2.0286796 11.69464156 4.88214156 16.1875 9.375 C17.66578903 9.45563395 19.14530737 9.51402333 20.625 9.5625 C26.9984374 10.19086707 31.00473407 12.76088456 36.1875 16.375 C36.77885742 16.78153809 37.37021484 17.18807617 37.97949219 17.60693359 C54.07893605 28.68789783 69.74856795 40.39549575 85.1875 52.375 C86.2975568 53.22737092 87.4082478 54.07891646 88.51953125 54.9296875 C95.13989803 59.99864582 101.72096883 65.11021356 108.1875 70.375 C108.82300781 70.88546875 109.45851563 71.3959375 110.11328125 71.921875 C117.90522137 78.34892982 123.53808482 85.5980313 127.8125 94.75 C128.23789062 95.64460937 128.66328125 96.53921875 129.1015625 97.4609375 C130.1875 100.375 130.1875 100.375 131.1875 107.375 C108.7475 107.375 86.3075 107.375 63.1875 107.375 C63.1875 105.395 63.1875 103.415 63.1875 101.375 C63.8475 101.375 64.5075 101.375 65.1875 101.375 C65.33486747 97.12537572 65.42225716 92.87642287 65.5 88.625 C65.54189453 87.43777344 65.58378906 86.25054688 65.62695312 85.02734375 C65.7458565 76.32361673 63.92880086 70.163091 60.1875 62.375 C59.72475296 61.02925159 59.28051437 59.6765864 58.875 58.3125 C56.07780452 50.68814432 50.55024198 44.24369912 44.1875 39.375 C43.465625 38.59125 42.74375 37.8075 42 37 C38.68545467 33.90642436 35.15186664 31.89397074 31.19921875 29.70703125 C30.53535156 29.26746094 29.87148438 28.82789063 29.1875 28.375 C29.1875 27.715 29.1875 27.055 29.1875 26.375 C28.671875 26.271875 28.15625 26.16875 27.625 26.0625 C25.1875 25.375 25.1875 25.375 22.375 23.9375 C10.37925297 18.79288046 -5.05879755 19.81383813 -17.89013672 19.45849609 C-19.75662139 19.40516796 -21.62290527 19.34380213 -23.48876953 19.27197266 C-38.69619563 18.69036463 -47.16046767 21.34837722 -58.8125 31.375 C-60.09640625 32.35146484 -60.09640625 32.35146484 -61.40625 33.34765625 C-63.79390287 35.35933132 -65.31260246 37.20223624 -67 39.8125 C-67.48855469 40.55371094 -67.97710937 41.29492188 -68.48046875 42.05859375 C-69.84676591 44.43458852 -70.85764865 46.80911983 -71.8125 49.375 C-72.4725 49.375 -73.1325 49.375 -73.8125 49.375 C-76.40950772 58.15535944 -77.11372528 66.45252764 -77.125 75.5625 C-77.13015625 76.55894531 -77.1353125 77.55539062 -77.140625 78.58203125 C-77.0779788 85.36571965 -76.23564078 91.74835904 -74.8125 98.375 C-74.52862427 99.69830322 -74.52862427 99.69830322 -74.23901367 101.04833984 C-73.77580221 103.15996077 -73.2960849 105.26795149 -72.8125 107.375 C-77.1025 107.375 -81.3925 107.375 -85.8125 107.375 C-90.13897789 86.92724138 -94.66875402 56.16597719 -82.9765625 37.43359375 C-80.18298294 34.09949401 -77.45709137 31.76964778 -73.75 29.5 C-70.58649105 27.21150416 -69.42968158 25.37680661 -67.4375 22.0625 C-63.25241149 15.17320046 -58.21851013 9.47646676 -50.33984375 6.83984375 C-46.86655398 6.20101611 -43.39553913 6.16854521 -39.875 6.0625 C-32.65678926 5.84427115 -28.27021988 4.06065219 -22.8125 -0.625 C-16.35394706 -3.85427647 -6.643875 -1.88817674 0 0 Z " fill="#C6C6C7" transform="translate(353.8125,892.625)"/>
<path d="M0 0 C5.66022056 5.27149519 9.08442055 11.70208395 10.40234375 19.328125 C9.79893213 23.3352468 7.28497362 25.628433 4.625 28.5 C3.50953783 29.75848698 2.39629144 31.01894105 1.28515625 32.28125 C0.72715332 32.9103125 0.16915039 33.539375 -0.40576172 34.1875 C-9.82173142 44.89257795 -16.81129879 56.73536324 -23.85180664 69.07324219 C-25 71 -25 71 -26 72 C-31.81988917 72.73903354 -35.10280951 72.3809405 -40 69.0625 C-50.50728047 60.91001964 -63.7147173 47.85756531 -66 34 C-66.98111731 23.40896445 -66.47336222 10.94142414 -60.52734375 1.71484375 C-43.28125436 -16.83591434 -19.52225253 -12.4432927 0 0 Z " fill="#673D43" transform="translate(574,852)"/>
<path d="M0 0 C1.24910156 0.68642578 1.24910156 0.68642578 2.5234375 1.38671875 C6.67882746 3.90618276 9.28488954 6.19186972 11.875 10.3125 C13.74037893 13.09467028 14.51639187 13.87439622 17.8125 14.73046875 C20.56607922 14.97281182 23.23813323 15.07862966 26 15 C26.625 17.375 26.625 17.375 27 20 C24.62497397 22.37502603 23.80430951 22.28810907 20.5625 22.6875 C9.77662063 24.70500262 1.65603314 32.6083644 -6 40 C-6.48114258 40.46067871 -6.96228516 40.92135742 -7.45800781 41.39599609 C-14.52856519 48.19146105 -20.94894297 55.26751717 -27 63 C-27.89390097 64.12680238 -28.78846253 65.25308094 -29.68359375 66.37890625 C-32.47782382 69.9022352 -35.24340225 73.44718583 -38 77 C-38.4237793 77.54366211 -38.84755859 78.08732422 -39.28417969 78.64746094 C-45.19507883 86.25384258 -50.75226795 93.84730059 -54 103 C-55.65 102.67 -57.3 102.34 -59 102 C-59.5303126 95.27772761 -58.28791811 91.77876922 -54.5625 86.25 C-50.93967421 80.99133224 -50.93967421 80.99133224 -49 75 C-50.25355368 72.14860677 -51.79685428 69.54425598 -53.359375 66.8515625 C-58.07184186 57.04743238 -58.51489391 45.76832364 -58.44604492 35.08374023 C-58.43739883 33.03856792 -58.46666907 30.99608029 -58.49804688 28.95117188 C-58.4945168 21.76040211 -58.43401676 16.78456131 -54 11 C-53.5771875 10.3503125 -53.154375 9.700625 -52.71875 9.03125 C-40.13016955 -6.78517159 -17.00862053 -9.5077687 0 0 Z " fill="#663D43" transform="translate(843,647)"/>
<path d="M0 0 C0.33 0 0.66 0 1 0 C1.17374669 5.42586079 1.30039266 10.85008468 1.38452148 16.27807617 C1.4196075 18.12211327 1.46729136 19.96595723 1.52807617 21.80932617 C1.61352914 24.46842141 1.65280344 27.12493306 1.68359375 29.78515625 C1.71972275 30.60210464 1.75585175 31.41905304 1.79307556 32.26075745 C1.79548963 35.82343801 1.66840978 38.10989722 -0.51266479 41.01437378 C-2.37866211 42.87280273 -2.37866211 42.87280273 -4.23643494 44.47532654 C-5.94914798 45.95603637 -7.24638497 47.46177558 -8.625 49.25 C-10.97692617 51.97328294 -12.95875394 53.17525236 -16 55 C-17.8065754 56.91546488 -19.3801699 58.91736129 -21 61 C-20.34410262 62.98264795 -20.34410262 62.98264795 -19 65 C-18.2471875 65.29132813 -17.494375 65.58265625 -16.71875 65.8828125 C-13.61889564 67.15660323 -11.66927617 68.76105102 -9.1875 71 C-8.39730469 71.70125 -7.60710938 72.4025 -6.79296875 73.125 C-5 75 -5 75 -5 77 C-2.03 77.99 -2.03 77.99 1 79 C1 88.9 1 98.8 1 109 C-18.90421461 101.03831416 -35.72430178 83.28557871 -50.6875 68.5 C-51.39567871 67.80495361 -52.10385742 67.10990723 -52.83349609 66.39379883 C-53.49043457 65.73790771 -54.14737305 65.0820166 -54.82421875 64.40625 C-55.41291748 63.82166016 -56.00161621 63.23707031 -56.6081543 62.63476562 C-58 61 -58 61 -59 58 C-58.36835937 57.48953125 -57.73671875 56.9790625 -57.0859375 56.453125 C-45.05757518 46.67791412 -33.28654861 36.62633267 -22 26 C-20.70449219 24.78570312 -20.70449219 24.78570312 -19.3828125 23.546875 C-12.00714977 16.42396084 -5.68476304 8.52714457 0 0 Z " fill="#FDFDFD" transform="translate(999,302)"/>
<path d="M0 0 C1.08925781 0.54140625 2.17851562 1.0828125 3.30078125 1.640625 C6.75926817 3.38238107 8.01277895 4.64228168 10 8 C11.73259453 13.57678863 12.87405253 19.27555677 14 25 C14.66 25 15.32 25 16 25 C16.0821704 26.85339912 16.13971265 28.70789582 16.1875 30.5625 C16.23970703 32.11130859 16.23970703 32.11130859 16.29296875 33.69140625 C15.936826 37.71344501 14.65160275 40.32913668 13 44 C5.72333602 44.25410042 -1.55218083 44.42888872 -8.83227539 44.54931641 C-11.30699407 44.59952668 -13.78141723 44.66771247 -16.25512695 44.75439453 C-19.81796095 44.87609069 -23.37686939 44.93248596 -26.94140625 44.9765625 C-28.59336754 45.05398178 -28.59336754 45.05398178 -30.27870178 45.13296509 C-37.81855628 45.13843808 -37.81855628 45.13843808 -41.21749878 41.86322021 C-43.03386551 39.31108504 -44.55545522 36.77722085 -46 34 C-46.4432814 33.20558502 -46.88656281 32.41117004 -47.34327698 31.59268188 C-50.38887056 25.94199753 -50.8580846 20.31954071 -50 14 C-48.625 11.125 -48.625 11.125 -47 9 C-46.731875 8.21625 -46.46375 7.4325 -46.1875 6.625 C-43.45134499 0.57665735 -38.73235864 -3.7599712 -33 -7 C-20.11271414 -11.08896379 -10.72407881 -6.49154308 0 0 Z " fill="#9B7B69" transform="translate(366,956)"/>
<path d="M0 0 C0 46.86 0 93.72 0 142 C-5.62251375 136.37748625 -5.62251375 136.37748625 -7.83203125 133.1796875 C-8.31671875 132.48488281 -8.80140625 131.79007813 -9.30078125 131.07421875 C-10.04908203 129.98560547 -10.04908203 129.98560547 -10.8125 128.875 C-11.87021513 127.35095234 -12.92880993 125.82751483 -13.98828125 124.3046875 C-14.50084473 123.56702148 -15.0134082 122.82935547 -15.54150391 122.06933594 C-16.8060029 120.27524596 -18.09558503 118.50939586 -19.41796875 116.7578125 C-25.20157919 109.09697015 -29.94798381 102.17862765 -29.515625 92.234375 C-29 90 -29 90 -26.375 87 C-23.24629025 85.14594978 -20.4476391 84.08161227 -17 83 C-17.58148169 80.9369772 -18.16532072 78.87461885 -18.75 76.8125 C-18.92756836 76.17610596 -19.10513672 75.53971191 -19.28808594 74.8840332 C-20.15723279 71.80268613 -21.07535294 68.78972456 -22.15625 65.7734375 C-25.32183277 56.84197182 -27.7513275 45.36187356 -23.82421875 36.28125 C-21.62446958 33.23456898 -19.4781437 31.30220338 -16.29296875 29.2890625 C-13.61467727 27.10730306 -13.61467727 27.10730306 -13.6875 23.35546875 C-13.77494502 21.96499321 -13.87981467 20.57552894 -14 19.1875 C-14.38245105 10.35347525 -14.38245105 10.35347525 -11.875 6.75 C-4.81818182 0 -4.81818182 0 0 0 Z " fill="#B4B6B9" transform="translate(1000,597)"/>
<path d="M0 0 C1.63174164 0.00306656 1.63174164 0.00306656 3.29644775 0.00619507 C56.10566265 0.16816265 56.10566265 0.16816265 65.375 9.4375 C65.5 12.0625 65.5 12.0625 65.375 14.4375 C60.9850311 15.69177683 60.9850311 15.69177683 58.33203125 14.5859375 C39.83245561 7.40116176 17.15658037 7.27673766 -2.4375 7.125 C-3.135336 7.11537231 -3.833172 7.10574463 -4.55215454 7.0958252 C-36.30503872 6.72018965 -64.23899322 20.67885444 -86.70703125 42.51953125 C-87.68223955 43.48962873 -88.65500217 44.46219257 -89.625 45.4375 C-90.49511719 46.30761719 -91.36523438 47.17773438 -92.26171875 48.07421875 C-113.39288519 70.26691945 -132.30910703 104.38321245 -134.25 135.4375 C-134.36214844 137.1390625 -134.36214844 137.1390625 -134.4765625 138.875 C-134.52554688 139.720625 -134.57453125 140.56625 -134.625 141.4375 C-133.51125 141.499375 -132.3975 141.56125 -131.25 141.625 C-124.04116411 142.57084017 -117.69131053 145.57676849 -113.125 151.3125 C-108.14959248 158.22600231 -108.4088455 165.4705714 -108.625 173.625 C-108.67612241 175.57659814 -108.71815215 177.52846093 -108.75 179.48046875 C-108.77320313 180.33664795 -108.79640625 181.19282715 -108.8203125 182.07495117 C-108.60629806 184.66372335 -107.86098198 186.18069616 -106.625 188.4375 C-105.86635871 193.79590322 -105.74803916 198.05562232 -108.6875 202.6875 C-111.625 204.4375 -111.625 204.4375 -115.4375 204.25 C-116.489375 203.981875 -117.54125 203.71375 -118.625 203.4375 C-118.3125 201.0625 -118.3125 201.0625 -117.625 198.4375 C-116.14 197.4475 -116.14 197.4475 -114.625 196.4375 C-114.74044282 192.35185675 -114.74044282 192.35185675 -115.625 188.4375 C-118.54341857 186.35117303 -118.54341857 186.35117303 -121.625 185.4375 C-121.625 183.7875 -121.625 182.1375 -121.625 180.4375 C-119.645 179.4475 -119.645 179.4475 -117.625 178.4375 C-117.51647077 175.56147545 -117.4374485 172.68959168 -117.375 169.8125 C-117.34148438 169.00425781 -117.30796875 168.19601562 -117.2734375 167.36328125 C-117.18406013 161.86657284 -117.93234937 158.77984499 -121.625 154.4375 C-126.76594738 150.55556014 -130.88204296 149.94000605 -137.26953125 149.7109375 C-139.625 149.4375 -139.625 149.4375 -141.625 147.4375 C-142.85779005 134.24015807 -141.22820515 122.77474661 -136.625 110.4375 C-136.20686035 109.27831055 -136.20686035 109.27831055 -135.78027344 108.09570312 C-128.91066002 89.21377566 -120.00589204 71.30939766 -107.625 55.4375 C-106.92117188 54.51195312 -106.21734375 53.58640625 -105.4921875 52.6328125 C-87.81552745 30.12931538 -64.28853347 11.69341174 -36.625 3.4375 C-35.78324219 3.16897217 -34.94148437 2.90044434 -34.07421875 2.6237793 C-22.89852373 -0.48252578 -11.50964414 -0.06447828 0 0 Z " fill="#683F45" transform="translate(901.625,149.5625)"/>
<path d="M0 0 C0.6688623 0.18844482 1.33772461 0.37688965 2.02685547 0.57104492 C8.06703081 2.38632208 13.6792961 5.00105884 19.375 7.6875 C20.29023438 8.11264893 21.20546875 8.53779785 22.1484375 8.97583008 C36.15906147 15.50070018 49.66463776 22.52907398 62.95703125 30.3984375 C63.72547363 30.85275146 64.49391602 31.30706543 65.28564453 31.77514648 C66.7619443 32.65038361 68.23574658 33.52985256 69.70654297 34.41430664 C73.19459686 36.49409559 76.55879444 38.25732127 80.375 39.6875 C80.705 40.0175 81.035 40.3475 81.375 40.6875 C81.36910177 42.58378198 81.31992625 44.47999856 81.25 46.375 C81.23262366 51.25195892 81.23042957 54.73142752 84.375 58.6875 C89.00121791 61.37070639 93.05727294 62.07301575 98.359375 62.37890625 C100.375 62.6875 100.375 62.6875 103.375 64.6875 C103.311235 68.13456077 102.96891605 71.42155408 102.52539062 74.83398438 C102.23941629 77.22527835 102.23941629 77.22527835 102.375 80.6875 C104.90545157 83.39909018 107.9134657 84.4375015 111.375 85.6875 C111.417721 87.35361905 111.41563832 89.02132885 111.375 90.6875 C110.375 91.6875 110.375 91.6875 107.875 92.125 C102.81421506 91.49240188 99.28918252 88.86828832 95.375 85.6875 C94.00961062 82.95672124 94.24268174 80.73189633 94.25 77.6875 C94.24742187 76.615 94.24484375 75.5425 94.2421875 74.4375 C94.375 71.6875 94.375 71.6875 95.375 69.6875 C94.385 69.77 93.395 69.8525 92.375 69.9375 C87.10348301 69.91615783 82.68623117 67.81780146 78.828125 64.26171875 C74.60100399 59.45026042 73.09749557 55.20393374 73.25 48.875 C73.26804687 47.89917969 73.28609375 46.92335938 73.3046875 45.91796875 C73.32789063 45.18191406 73.35109375 44.44585938 73.375 43.6875 C72.17875 43.378125 70.9825 43.06875 69.75 42.75 C64.6556905 41.05719513 60.45072111 38.31389392 56.01855469 35.37158203 C23.03015374 13.54539306 -14.06268172 -2.88385486 -54.33203125 3.99609375 C-73.26438511 7.97121431 -96.56861811 14.70826224 -108.4375 31.20703125 C-111.13012007 35.52428506 -113.32189347 39.73569517 -114.625 44.6875 C-116.28114657 45.06968767 -117.94957024 45.40145102 -119.625 45.6875 C-120.625 44.6875 -120.625 44.6875 -121 41.75 C-120.83224696 33.54687614 -115.23974621 26.49252434 -109.8359375 20.77734375 C-82.54258954 -5.02113886 -34.55800644 -9.77863026 0 0 Z " fill="#693F44" transform="translate(200.625,478.3125)"/>
<path d="M0 0 C0.33 0 0.66 0 1 0 C1.93477848 7.80136114 2.00873545 13.65665208 -2.8125 20.125 C-4.5028598 22.11692634 -6.23386602 24.07493959 -8 26 C-8.88826937 27.00774992 -9.7749814 28.01687462 -10.66015625 29.02734375 C-13.37237849 32.08430255 -16.17001734 35.05218323 -19 38 C-19.91007813 38.95132813 -20.82015625 39.90265625 -21.7578125 40.8828125 C-27.00173367 46.24625324 -32.43370715 51.13446304 -38.30078125 55.8046875 C-41.04085558 58.03322842 -43.64692617 60.36352081 -46.25 62.75 C-49.99535801 66.16629301 -53.79814596 69.16831575 -58 72 C-54.68043731 77.97772616 -50.00430658 82.33682228 -45.1875 87.125 C-44.47978958 87.8304747 -44.47978958 87.8304747 -43.75778198 88.55020142 C-36.26171802 96.00368043 -28.58512266 102.83761102 -20 109 C-18.75997145 109.91085253 -17.52040104 110.82232905 -16.28125 111.734375 C-10.6797213 115.81817309 -5.06769411 119.63246812 1 123 C1 125.64 1 128.28 1 131 C-15.96942455 124.93253845 -30.72227742 111.03975163 -43.765625 99.046875 C-46.03694957 96.96615109 -48.35881431 94.95361043 -50.6875 92.9375 C-54.2622074 89.77404213 -57.42410276 86.41525928 -60.4921875 82.76171875 C-60.98976563 82.18035156 -61.48734375 81.59898437 -62 81 C-62.45632813 80.40832031 -62.91265625 79.81664062 -63.3828125 79.20703125 C-64.98474295 77.73637168 -64.98474295 77.73637168 -67.390625 78.17578125 C-69.98929336 78.99661811 -72.3057013 79.98481162 -74.75 81.1875 C-79.64470838 83.47214 -84.5995137 85.38981152 -89.6875 87.1875 C-90.3877832 87.43717529 -91.08806641 87.68685059 -91.80957031 87.9440918 C-99.14738424 90.50128718 -106.16193488 92.66424281 -114 92 C-116.0625 90.8125 -116.0625 90.8125 -117 89 C-116.71691998 87.32406605 -116.38732912 85.65495167 -116 84 C-115.32839844 83.9484375 -114.65679688 83.896875 -113.96484375 83.84375 C-92.16290799 81.36817536 -71.10076528 71.48576093 -54 58 C-53.10925781 57.30132812 -52.21851563 56.60265625 -51.30078125 55.8828125 C-45.23201645 51.0174119 -39.48305065 45.85780801 -33.7890625 40.56640625 C-31.46189155 38.42501785 -29.09941385 36.35657371 -26.6875 34.3125 C-16.42576976 25.35719127 -7.70846067 13.57966505 -1.05859375 1.73046875 C-0.53458984 0.87388672 -0.53458984 0.87388672 0 0 Z " fill="#683F45" transform="translate(999,288)"/>
<path d="M0 0 C2.625 0.375 2.625 0.375 5 1 C4.43494697 5.59538025 3.53648472 9.78344885 2.125 14.1875 C-6.0196231 42.75313064 -6.16654768 74.73738628 3 103 C3.25040039 103.78665039 3.50080078 104.57330078 3.75878906 105.38378906 C5.53181293 112.193832 5.53181293 112.193832 9 118 C9.04080783 119.99958364 9.04254356 122.00045254 9 124 C6.8125 124.5 6.8125 124.5 4 124 C-9.16375453 107.87440071 -11.74591353 80.00353444 -12 60 C-12.57105469 60.44730469 -13.14210938 60.89460937 -13.73046875 61.35546875 C-20.42975722 66.35064568 -27.14831125 69.24828827 -35 72 C-45.33373997 75.91969447 -53.55893169 81.92308983 -61 90 C-75.40041644 104.76965788 -75.40041644 104.76965788 -82.6015625 105.23046875 C-83.94277897 105.22650847 -85.28399975 105.21190518 -86.625 105.1875 C-87.305625 105.18685547 -87.98625 105.18621094 -88.6875 105.18554688 C-93.71838846 105.14080577 -93.71838846 105.14080577 -96 104 C-96.042721 102.33388095 -96.04063832 100.66617115 -96 99 C-94.1900082 97.1900082 -91.25536725 97.78411057 -88.8125 97.6875 C-83.30315863 97.2742994 -80.22576605 96.75623648 -76 93 C-75.22011719 92.33355469 -74.44023438 91.66710937 -73.63671875 90.98046875 C-69.85418215 87.69106284 -66.23187696 84.44334384 -63.125 80.5 C-55.62925702 71.36456324 -45.06461865 65.57551642 -34 62.0625 C-25.82762081 59.41033166 -20.27343338 55.73928801 -14.54296875 49.35546875 C-13 48 -13 48 -10 48 C-10.04640625 47.14921875 -10.0928125 46.2984375 -10.140625 45.421875 C-10.57018716 31.00085948 -8.40866989 15.08661163 -2 2 C-1.34 1.34 -0.68 0.68 0 0 Z " fill="#6A4248" transform="translate(759,795)"/>
<path d="M0 0 C0.43921569 5.27058824 0.43921569 5.27058824 0 8 C-2.4375 10.375 -2.4375 10.375 -5 12 C-6.36623674 14.73247348 -6.128426 16.98198902 -6 20 C-5.67 20.33 -5.34 20.66 -5 21 C-4.61156192 26.04969506 -4.81395164 29.01743955 -8 33 C-10.03941734 34.87970393 -12.11944116 36.68290836 -14.2578125 38.44921875 C-16.93842801 40.83532717 -16.99500205 41.95168653 -17.375 45.625 C-17.33204411 50.97730352 -15.6657362 55.74204537 -13.99853516 60.76196289 C-11.80110199 67.41724615 -10.25337351 74.09797696 -9 81 C-8.76796875 82.24652344 -8.5359375 83.49304688 -8.296875 84.77734375 C-8.14992188 86.37255859 -8.14992188 86.37255859 -8 88 C-10.18785683 90.18785683 -11.01127982 90.38968965 -13.9375 91 C-16.98961332 91.63894709 -18.28652376 92.19101584 -21 94 C-19.80828506 104.21895562 -12.20515449 112.24444362 -6.11328125 120.17578125 C-5.41589844 121.10777344 -4.71851563 122.03976562 -4 123 C-3.25621094 123.96550781 -2.51242187 124.93101562 -1.74609375 125.92578125 C0.31705322 129.55821228 0.41892984 131.73621897 0.25 135.875 C0.19585938 137.60363281 0.19585938 137.60363281 0.140625 139.3671875 C0.07101562 140.67042969 0.07101562 140.67042969 0 142 C-4.26958887 138.01921331 -7.51222129 133.67618066 -10.8125 128.875 C-11.87021513 127.35095234 -12.92880993 125.82751483 -13.98828125 124.3046875 C-14.50084473 123.56702148 -15.0134082 122.82935547 -15.54150391 122.06933594 C-16.8060029 120.27524596 -18.09558503 118.50939586 -19.41796875 116.7578125 C-25.20157919 109.09697015 -29.94798381 102.17862765 -29.515625 92.234375 C-29 90 -29 90 -26.375 87 C-23.24629025 85.14594978 -20.4476391 84.08161227 -17 83 C-17.58148169 80.9369772 -18.16532072 78.87461885 -18.75 76.8125 C-18.92756836 76.17610596 -19.10513672 75.53971191 -19.28808594 74.8840332 C-20.15723279 71.80268613 -21.07535294 68.78972456 -22.15625 65.7734375 C-25.32183277 56.84197182 -27.7513275 45.36187356 -23.82421875 36.28125 C-21.62446958 33.23456898 -19.4781437 31.30220338 -16.29296875 29.2890625 C-13.61467727 27.10730306 -13.61467727 27.10730306 -13.6875 23.35546875 C-13.77494502 21.96499321 -13.87981467 20.57552894 -14 19.1875 C-14.38245105 10.35347525 -14.38245105 10.35347525 -11.875 6.75 C-4.81818182 0 -4.81818182 0 0 0 Z " fill="#684046" transform="translate(1000,597)"/>
<path d="M0 0 C3.33521416 0.99378842 6.66772424 1.99640717 10 3 C10.89589844 3.26683594 11.79179687 3.53367187 12.71484375 3.80859375 C23.37359248 7.02767894 33.92489033 10.58459558 44.46826172 14.16113281 C46.51704549 14.83997766 48.58622153 15.45707557 50.66015625 16.0546875 C51.43230469 16.36664063 52.20445312 16.67859375 53 17 C53.495 18.485 53.495 18.485 54 20 C55.98 20 57.96 20 60 20 C60 20.66 60 21.32 60 22 C58.02 22 56.04 22 54 22 C53.9071875 23.7634375 53.9071875 23.7634375 53.8125 25.5625 C53.21334193 30.31357031 51.3782813 33.6217187 48 37 C45.1875 38.4375 45.1875 38.4375 43 39 C43 39.66 43 40.32 43 41 C35.27406313 42.54518737 28.95066214 43.04402161 22 39 C16.17931329 34.11813373 13.96798749 28.63620543 11.53125 21.59765625 C9.4033077 16.59807753 6.45317958 12.34359236 3.30151367 7.93725586 C0 3.27839074 0 3.27839074 0 0 Z " fill="#838892" transform="translate(315,428)"/>
<path d="M0 0 C3.95359538 0.05036427 4.56249291 0.2773377 7.75 3 C9.86958255 6.64303251 10.49934834 9.25997239 10.75 13.4375 C11.28625 13.1075 11.8225 12.7775 12.375 12.4375 C15.3542758 11.18306808 17.54316197 11.16457761 20.75 11.4375 C21.74 12.0975 22.73 12.7575 23.75 13.4375 C24.71493157 20.31263742 22.8542511 24.91867692 18.75 30.4375 C16.28031294 33.06825361 13.61993039 35.25780603 10.75 37.4375 C10.04746094 38.02015625 9.34492187 38.6028125 8.62109375 39.203125 C3.55430507 43.08252671 -0.45237175 44.29508529 -6.8515625 43.8828125 C-9.25 43.4375 -9.25 43.4375 -11.9375 41.9375 C-13.93854674 38.1259824 -13.79485843 35.72826011 -13.25 31.4375 C-11.375 29.4375 -11.375 29.4375 -9.25 28.4375 C-8.59 28.4375 -7.93 28.4375 -7.25 28.4375 C-7.25 27.7775 -7.25 27.1175 -7.25 26.4375 C-8.1575 26.39625 -9.065 26.355 -10 26.3125 C-13.25 25.4375 -13.25 25.4375 -15.625 22.9375 C-17.65753724 18.55972749 -18.2191788 15.18137519 -17.25 10.4375 C-14.04986531 5.20091597 -10.78752568 3.46082669 -5.25 1.4375 C-3.69070032 -0.12179968 -2.16140432 0.11808997 0 0 Z " fill="#3E4B64" transform="translate(815.25,652.5625)"/>
<path d="M0 0 C1.5778125 0.18175781 1.5778125 0.18175781 3.1875 0.3671875 C4.239375 0.47289062 5.29125 0.57859375 6.375 0.6875 C9.1875 1.2421875 9.1875 1.2421875 12.1875 3.2421875 C13.63781345 10.15404169 11.65377142 16.30491071 8.1875 22.2421875 C3.90587243 28.66462886 -2.49977278 32.80461176 -9.8125 35.2421875 C-12.49173246 35.36422881 -15.13351296 35.42730406 -17.8125 35.4296875 C-18.53695312 35.44193359 -19.26140625 35.45417969 -20.0078125 35.46679688 C-23.81950298 35.47734583 -25.5661304 35.4064339 -28.8125 33.2421875 C-29.22093923 30.53015098 -28.94586867 27.9984733 -28.8125 25.2421875 C-27.760625 24.8503125 -26.70875 24.4584375 -25.625 24.0546875 C-21.85414719 22.43752818 -19.6198211 20.26005769 -16.8125 17.2421875 C-15.63170945 16.27559932 -14.44379813 15.31766372 -13.25 14.3671875 C-9.69137253 11.37207371 -7.94580677 8.35642198 -5.8125 4.2421875 C-4.09745555 1.15944937 -3.60065318 0.31005625 0 0 Z " fill="#3D4A62" transform="translate(555.8125,862.7578125)"/>
<path d="M0 0 C3.84654621 0.06748327 4.60679224 0.32644092 7.8125 2.8125 C10.68268807 7.02808872 10.58534634 11.54917695 9.75 16.4375 C8.03046881 21.33999318 5.39998692 24.15574676 0.75 26.4375 C-3.31102589 27.08553605 -7.18425767 27.05607767 -11.25 26.4375 C-14.22361086 24.22186838 -15.61959793 22.69830415 -17.25 19.4375 C-17.93374561 14.55360276 -17.79463922 11.32872781 -15.1875 7.0625 C-11.88087794 4.10764625 -9.37440055 2.94449251 -5.25 1.4375 C-3.69070032 -0.12179968 -2.16140432 0.11808997 0 0 Z " fill="#F8F7F7" transform="translate(815.25,652.5625)"/>
<path d="M0 0 C3 2.0625 3 2.0625 5 5 C5.68506065 9.18648174 5.33385918 11.33228165 3.4375 15.125 C-0.15042483 19.35691134 -3.06229964 22.47053075 -8.6875 23.484375 C-13.35567914 23.71270985 -16.89947561 23.64132818 -20.625 20.625 C-23.17412795 17.80754279 -23.88178168 16.88663741 -24.375 13.1875 C-24 10 -24 10 -22 7.3125 C-18.96642832 4.97412183 -16.47128397 3.81871457 -12.8671875 2.67578125 C-3.61069654 -0.67437134 -3.61069654 -0.67437134 0 0 Z " fill="#FBFAFA" transform="translate(540,853)"/>
<path d="M0 0 C1.01771484 0.28617188 2.03542969 0.57234375 3.08398438 0.8671875 C5.57922803 1.57007304 8.07180857 2.28118206 10.5625 3 C10.5625 3.33 10.5625 3.66 10.5625 4 C9.50933594 4.01417969 8.45617187 4.02835938 7.37109375 4.04296875 C-16.51681388 4.70102247 -36.38961401 15.59620059 -53.2121582 32.18969727 C-57.13396386 36 -57.13396386 36 -60.4375 36 C-58.79694438 31.98546391 -55.99476063 29.10758403 -53.0625 26 C-52.52866699 25.4318457 -51.99483398 24.86369141 -51.44482422 24.27832031 C-50.32928877 23.09631768 -49.21092352 21.91697977 -48.08984375 20.74023438 C-46.53637616 19.10413553 -45.00224949 17.45165662 -43.46875 15.796875 C-30.25712371 1.80665891 -19.12839305 -5.52570365 0 0 Z " fill="#D7AF98" transform="translate(878.4375,672)"/>
<path d="M0 0 C0.680625 0.763125 1.36125 1.52625 2.0625 2.3125 C5.23271598 5.21291036 8.05296493 6.39194868 12 8 C13.9375 9.5625 13.9375 9.5625 15 11 C15 11.66 15 12.32 15 13 C15.99 13.33 16.98 13.66 18 14 C15.69 14.66 13.38 15.32 11 16 C11 14.68 11 13.36 11 12 C9.741875 11.731875 8.48375 11.46375 7.1875 11.1875 C4.84890779 10.58319122 3.08382652 10.049772 1 8.8125 C-0.5854092 5.93894582 -0.18133759 3.2036307 0 0 Z " fill="#8A8B93" transform="translate(302,552)"/>
<path d="M0 0 C0.66 0.33 1.32 0.66 2 1 C-8.23 11.23 -18.46 21.46 -29 32 C-29.66 31.67 -30.32 31.34 -31 31 C-11.80903272 10.28799484 -11.80903272 10.28799484 -2.56640625 2.34765625 C-1.68751602 1.59150381 -0.81982149 0.81982149 0 0 Z " fill="#7C585D" transform="translate(698,82)"/>
<path d="M0 0 C0.0825 0.61875 0.165 1.2375 0.25 1.875 C1.24578885 4.69640174 2.36322266 4.71927958 5 6 C6.34423339 7.65788785 7.67618483 9.32576317 9 11 C10.93944702 12.75792242 12.94957083 14.36897679 15 16 C11.91617353 17.35688365 10.72524195 16.90841398 7.4375 15.8125 C2.99451936 13.46983748 1.56341313 11.69023938 0 7 C-0.03954234 4.66700175 -0.04401732 2.33291811 0 0 Z " fill="#888A93" transform="translate(281,524)"/>
<path d="M0 0 C0.25 2.3125 0.25 2.3125 0 5 C-1.5625 6.8125 -1.5625 6.8125 -4 8 C-7.75 8.1875 -7.75 8.1875 -11 8 C-11.33 6.35 -11.66 4.7 -12 3 C-4.71428571 -1.71428571 -4.71428571 -1.71428571 0 0 Z " fill="#6C454B" transform="translate(683,830)"/>
<path d="M0 0 C0.66 0 1.32 0 2 0 C0.04681226 4.53536815 -3.18785787 8.16555922 -6.27929688 11.95898438 C-9.31382151 15.7894499 -11.24638357 19.43365227 -13 24 C-13.66 23.34 -14.32 22.68 -15 22 C-15.99 22.66 -16.98 23.32 -18 24 C-16.24363556 19.8710029 -13.46503188 16.59968132 -10.6875 13.125 C-10.21376953 12.52558594 -9.74003906 11.92617188 -9.25195312 11.30859375 C-7.84333083 9.5319183 -6.42210836 7.7658876 -5 6 C-4.30704834 5.11779785 -4.30704834 5.11779785 -3.60009766 4.21777344 C-2.44533951 2.77443169 -1.22763804 1.38188516 0 0 Z " fill="#CFBEB6" transform="translate(817,708)"/>
<path d="M0 0 C0.66 0.33 1.32 0.66 2 1 C1.71572583 2.58467728 1.42225182 4.1677057 1.125 5.75 C0.96257812 6.63171875 0.80015625 7.5134375 0.6328125 8.421875 C0.03203736 10.86947744 -0.77997117 12.80599857 -2 15 C-2.66 15 -3.32 15 -4 15 C-3.40546697 4.44191344 -3.40546697 4.44191344 0 0 Z " fill="#9A9BA2" transform="translate(320,571)"/>
<path d="M0 0 C0.99 0.66 1.98 1.32 3 2 C2.39305845 5.15330554 1.3583335 7.18888867 -0.5625 9.75 C-1.24505859 10.67039062 -1.24505859 10.67039062 -1.94140625 11.609375 C-2.29074219 12.06828125 -2.64007812 12.5271875 -3 13 C-4.23593891 9.29218328 -3.5678132 8.32489747 -2.0625 4.8125 C-1.68222656 3.91144531 -1.30195312 3.01039063 -0.91015625 2.08203125 C-0.60980469 1.39496094 -0.30945313 0.70789063 0 0 Z " fill="#DBCCC6" transform="translate(792,720)"/>
<path d="M0 0 C2.0625 0.4375 2.0625 0.4375 4 1 C3.01 1 2.02 1 1 1 C0.566875 1.928125 0.566875 1.928125 0.125 2.875 C-1 5 -1 5 -3 7 C-3.40047444 9.32275177 -3.7397104 11.65739357 -4 14 C-6 12 -6 12 -6.4375 9.1875 C-5.86348785 5.00541147 -4.14699608 3.68646007 -1 1 C-0.67 0.67 -0.34 0.34 0 0 Z " fill="#C0AFB2" transform="translate(522,857)"/>
<path d="M0 0 C0.83984375 1.640625 0.83984375 1.640625 1 4 C-0.75836408 6.1302685 -2.42424794 7.8949842 -4.4375 9.75 C-4.96666016 10.25660156 -5.49582031 10.76320313 -6.04101562 11.28515625 C-7.34977101 12.53495869 -8.67351959 13.76902618 -10 15 C-10 10.8471102 -7.75930507 8.84553335 -5 6 C-3.66666667 5 -2.33333333 4 -1 3 C-0.67 2.01 -0.34 1.02 0 0 Z " fill="#76555B" transform="translate(987,621)"/>
<path d="M0 0 C4.60853797 0.72008406 8.67237409 2.31295939 13 4 C13 4.99 13 5.98 13 7 C8.1725201 5.58707905 4.2837641 3.57025846 0 1 C0 0.67 0 0.34 0 0 Z " fill="#9599A0" transform="translate(792,366)"/>
<path d="M0 0 C0.66 0.33 1.32 0.66 2 1 C-1.63 4.63 -5.26 8.26 -9 12 C-9 8.47601214 -8.44884893 7.98495633 -6.1875 5.4375 C-5.40439453 4.53837891 -5.40439453 4.53837891 -4.60546875 3.62109375 C-3 2 -3 2 0 0 Z " fill="#7B575C" transform="translate(274,917)"/>
<path d="M0 0 C0.66 0.33 1.32 0.66 2 1 C-1.3 4.3 -4.6 7.6 -8 11 C-8.33 10.34 -8.66 9.68 -9 9 C-8.06725891 7.87105124 -7.12859878 6.74699124 -6.1875 5.625 C-5.66542969 4.99851562 -5.14335938 4.37203125 -4.60546875 3.7265625 C-3 2 -3 2 0 0 Z " fill="#755257" transform="translate(798,649)"/>
<path d="M0 0 C0.66 0 1.32 0 2 0 C0.47291037 3.43595166 -1.59927045 6.11912454 -4 9 C-4.99 8.67 -5.98 8.34 -7 8 C-5.88200014 6.66079162 -4.75538103 5.32877444 -3.625 4 C-2.68527344 2.88625 -2.68527344 2.88625 -1.7265625 1.75 C-1.15679688 1.1725 -0.58703125 0.595 0 0 Z " fill="#CFB7AC" transform="translate(817,708)"/>
<path d="M0 0 C0.66 0.33 1.32 0.66 2 1 C-0.97 3.97 -3.94 6.94 -7 10 C-7 7 -7 7 -4.625 4.4375 C-3.75875 3.633125 -2.8925 2.82875 -2 2 C-1.34 1.34 -0.68 0.68 0 0 Z " fill="#78575C" transform="translate(995,598)"/>
<path d="M0 0 C0.66 0.33 1.32 0.66 2 1 C1.24266726 2.3410477 0.46867264 3.67269781 -0.3125 5 C-0.74175781 5.7425 -1.17101562 6.485 -1.61328125 7.25 C-2.07089844 7.8275 -2.52851562 8.405 -3 9 C-3.99 9 -4.98 9 -6 9 C-6 8.34 -6 7.68 -6 7 C-5.34 7 -4.68 7 -4 7 C-3.71125 6.21625 -3.4225 5.4325 -3.125 4.625 C-2 2 -2 2 0 0 Z " fill="#B28D78" transform="translate(85,504)"/>
<path d="M0 0 C2.31 0.33 4.62 0.66 7 1 C7.66 2.65 8.32 4.3 9 6 C5.88802644 4.50164236 2.91164984 2.86022073 0 1 C0 0.67 0 0.34 0 0 Z " fill="#918A89" transform="translate(894,679)"/>
<path d="M0 0 C0.0825 0.61875 0.165 1.2375 0.25 1.875 C0.79326091 4.16669871 0.79326091 4.16669871 2.9375 5.0625 C3.618125 5.371875 4.29875 5.68125 5 6 C5.99 7.485 5.99 7.485 7 9 C4.69 8.34 2.38 7.68 0 7 C0 4.69 0 2.38 0 0 Z " fill="#9C9BA1" transform="translate(281,524)"/>
<path d="M0 0 C0.99 0.33 1.98 0.66 3 1 C2.071875 1.7425 1.14375 2.485 0.1875 3.25 C-2.27126958 5.29025561 -4.21647549 7.32471323 -6 10 C-5.58578031 5.16743695 -3.53586014 3.17320782 0 0 Z " fill="#DBBAA5" transform="translate(86,501)"/>
</svg>
