<svg xmlns="http://www.w3.org/2000/svg" width="1000" height="1000"><path d="M874.766 7.281c2.478.797 4.922 1.264 7.484 1.719 4.04.757 7.065 2.157 10.75 4 1.828.441 3.662.855 5.5 1.25C905.941 16 912.313 19.435 919 23c1.372.693 2.747 1.382 4.125 2.063l1.82.917c1.633.81 3.276 1.6 4.922 2.383 5.451 2.63 10.359 5.311 15.09 9.086 2.34 1.777 4.784 3.273 7.293 4.801 6.36 3.987 12.316 8.563 17.75 13.75v2l2.223.7c3.305 1.547 4.874 3.33 7.215 6.112 2.529 2.934 4.92 5.646 8 8 2.751 2.35 3.315 3.892 4.562 7.188l1.875.938c3.166 1.583 4.73 3.9 6.125 7.062.58 3.428.553 6.808.528 10.28l.025 3.13c.023 3.462.018 6.923.012 10.385.01 2.482.023 4.964.036 7.446.028 6.042.037 12.083.035 18.124 0 4.912.005 9.823.016 14.734.033 15.446.042 30.893.033 46.34-.006 12.18.024 24.361.072 36.543.048 12.512.07 25.025.064 37.538-.002 7.023.006 14.046.041 21.069.034 6.603.03 13.206.003 19.81-.005 2.423.003 4.847.023 7.271.026 3.31.009 6.615-.02 9.924l.054 2.909c-.093 5.075-.656 7.79-4.312 11.444A2334.228 2334.228 0 01993 348a90.577 90.577 0 00-2.625 3.25c-2.352 2.723-4.334 3.925-7.375 5.75-1.807 1.915-3.38 3.917-5 6 .656 1.983.656 1.983 2 4l2.281.883c3.1 1.274 5.05 2.878 7.531 5.117l2.395 2.125C994 377 994 377 994 379l6 2v619H236c-7.49-26.215-5.39-62.543 7-87 4.043-6.028 8.456-11.648 15-15h2l.687-2.625c3.987-10.25 16.077-19.257 25.688-24.063L290 870l2.203-.809c4.865-1.64 9.29-2.373 14.422-2.629 5.833-.316 9.35-1.677 14.375-4.562h3l-1.054-2.719a49036.12 49036.12 0 01-5.593-14.433l-2.435-6.285-.749-1.93c-5.309-13.716-5.309-13.716-6.482-19.196-1.132-4.737-2.683-9.07-4.562-13.562-3.212-7.699-5.428-15.54-7.525-23.604a319.369 319.369 0 00-1.776-6.408C287.137 750.152 282.564 725.49 280 701l-.395-3.465c-.854-8.491-.696-17.011-.605-25.535l-1.43.959a3916.473 3916.473 0 01-14.206 9.468 1097.491 1097.491 0 00-6.15 4.128c-7.987 5.338-16.23 9.986-25.214 13.445l-2.708 1.072c-8.867 3.146-17.077 3.516-26.367 3.395-2.422-.03-4.842-.021-7.265-.008-11.843-.016-22.705-1.284-33.504-6.501-2.254-1.001-4.452-1.648-6.832-2.286-5.301-1.556-9.979-3.795-14.824-6.422l-2.52-1.35A136.732 136.732 0 01121 677a698.007 698.007 0 00-3.426-2.406c-8.521-5.961-16.21-12.23-23.574-19.594a321.19 321.19 0 00-3.5-3c-5.281-4.483-10.391-9.395-14.5-15v-2c-.565-.213-1.13-.425-1.71-.645-11.653-6.9-21.741-27.35-27.29-39.355a894.355 894.355 0 00-2.5-5l-1.242-2.504a223.715 223.715 0 00-2.578-4.96c-2.768-5.245-4.568-10.256-5.996-16.009-.683-2.761-.683-2.761-2.247-6.152-1.39-3.265-2.2-6.212-2.87-9.676a93.232 93.232 0 00-1.306-5.404c-2.72-10.624-2.751-21.058-2.707-31.968a745.36 745.36 0 00-.052-9.483c-.067-19.289 2.769-37.969 7.748-56.594l.899-3.392c7.985-29.15 22.552-53.718 46.663-72.42L82.66 370c10.867-8.334 22.909-14.99 36.34-18.001l3.375-1.5c8.299-3.434 16.675-3.808 25.562-3.8l3.393-.014c2.36-.005 4.72-.006 7.08-.002 3.552.003 7.104-.02 10.656-.045 18.783-.053 37.304 1.147 54.684 8.986 3.26 1.519 3.26 1.519 7.027 2.063 6.33 1.367 12.1 4.114 17.977 6.76 2.103.947 4.21 1.883 6.318 2.816 2.9 1.285 5.8 2.572 8.699 3.861a1768.295 1768.295 0 0018.916 8.25l3.449 1.483a512.163 512.163 0 0024.56 9.733l2.402.886 2.078.752C317 393 317 393 320 395c1.84.51 3.698.962 5.562 1.375 3.878.927 7.514 1.953 11.188 3.5 4.481 1.868 9.015 3.483 13.625 5l2.093.726c3.884 1.252 3.884 1.252 7.844.727 1.733-1.363 2.993-2.69 4.313-4.453L367 399h2l.555-2.078c2.05-4.144 5.14-6.637 8.57-9.672 5.085-4.602 9.79-9.262 14.238-14.492 2.24-2.406 4.875-4 7.637-5.758l1.863-2.352c2.17-2.69 4.369-4.633 7.074-6.773a518.42 518.42 0 0014.295-11.893c4.12-3.518 8.414-6.76 12.768-9.982l4.445-3.332c9.312-6.94 18.712-13.506 28.555-19.668a393.846 393.846 0 0013.512-9.207c5.718-4.005 11.601-7.705 17.55-11.356l3.402-2.09C515.117 283.225 527.012 276.544 539 270l2.284-1.249c8.823-4.809 17.782-9.335 26.786-13.794 3.022-1.499 6.038-3.01 9.055-4.52l3.437-1.707a349.806 349.806 0 007-3.617C595.548 240.91 603.795 237 613 237l-.058-1.781c-.2-6.248-.374-12.496-.534-18.745-.063-2.317-.131-4.633-.207-6.95-.917-28.361 1.81-55.21 14.875-80.71.829-1.627 1.621-3.272 2.408-4.92 2.137-4.464 4.403-8.027 7.516-11.894a251.1 251.1 0 003.25-5.25C644.947 99.272 650.782 93.218 657 87c1.044-1.248 2.085-2.499 3.125-3.75 3.671-4.268 7.881-7.637 12.324-11.074 2.58-2.2 4.45-4.527 6.551-7.176a107.726 107.726 0 015-4.25l2.563-2.078C689 57 689 57 691.188 56.516L693 56c.69-1.321 1.354-2.657 2-4 2.031-1.676 2.031-1.676 4.5-3.313l2.746-1.843L705 45c1.522-1.103 3.043-2.207 4.563-3.313 21.177-14.745 45.885-27.27 71.378-32.074 2.78-.557 5.369-1.29 8.059-2.176 10.184-3.14 20.47-3.667 31.047-3.451 47.773.9 47.773.9 54.719 3.295z" fill="#CDCDCE"/><path d="M874.766 7.281c2.478.797 4.922 1.264 7.484 1.719 4.04.757 7.065 2.157 10.75 4 1.828.441 3.662.855 5.5 1.25C905.941 16 912.313 19.435 919 23c1.372.693 2.747 1.382 4.125 2.063l1.82.917c1.633.81 3.276 1.6 4.922 2.383 5.451 2.63 10.359 5.311 15.09 9.086 2.34 1.777 4.784 3.273 7.293 4.801 6.36 3.987 12.316 8.563 17.75 13.75v2l2.223.7c3.305 1.547 4.874 3.33 7.215 6.112 2.529 2.934 4.92 5.646 8 8 2.751 2.35 3.315 3.892 4.562 7.188l1.875.938c3.248 1.624 4.355 3.94 6.125 7.062.481 3.151.481 3.151.454 6.556v3.882l-.063 4.148c-.008 1.426-.014 2.853-.018 4.279a1438.16 1438.16 0 01-.098 11.215c-.041 3.82-.06 7.642-.08 11.463-.042 7.486-.11 14.971-.195 22.457-2.63-2.63-3.615-5.68-5-9.063-7.873-18.505-19.193-34.386-33-48.937l-2.738-2.898C952.074 83.632 944.368 77.11 936 71l-1.712-1.256C911.298 53.104 884.182 41.089 856 37l-3.239-.515C808.115 30.725 761.001 44.355 725 71l-3.145 2.324c-28.838 21.642-58.959 48.066-70.668 83.176l-.843 2.456c-5.477 17.602-5.793 36.162-5.625 54.426.031 3.472.04 6.944.047 10.417l.03 6.72.014 3.097c.052 5.226.3 10.335.969 15.52.294 2.482.319 4.929.283 7.427l-.027 2.566L646 261c-4.866 3.059-8.61 4.576-14.375 5.438-75.2 12.944-163.454 75.623-215.852 129.789-1.766 1.766-3.608 3.358-5.523 4.96C396.86 412.8 377.92 431.938 375 450h-6l-.188 3.563c-.599 4.75-2.434 8.059-5.812 11.437-2.813 1.438-2.813 1.438-5 2v2c-7.726 1.545-14.05 2.044-21-2-5.822-4.883-8.028-10.366-10.473-17.402-2.4-5.656-5.896-10.474-9.418-15.48C315 431 315 431 314 428c-1.996-1.05-1.996-1.05-4.512-1.805l-2.938-.997-3.238-1.073a383.59 383.59 0 01-29-11.375l-1.887-.826a2953.928 2953.928 0 01-17.294-7.647C232.025 393.987 209.207 384.634 184 381l-2.142-.31c-6.567-.842-13.12-.874-19.733-.877l-3.355-.038c-7.155-.012-13.788.687-20.77 2.225-1.895.39-1.895.39-3.828.79-21.843 5.335-41.202 19.674-53.559 38.519C73.574 433.05 69.534 444.857 66 458l-.614 2.263C64.163 464.82 62.978 469.383 62 474l-.54 2.394c-1.835 9.252-1.832 18.499-1.83 27.894-.005 2.81-.041 5.62-.08 8.43-.07 11.945 1.315 22.757 4.45 34.282h1l.516-2.457C68.176 532.387 71.722 521.273 79 511h2l.719-2.227C87.544 496.163 105.596 487.811 118 483c26.914-9.679 54.853-12.546 82.625-4.688l2.027.572c6.04 1.815 11.652 4.43 17.348 7.116l2.773 1.288c14.011 6.525 27.517 13.554 40.809 21.423l2.329 1.377c1.476.875 2.95 1.754 4.42 2.639 3.489 2.08 6.853 3.843 10.669 5.273l1 1a168.464 168.464 0 01-.125 5.688c-.017 4.876-.02 8.356 3.125 12.312 4.626 2.683 8.682 3.386 13.984 3.691C301 541 301 541 304 543c.293 2.82.293 2.82.188 6.125l-.083 3.32L304 555l2.082.988 2.73 1.324 2.708 1.301c2.288 1.28 3.841 2.356 5.48 4.387v2l4 1c.688 2.313.688 2.313 1 5-1.313 1.438-1.313 1.438-3 3-1.857 4.662-2.619 9.353-3.254 14.3l-.32 2.409a1475.01 1475.01 0 00-.658 5.045 1358.21 1358.21 0 01-1 7.537c-2.41 18.19-2.955 36.14-2.953 54.482-.002 3.457-.02 6.914-.04 10.372-.185 71.857 23.86 144.01 55.725 207.78a195.287 195.287 0 013.809 8.333c2.746 6.973 2.746 6.973 7.902 12.043 2.425.68 2.425.68 4.996 1.058 12.725 2.92 25.401 16.067 35.464 23.847 2.84 2.188 5.704 4.34 8.579 6.481 6.946 5.193 13.826 10.47 20.708 15.748a2978.24 2978.24 0 005.632 4.303c30.757 23.484 30.757 23.484 37.355 41.645 1.465 3.635 3.302 7.111 5.055 10.617H236c-7.49-26.215-5.39-62.543 7-87 4.043-6.028 8.456-11.648 15-15h2l.688-2.625c3.986-10.25 16.076-19.257 25.687-24.063L290 870l2.203-.809c4.865-1.64 9.29-2.373 14.422-2.629 5.833-.316 9.35-1.677 14.375-4.562h3l-1.054-2.719a49036.12 49036.12 0 01-5.593-14.433l-2.435-6.285-.749-1.93c-5.309-13.716-5.309-13.716-6.481-19.196-1.133-4.737-2.684-9.07-4.563-13.562-3.212-7.699-5.428-15.54-7.525-23.604a319.369 319.369 0 00-1.776-6.408C287.137 750.152 282.564 725.49 280 701l-.395-3.465c-.854-8.491-.696-17.011-.605-25.535l-1.43.959a3916.473 3916.473 0 01-14.206 9.468 1097.491 1097.491 0 00-6.15 4.128c-7.987 5.338-16.23 9.986-25.214 13.445l-2.708 1.072c-8.867 3.146-17.077 3.516-26.367 3.395-2.422-.03-4.842-.021-7.265-.008-11.843-.016-22.705-1.284-33.504-6.501-2.254-1.001-4.452-1.648-6.832-2.286-5.301-1.556-9.979-3.795-14.824-6.422l-2.52-1.35A136.732 136.732 0 01121 677a698.007 698.007 0 00-3.426-2.406c-8.521-5.961-16.21-12.23-23.574-19.594a321.19 321.19 0 00-3.5-3c-5.281-4.483-10.391-9.395-14.5-15v-2c-.565-.213-1.13-.425-1.71-.645-11.653-6.9-21.741-27.35-27.29-39.355a894.355 894.355 0 00-2.5-5l-1.242-2.504a223.715 223.715 0 00-2.578-4.96c-2.768-5.245-4.568-10.256-5.996-16.009-.683-2.761-.683-2.761-2.246-6.152-1.391-3.265-2.2-6.212-2.872-9.676a93.232 93.232 0 00-1.305-5.404c-2.72-10.624-2.751-21.058-2.707-31.968a745.36 745.36 0 00-.052-9.483c-.067-19.289 2.769-37.969 7.748-56.594l.899-3.392c7.985-29.15 22.552-53.718 46.663-72.42L82.66 370c10.867-8.334 22.909-14.99 36.34-18.001l3.375-1.5c8.299-3.434 16.675-3.808 25.563-3.8l3.392-.014c2.36-.005 4.72-.006 7.08-.002 3.552.003 7.104-.02 10.656-.045 18.783-.053 37.304 1.147 54.684 8.986 3.26 1.519 3.26 1.519 7.027 2.063 6.33 1.367 12.1 4.114 17.977 6.76 2.103.947 4.21 1.883 6.318 2.816 2.9 1.285 5.8 2.572 8.699 3.861a1768.295 1768.295 0 0018.916 8.25l3.449 1.483a512.163 512.163 0 0024.56 9.733l2.402.886 2.078.752C317 393 317 393 320 395c1.84.51 3.698.962 5.563 1.375 3.877.927 7.513 1.953 11.187 3.5 4.481 1.868 9.015 3.483 13.625 5l2.093.726c3.884 1.252 3.884 1.252 7.844.727 1.733-1.363 2.993-2.69 4.313-4.453L367 399h2l.555-2.078c2.05-4.144 5.14-6.637 8.57-9.672 5.085-4.602 9.79-9.262 14.238-14.492 2.24-2.406 4.875-4 7.637-5.758l1.863-2.352c2.17-2.69 4.369-4.633 7.075-6.773a518.42 518.42 0 0014.294-11.893c4.12-3.518 8.414-6.76 12.768-9.982l4.445-3.332c9.312-6.94 18.712-13.506 28.555-19.668a393.846 393.846 0 0013.512-9.207c5.718-4.005 11.601-7.705 17.55-11.356l3.402-2.09C515.117 283.225 527.012 276.544 539 270l2.284-1.249c8.823-4.809 17.782-9.335 26.786-13.794 3.022-1.499 6.038-3.01 9.055-4.52l3.438-1.707a349.806 349.806 0 007-3.617C595.548 240.91 603.794 237 613 237l-.058-1.781c-.2-6.248-.374-12.496-.534-18.745-.063-2.317-.131-4.633-.207-6.95-.917-28.361 1.81-55.21 14.875-80.71.829-1.627 1.621-3.272 2.408-4.92 2.137-4.464 4.403-8.027 7.516-11.894a251.1 251.1 0 003.25-5.25C644.947 99.272 650.782 93.218 657 87c1.044-1.248 2.085-2.499 3.125-3.75 3.671-4.268 7.881-7.637 12.324-11.074 2.58-2.2 4.45-4.527 6.551-7.176a107.726 107.726 0 015-4.25l2.563-2.078C689 57 689 57 691.188 56.516L693 56c.69-1.321 1.354-2.657 2-4 2.031-1.676 2.031-1.676 4.5-3.313l2.746-1.843L705 45c1.522-1.103 3.043-2.207 4.563-3.313 21.177-14.745 45.885-27.27 71.378-32.074 2.78-.557 5.369-1.29 8.059-2.176 10.184-3.14 20.47-3.667 31.047-3.451 47.773.9 47.773.9 54.719 3.295z" fill="#6B4349"/><path d="M899.037 149.664c3.258.023 6.515.02 9.774.014 10.3.014 20.288.38 30.48 1.86 5.95.74 11.892.787 17.88.868 33.298.498 33.298.498 42.829 5.594.164 23.74.287 47.478.363 71.218.036 11.023.085 22.045.165 33.068.07 9.607.115 19.215.13 28.822.01 5.088.031 10.174.082 15.261.048 4.79.062 9.578.052 14.368.002 1.756.016 3.513.042 5.269.194 13.288.194 13.288-2.354 17.516-1.735 1.743-3.47 3.073-5.48 4.478a66.12 66.12 0 00-2.625 3.25c-2.352 2.723-4.334 3.925-7.375 5.75-1.807 1.915-3.38 3.917-5 6 .656 1.983.656 1.983 2 4l2.281.883c3.1 1.274 5.05 2.878 7.532 5.117l2.394 2.125C994 377 994 377 994 379l6 2v63c-4.368-1.456-7.511-2.692-11.395-4.906-14.79-8.282-29.632-15.337-45.605-21.094l-3.438-1.296c-9.779-3.519-19.328-5.073-29.624-6.267-25.061-2.955-25.061-2.955-34.132-7.548-2.723-1.34-5.294-1.098-8.306-1.139-10.02-.605-18.264-4.482-25.031-11.945C836 381.856 836 381.856 836 379l-2.64.105c-16.125.367-32.767-4.291-45.36-14.855-9.57-9.476-17.018-19.428-17.363-33.12-.05-10.785 1.009-21.442 2.363-32.13l-2.336.07-3.039.055-3.023.07C762 299 762 299 760 297c-1.233-13.197.397-24.663 5-37l.845-2.342c6.87-18.882 15.774-36.786 28.155-52.658l2.133-2.805C813.816 179.683 837.335 161.273 865 153l2.527-.818c10.37-2.913 20.818-2.6 31.51-2.518z" fill="#9B7A69"/><path d="M874.766 7.281c2.478.797 4.922 1.264 7.484 1.719 4.04.757 7.065 2.157 10.75 4 1.828.441 3.662.855 5.5 1.25C905.941 16 912.313 19.435 919 23c1.372.693 2.747 1.382 4.125 2.063l1.82.917c1.633.81 3.276 1.6 4.922 2.383 5.451 2.63 10.359 5.311 15.09 9.086 2.34 1.777 4.784 3.273 7.293 4.801 6.36 3.987 12.316 8.563 17.75 13.75v2l2.223.7c3.305 1.547 4.874 3.33 7.215 6.112 2.529 2.934 4.92 5.646 8 8 2.751 2.35 3.315 3.892 4.562 7.188l1.875.938c3.182 1.59 4.758 3.866 6.125 7.062.538 3.63.466 7.204.39 10.867l-.017 3.136c-.022 3.291-.072 6.581-.123 9.872-.02 2.237-.038 4.474-.055 6.71-.044 5.473-.11 10.944-.195 16.415-2.276-2.945-4.1-5.94-5.853-9.227C986.138 110.838 975.74 98.143 964 86l-2.04-2.195C955.93 77.465 948.97 72.252 942 67l-1.744-1.322C923.38 52.968 904.963 43.848 885 37l-2.04-.766C874.896 33.307 866.384 31.748 858 30l-2.28-.542c-3.452-.581-6.854-.639-10.345-.661l-2.228-.022c-64.415-.476-114.522 25.248-160.75 68.907a521.18 521.18 0 01-3.604 3.361c-6.323 6.04-11.54 12.994-16.793 19.957l-1.977 2.598c-19.867 27.17-23.42 59.306-23.284 92.037.011 3.06 0 6.12-.012 9.18-.007 11.226.498 22.089 2.273 33.185l-2.285.332c-14.66 2.196-28.16 4.56-41.36 11.448-2.65 1.372-5.327 2.678-8.011 3.982C552.014 291.012 517.373 310.664 485 333l-2.087 1.43C465.739 346.205 448.903 358.542 433 372l-1.593 1.34c-33.72 28.32-33.72 28.32-59.407 63.66-9.123-.294-17.017-3.135-25.535-6.141a583.154 583.154 0 00-8.215-2.777 1758.702 1758.702 0 01-19.375-6.582l-3.34-1.145A381.002 381.002 0 01296 413c-1.408-.552-2.817-1.102-4.227-1.648-10.604-4.15-21.045-8.63-31.46-13.227-9.965-4.394-19.952-8.7-30.063-12.75l-2.932-1.18c-9.625-3.811-19.31-7.211-29.443-9.382l-2.184-.499c-10.315-2.262-20.626-2.527-31.148-2.554-2.21-.01-4.418-.041-6.627-.072-26.785-.202-49.225 9.408-68.916 27.312l-2.504 2.25C64.681 421.889 57.923 451.482 53 480l-.402 2.223c-7.376 41.682 4.12 84.914 28.152 119.34C94.003 620.072 109.67 636.484 128 650l1.713 1.292C153.583 669.28 180.497 681.86 211 679c4.648-.794 8.684-2.117 13-4l1.82-.781c10.687-4.681 19.908-11.013 29.305-17.86 8.227-5.962 16.259-10.064 25.875-13.359l3.438-1.313c5.724-1.104 14.208-2.364 19.562.313l.011 1.672c.036 36.177.036 36.177 4.372 72.016.67 3.595 1.268 7.197 1.863 10.804 5.666 33.266 14.296 67.56 27.533 98.639 1.131 2.657 2.22 5.327 3.291 8.01 7.154 17.827 14.927 35.393 23.785 52.445C366 888 366 888 366 890c-6-2-6-2-7.963-2.757-5.795-2.148-10.946-2.732-17.1-2.68l-2.564-.061c-5.865.004-10.516 1.079-15.373 4.498l-1 2c-2.265.21-4.539.315-6.813.375-11.284.57-19.717 3.136-27.996 11.176-2.668 2.982-4.88 6.076-6.937 9.504-2.609 4.047-6.17 6.33-10.121 8.957-5.275 4.917-8.008 11.085-9.445 18.05l-.497 2.395c-3.412 19.015-1.705 39.527.809 58.543h-25c-7.49-26.215-5.39-62.543 7-87 4.043-6.028 8.456-11.648 15-15h2l.688-2.625c3.986-10.25 16.076-19.257 25.687-24.063L290 870l2.203-.809c4.865-1.64 9.29-2.373 14.422-2.629 5.833-.316 9.35-1.677 14.375-4.562h3l-1.054-2.719a49036.12 49036.12 0 01-5.593-14.433l-2.435-6.285-.749-1.93c-5.309-13.716-5.309-13.716-6.481-19.196-1.133-4.737-2.684-9.07-4.563-13.562-3.212-7.699-5.428-15.54-7.525-23.604a319.369 319.369 0 00-1.776-6.408C287.137 750.152 282.564 725.49 280 701l-.395-3.465c-.854-8.491-.696-17.011-.605-25.535l-1.43.959a3916.473 3916.473 0 01-14.206 9.468 1097.491 1097.491 0 00-6.15 4.128c-7.987 5.338-16.23 9.986-25.214 13.445l-2.708 1.072c-8.867 3.146-17.077 3.516-26.367 3.395-2.422-.03-4.842-.021-7.265-.008-11.843-.016-22.705-1.284-33.504-6.501-2.254-1.001-4.452-1.648-6.832-2.286-5.301-1.556-9.979-3.795-14.824-6.422l-2.52-1.35A136.732 136.732 0 01121 677a698.007 698.007 0 00-3.426-2.406c-8.521-5.961-16.21-12.23-23.574-19.594a321.19 321.19 0 00-3.5-3c-5.281-4.483-10.391-9.395-14.5-15v-2c-.565-.213-1.13-.425-1.71-.645-11.653-6.9-21.741-27.35-27.29-39.355a894.355 894.355 0 00-2.5-5l-1.242-2.504a223.715 223.715 0 00-2.578-4.96c-2.768-5.245-4.568-10.256-5.996-16.009-.683-2.761-.683-2.761-2.246-6.152-1.391-3.265-2.2-6.212-2.872-9.676a93.232 93.232 0 00-1.305-5.404c-2.72-10.624-2.751-21.058-2.707-31.968a745.36 745.36 0 00-.052-9.483c-.067-19.289 2.769-37.969 7.748-56.594l.899-3.392c7.985-29.15 22.552-53.718 46.663-72.42L82.66 370c10.867-8.334 22.909-14.99 36.34-18.001l3.375-1.5c8.299-3.434 16.675-3.808 25.563-3.8l3.392-.014c2.36-.005 4.72-.006 7.08-.002 3.552.003 7.104-.02 10.656-.045 18.783-.053 37.304 1.147 54.684 8.986 3.26 1.519 3.26 1.519 7.027 2.063 6.33 1.367 12.1 4.114 17.977 6.76 2.103.947 4.21 1.883 6.318 2.816 2.9 1.285 5.8 2.572 8.699 3.861a1768.295 1768.295 0 0018.916 8.25l3.449 1.483a512.163 512.163 0 0024.56 9.733l2.402.886 2.078.752C317 393 317 393 320 395c1.84.51 3.698.962 5.563 1.375 3.877.927 7.513 1.953 11.187 3.5 4.481 1.868 9.015 3.483 13.625 5l2.093.726c3.884 1.252 3.884 1.252 7.844.727 1.733-1.363 2.993-2.69 4.313-4.453L367 399h2l.555-2.078c2.05-4.144 5.14-6.637 8.57-9.672 5.085-4.602 9.79-9.262 14.238-14.492 2.24-2.406 4.875-4 7.637-5.758l1.863-2.352c2.17-2.69 4.369-4.633 7.075-6.773a518.42 518.42 0 0014.294-11.893c4.12-3.518 8.414-6.76 12.768-9.982l4.445-3.332c9.312-6.94 18.712-13.506 28.555-19.668a393.846 393.846 0 0013.512-9.207c5.718-4.005 11.601-7.705 17.55-11.356l3.402-2.09C515.117 283.225 527.012 276.544 539 270l2.284-1.249c8.823-4.809 17.782-9.335 26.786-13.794 3.022-1.499 6.038-3.01 9.055-4.52l3.438-1.707a349.806 349.806 0 007-3.617C595.548 240.91 603.794 237 613 237l-.058-1.781c-.2-6.248-.374-12.496-.534-18.745-.063-2.317-.131-4.633-.207-6.95-.917-28.361 1.81-55.21 14.875-80.71.829-1.627 1.621-3.272 2.408-4.92 2.137-4.464 4.403-8.027 7.516-11.894a251.1 251.1 0 003.25-5.25C644.947 99.272 650.782 93.218 657 87c1.044-1.248 2.085-2.499 3.125-3.75 3.671-4.268 7.881-7.637 12.324-11.074 2.58-2.2 4.45-4.527 6.551-7.176a107.726 107.726 0 015-4.25l2.563-2.078C689 57 689 57 691.188 56.516L693 56c.69-1.321 1.354-2.657 2-4 2.031-1.676 2.031-1.676 4.5-3.313l2.746-1.843L705 45c1.522-1.103 3.043-2.207 4.563-3.313 21.177-14.745 45.885-27.27 71.378-32.074 2.78-.557 5.369-1.29 8.059-2.176 10.184-3.14 20.47-3.667 31.047-3.451 47.773.9 47.773.9 54.719 3.295z" fill="#FEFEFE"/><path d="M200.625 478.313l2.027.57c6.04 1.816 11.652 4.43 17.348 7.117l2.773 1.288c14.011 6.525 27.517 13.554 40.809 21.423l2.329 1.377c1.476.875 2.95 1.754 4.42 2.639 3.489 2.08 6.853 3.843 10.669 5.273l1 1a168.464 168.464 0 01-.125 5.688c-.017 4.876-.02 8.356 3.125 12.312 4.626 2.683 8.682 3.386 13.984 3.691C301 541 301 541 304 543c.293 2.82.293 2.82.188 6.125l-.083 3.32L304 555l2.082.988 2.73 1.324 2.708 1.301c2.288 1.28 3.841 2.356 5.48 4.387v2l3 1-2.75.375c-4.35 2.175-4.733 4.351-6.375 8.762-1.422 4.652-1.961 9.285-2.438 14.113l-.348 3.187c-.38 3.52-.736 7.04-1.089 10.563l-.419 4.084A4326.285 4326.285 0 00304 633l-2.902.043c-24.553.703-42.187 12.509-62.34 25.273-18.553 11.72-35 15.66-57.102 12.09C166.723 666.9 152.296 659.025 140 650l-2.902-2.078C108.82 627.262 86.098 601.739 71 570l-1.134-2.33c-5.052-10.666-6.997-18.485-3.241-29.87.457-1.267.916-2.533 1.375-3.8l.938-3.082C71.213 523.815 74.688 517.086 79 511h2l.719-2.227C87.544 496.163 105.596 487.811 118 483c26.914-9.679 54.853-12.546 82.625-4.688z" fill="#9B7A69"/><path d="M843 647c1.25.686 1.25.686 2.523 1.387 4.156 2.52 6.762 4.805 9.352 8.926 1.865 2.782 2.641 3.561 5.938 4.417 2.753.243 5.425.349 8.187.27.625 2.375.625 2.375 1 5l-2 2 1.737.487c29.39 8.264 29.39 8.264 34.263 11.513 2.055.391 2.055.391 4.324.492l2.594.19 2.77.193c17.627 1.491 36.997 5.218 49.312 19.125 14.364 17.206 16.9 34.498 15.248 56.386-.46 4.857-1.256 9.65-2.093 14.454-1.003 5.834-1.597 11.638-2.092 17.535-1.072 11.91-4.282 22.13-10.063 32.625h-2l-.746 2.668c-5.114 13.589-20.125 25.494-32.871 31.582-17.589 7.098-35.742 5.167-53.383-.25l-2.59-.754c-4.886-1.503-9.332-3.589-13.855-5.965a101.041 101.041 0 00-5.934-2.71C842.042 841.982 833.088 836.224 825 828l-2.402-2.441C810 812.164 810 812.164 810 806h-2l-.988-2.816-1.324-3.746-1.301-3.692c-1.32-3.73-1.32-3.73-2.98-7.137-1.679-4.306-2.194-8.221-2.595-12.797l-.241-2.543c-.577-6.442-.847-12.803-.571-19.269l.09-3.3c.338-7.146 1.57-12.415 4.91-18.7l1.059-2.387c2.811-6.196 6.535-11.106 10.953-16.265 2.092-2.38 2.092-2.38 3.988-5.348-11.868 11.598-24.375 26.148-30 42l-5-1c-.53-6.722.712-10.221 4.438-15.75 3.622-5.259 3.622-5.259 5.562-11.25-1.254-2.851-2.797-5.456-4.36-8.148-4.712-9.805-5.155-21.084-5.086-31.768a313.24 313.24 0 00-.052-6.133c.003-7.19.064-12.166 4.498-17.951l1.281-1.969C802.87 640.215 825.991 637.492 843 647z" fill="#98969B"/><path d="M947 153c42.08-.854 42.08-.854 53 5 .164 23.74.287 47.478.363 71.218.036 11.023.085 22.045.165 33.068.07 9.607.115 19.215.13 28.822.01 5.088.031 10.174.082 15.261.048 4.79.062 9.578.052 14.368.002 1.756.016 3.513.042 5.269.194 13.288.194 13.288-2.354 17.516-1.735 1.743-3.47 3.073-5.48 4.478a66.12 66.12 0 00-2.625 3.25c-2.352 2.723-4.334 3.925-7.375 5.75-1.807 1.915-3.38 3.917-5 6 .656 1.983.656 1.983 2 4l2.281.883c3.1 1.274 5.05 2.878 7.531 5.117l2.395 2.125C994 377 994 377 994 379l6 2v63c-4.368-1.456-7.511-2.692-11.395-4.906-14.79-8.282-29.632-15.337-45.605-21.094l-3.438-1.296c-9.779-3.519-19.328-5.073-29.625-6.267-25.06-2.955-25.06-2.955-34.13-7.548-2.724-1.34-5.295-1.098-8.307-1.139-10.02-.605-18.264-4.482-25.031-11.945C836 381.856 836 381.856 836 379l-2.64.105c-16.125.367-32.767-4.291-45.36-14.855-9.593-9.5-17.02-19.45-17.363-33.17-.048-10.446.964-20.74 2.363-31.08 5.74 1.651 7.565 3.29 11 8 1.148 2.297 1.116 3.583 1.098 6.133l-.01 2.441-.025 2.551-.014 2.574c-.012 2.1-.03 4.2-.049 6.301l-4 2v5l2.375.75C786 337 786 337 787.313 338.813c.827 2.633 1.109 4.446.687 7.187a71.492 71.492 0 01-4 3l-1 4h9l.156 2.484c.435 6.026.435 6.026 3.336 11.063 2.123 1.074 4.244 1.72 6.508 2.453l2.58 1.006c7.98 2.994 15.07 3.574 23.545 3.432l3.629.021c10.625-.076 19.073-2.293 28.246-7.584l2.08-1.185c6.01-3.535 10.947-7.816 15.92-12.69a383.071 383.071 0 014-3.438c6.849-5.977 13.192-12.473 19.098-19.378 1.909-2.192 3.872-4.328 5.85-6.457 17.358-18.719 30.65-38.757 41.24-61.914.595-1.29 1.19-2.578 1.787-3.866 1.15-2.49 2.296-4.981 3.437-7.476a1458.85 1458.85 0 013.055-6.636c2.094-4.537 4.07-8.985 5.533-13.773a109.828 109.828 0 014.375-11.5c7.187-17.106 11.835-34.26 6.625-52.562-1.95-4.085-4.299-6.41-8-9-3.56-1.187-6.973-1.351-10.688-1.563l-2.126-.13c-1.729-.106-3.457-.207-5.186-.307v-1z" fill="#838892"/><path d="M951.438 866.5l2.787.023c6.509.167 12.109 1.056 17.775 4.477v2l2.063.625c9.074 4.248 14.018 12.313 17.687 21.375 2.877 8.719 3.58 17.168 3.5 26.313l-.02 3.357c-.097 7.619-.588 14.875-2.23 22.33l-.672 3.707c-3.39 17.46-11.43 33.496-19.328 49.293H757l1-5h2l.188-2.125c1.12-3.964 2.973-5.897 5.812-8.875h2v-2c8.131-7.702 20.261-9.779 30.75-12.5 10.407-2.784 20.182-7.755 29.875-12.375l3.195-1.488c8.894-4.238 16.928-9.226 24.117-16.012A287.245 287.245 0 01867 929.937l2.75-2.285C872 926 872 926 874 926v-2c1.407-1.248 2.879-2.423 4.375-3.563 9.22-7.04 17.496-15.142 25.669-23.35 1.479-1.485 2.963-2.964 4.448-4.442a5863.252 5863.252 0 005.42-5.428c2.218-2.232 2.218-2.232 4.088-5.217h2l1-3c2.188-1.902 2.188-1.902 5-3.938l2.75-2.027c7.587-4.75 13.708-6.718 22.688-6.535z" fill="#9EA5B1"/><path d="M353.813 892.625c5.94 2.029 11.694 4.882 16.187 9.375 1.478.08 2.958.139 4.438.188 6.373.628 10.38 3.198 15.562 6.812l1.792 1.232c16.1 11.08 31.77 22.788 47.208 34.768 1.11.852 2.22 1.704 3.332 2.555 6.62 5.069 13.201 10.18 19.668 15.445l1.926 1.547c7.792 6.427 13.425 13.676 17.699 22.828.425.895.85 1.79 1.29 2.71C484 993 484 993 485 1000H268c-3.538-22.405-3.538-22.405-3.438-34.063l.028-3.889c.455-25.078.455-25.078 8.285-34.423 2.323-2.233 4.426-3.81 7.188-5.5 3.163-2.288 4.32-4.123 6.312-7.438 4.185-6.889 9.219-12.586 17.098-15.222 3.473-.639 6.944-.671 10.464-.778 7.219-.218 11.605-2.001 17.063-6.687 6.459-3.23 16.169-1.263 22.813.625z" fill="#848892"/><path d="M78 513c1.467 2.933.402 4.666-.438 7.813C74.772 533.336 73.296 548.588 80 560c.692 1.302 1.382 2.606 2.07 3.91 14.403 26.52 38.347 43.326 67.03 51.9 23.132 6.767 45.634 9.489 69.713 9.44l2.48-.003c2.346-.006 4.692-.022 7.039-.044l2.124-.013A52.913 52.913 0 00241 624c16.104-1.343 30.511-1.68 44 8l2 2-2.55.531c-9.863 2.54-18.122 6.842-26.825 12.094l-1.77 1.068a1010.179 1010.179 0 00-17.101 10.623c-18.547 11.725-35 15.658-57.098 12.09C166.723 666.9 152.296 659.025 140 650l-2.902-2.078C108.82 627.262 86.098 601.739 71 570l-1.134-2.33c-5.05-10.662-6.996-18.48-3.245-29.861.458-1.27.918-2.54 1.379-3.809l.973-3.152C71.08 524.343 74.28 518.715 78 513z" fill="#838791"/><path d="M353.813 892.625c5.94 2.029 11.694 4.882 16.187 9.375 1.478.08 2.958.139 4.438.188 6.373.628 10.38 3.198 15.562 6.812l1.792 1.232c16.1 11.08 31.77 22.788 47.208 34.768 1.11.852 2.22 1.704 3.332 2.555 6.62 5.069 13.201 10.18 19.668 15.445l1.926 1.547c7.792 6.427 13.425 13.676 17.699 22.828.425.895.85 1.79 1.29 2.71C484 993 484 993 485 1000h-68v-6h2c.147-4.25.235-8.499.313-12.75l.126-3.598c.12-8.703-1.698-14.864-5.439-22.652a101.104 101.104 0 01-1.313-4.063C409.89 943.313 404.363 936.87 398 932l-2.188-2.375c-3.314-3.094-6.848-5.106-10.8-7.293L383 921v-2l-1.563-.313C379 918 379 918 376.188 916.563c-11.995-5.144-27.433-4.123-40.265-4.479a565.041 565.041 0 01-5.598-.186c-15.208-.582-23.672 2.076-35.324 12.103l-2.594 1.973c-2.387 2.011-3.906 3.854-5.594 6.465l-1.48 2.246c-1.366 2.376-2.377 4.75-3.332 7.316h-2c-2.597 8.78-3.301 17.078-3.313 26.188l-.015 3.019c.063 6.784.905 13.166 2.328 19.793l.573 2.673c.464 2.112.943 4.22 1.427 6.327h-13c-4.326-20.448-8.856-51.209 2.836-69.941 2.794-3.335 5.52-5.664 9.226-7.934 3.164-2.288 4.32-4.123 6.313-7.437 4.185-6.89 9.219-12.587 17.098-15.223 3.473-.639 6.944-.671 10.464-.777 7.219-.219 11.605-2.002 17.063-6.688 6.459-3.23 16.169-1.263 22.813.625z" fill="#C6C6C7"/><path d="M574 852c5.66 5.271 9.084 11.702 10.402 19.328-.603 4.007-3.117 6.3-5.777 9.172a1469.565 1469.565 0 00-3.34 3.781l-1.69 1.907c-9.417 10.705-16.406 22.547-23.447 34.885C549 923 549 923 548 924c-5.82.739-9.103.38-14-2.938-10.507-8.152-23.715-21.204-26-35.062-.981-10.591-.473-23.059 5.473-32.285 17.246-18.55 41.005-14.158 60.527-1.715z" fill="#673D43"/><path d="M843 647c1.25.686 1.25.686 2.523 1.387 4.156 2.52 6.762 4.805 9.352 8.926 1.865 2.782 2.641 3.561 5.938 4.417 2.753.243 5.425.349 8.187.27.625 2.375.625 2.375 1 5-2.375 2.375-3.196 2.288-6.438 2.688-10.785 2.017-18.906 9.92-26.562 17.312l-1.458 1.396c-7.07 6.795-13.49 13.872-19.542 21.604-.894 1.127-1.788 2.253-2.684 3.379-2.794 3.523-5.56 7.068-8.316 10.621l-1.284 1.647c-5.911 7.607-11.468 15.2-14.716 24.353l-5-1c-.53-6.722.712-10.221 4.438-15.75 3.622-5.259 3.622-5.259 5.562-11.25-1.254-2.851-2.797-5.456-4.36-8.148-4.712-9.805-5.155-21.084-5.086-31.768a313.24 313.24 0 00-.052-6.133c.003-7.19.064-12.166 4.498-17.951l1.281-1.969C802.87 640.215 825.991 637.492 843 647z" fill="#663D43"/><path d="M999 302h1c.174 5.426.3 10.85.385 16.278.035 1.844.082 3.688.143 5.531.086 2.66.125 5.316.156 7.976l.11 2.476c.001 3.562-.126 5.849-2.307 8.753-1.866 1.859-1.866 1.859-3.723 3.461-1.713 1.481-3.01 2.987-4.389 4.775-2.352 2.723-4.334 3.925-7.375 5.75-1.807 1.915-3.38 3.917-5 6 .656 1.983.656 1.983 2 4l2.281.883c3.1 1.274 5.05 2.878 7.532 5.117l2.394 2.125C994 377 994 377 994 379l6 2v30c-19.904-7.962-36.724-25.714-51.687-40.5l-2.146-2.106-1.991-1.988-1.784-1.771C941 363 941 363 940 360l1.914-1.547c12.028-9.775 23.8-19.827 35.086-30.453l2.617-2.453c7.376-7.123 13.698-15.02 19.383-23.547z" fill="#FDFDFD"/><path d="M366 956l3.3 1.64c3.46 1.742 4.713 3.002 6.7 6.36 1.733 5.577 2.874 11.276 4 17h2c.082 1.853.14 3.708.188 5.563l.105 3.128c-.356 4.022-1.641 6.638-3.293 10.309-7.277.254-14.552.429-21.832.55-2.475.05-4.95.118-7.423.204a490.52 490.52 0 01-10.686.223l-3.338.156c-7.54.005-7.54.005-10.938-3.27-1.817-2.552-3.338-5.086-4.783-7.863l-1.343-2.407C315.61 981.942 315.142 976.32 316 970c1.375-2.875 1.375-2.875 3-5l.812-2.375C322.55 956.577 327.268 952.24 333 949c12.887-4.089 22.276.508 33 7z" fill="#9B7B69"/><path d="M1000 597v142c-5.623-5.623-5.623-5.623-7.832-8.82l-1.469-2.106-1.511-2.199a4827.773 4827.773 0 00-3.176-4.57l-1.554-2.236a200.71 200.71 0 00-3.876-5.311c-5.784-7.661-10.53-14.58-10.098-24.524C971 687 971 687 973.625 684c3.129-1.854 5.927-2.918 9.375-4a4147.74 4147.74 0 00-1.75-6.188l-.538-1.928c-.87-3.081-1.787-6.094-2.868-9.11-3.166-8.932-5.595-20.412-1.668-29.493 2.2-3.046 4.346-4.979 7.531-6.992 2.678-2.182 2.678-2.182 2.606-5.934-.088-1.39-.193-2.78-.313-4.168-.382-8.834-.382-8.834 2.125-12.437C995.182 597 995.182 597 1000 597z" fill="#B4B6B9"/><path d="M901.625 149.563l3.296.006c52.81.162 52.81.162 62.079 9.431.125 2.625.125 2.625 0 5-4.39 1.254-4.39 1.254-7.043.148-18.5-7.184-41.175-7.309-60.77-7.46l-2.114-.03c-31.753-.375-59.687 13.583-82.155 35.424-.975.97-1.948 1.943-2.918 2.918l-2.637 2.637c-21.13 22.192-40.047 56.309-41.988 87.363l-.227 3.438L767 291l3.375.188c7.209.945 13.559 3.951 18.125 9.687 4.975 6.914 4.716 14.158 4.5 22.313a593.09 593.09 0 00-.125 5.855l-.07 2.594c.214 2.59.959 4.106 2.195 6.363.759 5.358.877 9.618-2.063 14.25C790 354 790 354 786.188 353.813L783 353c.313-2.375.313-2.375 1-5l3-2c-.115-4.086-.115-4.086-1-8-2.918-2.086-2.918-2.086-6-3v-5l4-2c.109-2.876.188-5.748.25-8.625l.102-2.45c.089-5.496-.66-8.583-4.352-12.925-5.14-3.882-9.257-4.497-15.645-4.727C762 299 762 299 760 297c-1.233-13.197.397-24.663 5-37l.845-2.342c6.87-18.882 15.774-36.786 28.155-52.658l2.133-2.805C813.809 179.692 837.336 161.255 865 153l2.55-.814c11.176-3.106 22.565-2.688 34.075-2.624z" fill="#683F45"/><path d="M200.625 478.313l2.027.57c6.04 1.816 11.652 4.43 17.348 7.117l2.773 1.288c14.011 6.525 27.517 13.554 40.809 21.423l2.329 1.377c1.476.875 2.95 1.754 4.42 2.639 3.489 2.08 6.853 3.843 10.669 5.273l1 1a168.464 168.464 0 01-.125 5.688c-.017 4.876-.02 8.356 3.125 12.312 4.626 2.683 8.682 3.386 13.984 3.691C301 541 301 541 304 543c-.064 3.447-.406 6.734-.85 10.146-.286 2.392-.286 2.392-.15 5.854 2.53 2.712 5.538 3.75 9 5 .043 1.666.04 3.334 0 5-1 1-1 1-3.5 1.438-5.06-.633-8.586-3.257-12.5-6.438-1.365-2.73-1.132-4.956-1.125-8l-.008-3.25C295 550 295 550 296 548l-3 .25c-5.272-.021-9.689-2.12-13.547-5.676-4.227-4.811-5.73-9.058-5.578-15.386l.055-2.958.07-2.23-3.625-.938c-5.094-1.692-9.3-4.436-13.731-7.378-32.989-21.826-70.082-38.255-110.351-31.375-18.932 3.975-42.237 10.712-54.106 27.21-2.692 4.318-4.884 8.53-6.187 13.481a88.406 88.406 0 01-5 1c-1-1-1-1-1.375-3.938.168-8.203 5.76-15.257 11.164-20.972 27.293-25.799 75.278-30.556 109.836-20.777z" fill="#693F44"/><path d="M999 288h1c.935 7.801 1.009 13.657-3.813 20.125A202.627 202.627 0 01991 314c-.888 1.008-1.775 2.017-2.66 3.027-2.712 3.057-5.51 6.025-8.34 8.973l-2.758 2.883a177.665 177.665 0 01-16.543 14.922c-2.74 2.228-5.346 4.559-7.949 6.945A100.638 100.638 0 01941 360c3.32 5.978 7.996 10.337 12.813 15.125l1.43 1.425c7.495 7.454 15.172 14.288 23.757 20.45 1.24.91 2.48 1.822 3.719 2.734 5.601 4.084 11.213 7.898 17.281 11.266v8c-16.97-6.067-31.722-19.96-44.766-31.953-2.27-2.08-4.593-4.093-6.922-6.11-3.574-3.163-6.736-6.522-9.804-10.175L937 369l-1.383-1.793c-1.602-1.47-1.602-1.47-4.008-1.031-2.598.82-4.915 1.809-7.359 3.012-4.895 2.284-9.85 4.202-14.938 6l-2.122.756c-7.337 2.557-14.352 4.72-22.19 4.056-2.063-1.188-2.063-1.188-3-3a81.52 81.52 0 011-5l2.035-.156C906.837 369.368 927.9 359.486 945 346l2.7-2.117c6.068-4.866 11.817-10.025 17.51-15.317 2.328-2.141 4.69-4.21 7.102-6.253 10.262-8.956 18.98-20.733 25.63-32.583L999 288z" fill="#683F45"/><path d="M759 795c2.625.375 2.625.375 5 1-.565 4.595-1.464 8.783-2.875 13.188-8.145 28.565-8.292 60.55.875 88.812l.759 2.384c1.773 6.81 1.773 6.81 5.241 12.616.04 2 .043 4 0 6-2.188.5-2.188.5-5 0-13.164-16.126-15.746-43.996-16-64l-1.73 1.355c-6.7 4.996-13.418 7.893-21.27 10.645-10.334 3.92-18.559 9.923-26 18-14.4 14.77-14.4 14.77-21.602 15.23a263.949 263.949 0 01-4.023-.043l-2.063-.001c-5.03-.045-5.03-.045-7.312-1.186a99.984 99.984 0 010-5c1.81-1.81 4.745-1.216 7.188-1.313 5.509-.413 8.586-.93 12.812-4.687l2.363-2.02c3.783-3.289 7.405-6.537 10.512-10.48 7.496-9.135 18.06-14.924 29.125-18.438 8.172-2.652 13.727-6.323 19.457-12.707C746 843 746 843 749 843l-.14-2.578C748.43 826 750.59 810.087 757 797l2-2z" fill="#6A4248"/><path d="M1000 597c.44 5.27.44 5.27 0 8-2.438 2.375-2.438 2.375-5 4-1.366 2.732-1.128 4.982-1 8l1 1c.388 5.05.186 8.017-3 12a152.53 152.53 0 01-6.258 5.45c-2.68 2.385-2.737 3.502-3.117 7.175.043 5.352 1.71 10.117 3.376 15.137 2.198 6.655 3.746 13.336 4.999 20.238l.703 3.777L992 685c-2.188 2.188-3.011 2.39-5.938 3-3.052.639-4.349 1.191-7.062 3 1.192 10.219 8.795 18.244 14.887 26.176L996 720l2.254 2.926c2.063 3.632 2.165 5.81 1.996 9.949l-.11 3.492L1000 739c-4.27-3.98-7.512-8.324-10.813-13.125a4827.773 4827.773 0 00-3.175-4.57l-1.554-2.236a200.71 200.71 0 00-3.876-5.311c-5.784-7.661-10.53-14.58-10.098-24.524C971 687 971 687 973.625 684c3.129-1.854 5.927-2.918 9.375-4a4147.74 4147.74 0 00-1.75-6.188l-.538-1.928c-.87-3.081-1.787-6.094-2.868-9.11-3.166-8.932-5.595-20.412-1.668-29.493 2.2-3.046 4.346-4.979 7.531-6.992 2.678-2.182 2.678-2.182 2.606-5.934-.088-1.39-.193-2.78-.313-4.168-.382-8.834-.382-8.834 2.125-12.437C995.182 597 995.182 597 1000 597z" fill="#684046"/><path d="M315 428c3.335.994 6.668 1.996 10 3l2.715.809c10.659 3.219 21.21 6.776 31.753 10.352 2.049.679 4.118 1.296 6.192 1.894L368 445l1 3h6v2h-6l-.188 3.563c-.599 4.75-2.434 8.059-5.812 11.437-2.813 1.438-2.813 1.438-5 2v2c-7.726 1.545-14.05 2.044-21-2-5.82-4.882-8.032-10.364-10.469-17.402-2.128-5-5.078-9.254-8.23-13.66C315 431.277 315 431.277 315 428z" fill="#838892"/><path d="M815.25 652.563c3.954.05 4.562.277 7.75 3 2.12 3.643 2.75 6.26 3 10.437l1.625-1c2.98-1.254 5.168-1.273 8.375-1l3 2c.965 6.875-.896 11.481-5 17-2.47 2.63-5.13 4.82-8 7l-2.129 1.766c-5.067 3.879-9.073 5.092-15.473 4.68C806 696 806 696 803.312 694.5c-2-3.812-1.857-6.21-1.312-10.5 1.875-2 1.875-2 4-3h2v-2l-2.75-.125C802 678 802 678 799.625 675.5c-2.033-4.378-2.594-7.756-1.625-12.5 3.2-5.237 6.462-6.977 12-9 1.56-1.56 3.089-1.32 5.25-1.438z" fill="#3E4B64"/><path d="M555.813 862.758l3.187.367 3.188.32C565 864 565 864 568 866c1.45 6.912-.534 13.063-4 19-4.282 6.422-10.687 10.562-18 13-2.68.122-5.321.185-8 .188l-2.195.037c-3.812.01-5.559-.06-8.805-2.225-.408-2.712-.133-5.244 0-8l3.188-1.188c3.77-1.617 6.005-3.794 8.812-6.812 1.18-.967 2.369-1.925 3.563-2.875 3.558-2.995 5.304-6.01 7.437-10.125 1.715-3.083 2.212-3.932 5.813-4.242z" fill="#3D4A62"/><path d="M815.25 652.563c3.847.067 4.607.326 7.813 2.812 2.87 4.216 2.772 8.737 1.937 13.625-1.72 4.902-4.35 7.718-9 10-4.061.648-7.934.619-12 0-2.974-2.216-4.37-3.74-6-7-.684-4.884-.545-8.109 2.063-12.375 3.306-2.955 5.813-4.118 9.937-5.625 1.56-1.56 3.089-1.32 5.25-1.438z" fill="#F8F7F7"/><path d="M540 853c3 2.063 3 2.063 5 5 .685 4.186.334 6.332-1.563 10.125-3.587 4.232-6.5 7.346-12.125 8.36-4.668.228-8.211.156-11.937-2.86-2.55-2.817-3.257-3.738-3.75-7.438C516 863 516 863 518 860.313c3.034-2.338 5.529-3.493 9.133-4.636 9.256-3.35 9.256-3.35 12.867-2.676z" fill="#FBFAFA"/><path d="M878.438 672l3.083.867c2.496.703 4.988 1.414 7.479 2.133v1l-3.191.043c-23.888.658-43.761 11.553-60.584 28.147C821.304 708 821.304 708 818 708c1.64-4.015 4.443-6.892 7.375-10l1.618-1.722c1.115-1.182 2.234-2.361 3.355-3.538a558.19 558.19 0 004.62-4.943c13.212-13.99 24.341-21.323 43.47-15.797z" fill="#D7AF98"/><path d="M302 552l2.063 2.313c3.17 2.9 5.99 4.079 9.937 5.687 1.938 1.563 1.938 1.563 3 3v2l3 1-7 2v-4l-3.813-.813c-2.338-.604-4.103-1.137-6.187-2.375-1.585-2.873-1.181-5.608-1-8.812z" fill="#8A8B93"/><path d="M698 82l2 1-31 31-2-1c19.191-20.712 19.191-20.712 28.434-28.652A46.45 46.45 0 00698 82z" fill="#7C585D"/><path d="M281 524l.25 1.875c.996 2.821 2.113 2.844 4.75 4.125a522.49 522.49 0 014 5c1.94 1.758 3.95 3.369 6 5-3.084 1.357-4.275.908-7.563-.188-4.442-2.342-5.874-4.122-7.437-8.812-.04-2.333-.044-4.667 0-7z" fill="#888A93"/><path d="M683 830c.25 2.313.25 2.313 0 5-1.563 1.813-1.563 1.813-4 3-3.75.188-3.75.188-7 0l-1-5c7.286-4.714 7.286-4.714 12-3z" fill="#6C454B"/><path d="M817 708h2c-1.953 4.535-5.188 8.166-8.28 11.959-3.034 3.83-4.966 7.475-6.72 12.041l-2-2-3 2c1.756-4.129 4.535-7.4 7.313-10.875l1.435-1.816A892.888 892.888 0 01812 714l1.4-1.782c1.155-1.444 2.372-2.836 3.6-4.218z" fill="#CFBEB6"/><path d="M320 571l2 1a589.337 589.337 0 01-.875 4.75l-.492 2.672c-.601 2.447-1.413 4.384-2.633 6.578h-2c.595-10.558.595-10.558 4-15z" fill="#9A9BA2"/><path d="M792 720l3 2c-.607 3.153-1.642 5.189-3.563 7.75l-1.378 1.86c-.35.458-.7.917-1.059 1.39-1.236-3.708-.568-4.675.938-8.188l1.152-2.73L792 720z" fill="#DBCCC6"/><path d="M522 857c2.063.438 2.063.438 4 1h-3l-.875 1.875C521 862 521 862 519 864c-.4 2.323-.74 4.657-1 7-2-2-2-2-2.438-4.813.575-4.182 2.291-5.5 5.438-8.187l1-1z" fill="#C0AFB2"/><path d="M987 621c.84 1.64.84 1.64 1 4a55.841 55.841 0 01-5.438 5.75l-1.603 1.535A379.931 379.931 0 01977 636c0-4.153 2.24-6.154 5-9l4-3 1-3z" fill="#76555B"/><path d="M792 366c4.609.72 8.672 2.313 13 4v3c-4.827-1.413-8.716-3.43-13-6v-1z" fill="#9599A0"/><path d="M274 917l2 1-11 11c0-3.524.551-4.015 2.813-6.563l1.582-1.816C271 919 271 919 274 917z" fill="#7B575C"/><path d="M798 649l2 1-10 10-1-2a591.616 591.616 0 012.813-3.375l1.582-1.898C795 651 795 651 798 649z" fill="#755257"/><path d="M817 708h2c-1.527 3.436-3.6 6.12-6 9l-3-1a563.897 563.897 0 013.375-4l1.898-2.25L817 708z" fill="#CFB7AC"/><path d="M995 598l2 1-9 9c0-3 0-3 2.375-5.563L993 600l2-2z" fill="#78575C"/><path d="M85 504l2 1a258.589 258.589 0 01-2.313 4l-1.3 2.25L82 513h-3v-2h2l.875-2.375C83 506 83 506 85 504z" fill="#B28D78"/><path d="M894 679l7 1 2 5a85.504 85.504 0 01-9-5v-1z" fill="#918A89"/><path d="M281 524l.25 1.875c.543 2.292.543 2.292 2.688 3.188L286 530l2 3-7-2v-7z" fill="#9C9BA1"/><path d="M86 501l3 1-2.813 2.25c-2.458 2.04-4.403 4.075-6.187 6.75.414-4.833 2.464-6.827 6-10z" fill="#DBBAA5"/></svg>